<svg version="1.0" xmlns="http://www.w3.org/2000/svg" viewBox="0 0 160.87 52.03" width="160.87" height="52.03">
  <defs><linearGradient id="92" x1="0%" y1="0%" x2="100%" y2="0%"><stop offset="0%" stop-color="#fa71cd"/> <stop offset="100%" stop-color="#9b59b6"/></linearGradient><linearGradient id="93" x1="0%" y1="0%" x2="100%" y2="0%"><stop offset="0%" stop-color="#f9d423"/> <stop offset="100%" stop-color="#f83600"/></linearGradient><linearGradient id="94" x1="0%" y1="0%" x2="100%" y2="0%"><stop offset="0%" stop-color="#0064d2"/> <stop offset="100%" stop-color="#1cb0f6"/></linearGradient><linearGradient id="95" x1="0%" y1="0%" x2="100%" y2="0%"><stop offset="0%" stop-color="#f00978"/> <stop offset="100%" stop-color="#3f51b1"/></linearGradient><linearGradient id="96" x1="0%" y1="0%" x2="100%" y2="0%"><stop offset="0%" stop-color="#7873f5"/> <stop offset="100%" stop-color="#ec77ab"/></linearGradient><linearGradient id="97" x1="0%" y1="0%" x2="100%" y2="0%"><stop offset="0%" stop-color="#f9d423"/> <stop offset="100%" stop-color="#e14fad"/></linearGradient><linearGradient id="98" x1="0%" y1="0%" x2="100%" y2="0%"><stop offset="0%" stop-color="#009efd"/> <stop offset="100%" stop-color="#2af598"/></linearGradient><linearGradient id="99" x1="0%" y1="0%" x2="100%" y2="0%"><stop offset="0%" stop-color="#ffcc00"/> <stop offset="100%" stop-color="#00b140"/></linearGradient><linearGradient id="100" x1="0%" y1="0%" x2="100%" y2="0%"><stop offset="0%" stop-color="#d51007"/> <stop offset="100%" stop-color="#ff8177"/></linearGradient><linearGradient id="102" x1="0%" y1="0%" x2="100%" y2="0%"><stop offset="0%" stop-color="#a2b6df"/> <stop offset="100%" stop-color="#0c3483"/></linearGradient><linearGradient id="103" x1="0%" y1="0%" x2="100%" y2="0%"><stop offset="0%" stop-color="#7ac5d8"/> <stop offset="100%" stop-color="#eea2a2"/></linearGradient><linearGradient id="104" x1="0%" y1="0%" x2="100%" y2="0%"><stop offset="0%" stop-color="#00ecbc"/> <stop offset="100%" stop-color="#007adf"/></linearGradient><linearGradient id="105" x1="0%" y1="0%" x2="100%" y2="0%"><stop offset="0%" stop-color="#b88746"/> <stop offset="100%" stop-color="#fdf5a6"/></linearGradient></defs>
  <g fill="#23b5e8" transform="translate(0,0)">
    <g transform="translate(0,0)">
      <g><rect fill="#23b5e8" fill-opacity="0" stroke-width="0" x="0" y="0" width="60" height="52.03"/>
        <svg x="0" y="0" width="60" height="52.03" style="overflow:visible">
          <svg xmlns="http://www.w3.org/2000/svg" viewBox="0 0 75.62 65.58" width="60" height="52.03">
            <path fill="#23b5e8" d="M51.4 0l24.22 43.87H51.4L38.6 21.93 51.4 0z"/>
            <path fill="#143d8f" d="M13.14 65.58L51.4 0h-26L0 43.87l13.14 21.71zM21.42 65.58h41.65l12.55-21.71H32.79L21.42 65.58z"/>
          </svg>
        </svg>
      </g>
    </g>
    <g transform="translate(67,7.97)">
      <g fill-rule="" transform="translate(0,0)">
        <g transform="scale(1)">
          <g><path d="M11.57-15.38L18.86-15.38 18.86-13.61 22.06-13.61 22.06-18.89 8.3-18.89 8.3-13.61 11.57-13.61ZM22.22-5.02L22.22-8.47 16.97-8.47 16.97-10.15 13.39-10.15 13.39-8.47 8.23-8.47 8.23-5.02 12.05-5.02C11.02-3.84 9.74-2.81 7.82-1.75L7.82-3.14 6.26-2.9 6.26-6.91 7.32-6.91 7.32-10.63 6.26-10.63 6.26-14.66 7.42-14.66 7.42-18.34 1.27-18.34 1.27-14.66 2.9-14.66 2.9-10.63 1.46-10.63 1.46-6.91 2.9-6.91 2.9-2.47C2.06-2.38 1.27-2.28 0.67-2.18L0.89 1.75C2.52 1.49 6.19 0.91 7.82 0.67L7.82 0.38 9.05 2.14C10.87 0.96 12.26-0.26 13.39-1.73L13.39 2.9 16.97 2.9 16.97-1.78C18.1-0.41 19.54 0.82 21.17 1.9L23.3-1.56C21.36-2.45 19.44-3.7 18.12-5.02ZM15.36-12C17.09-11.18 19.56-9.89 21.1-9L22.34-11.86C21.38-12.36 18.29-13.8 16.68-14.5ZM13.63-14.45C12.12-13.44 9.79-12.43 8.14-11.81L9.53-9C11.45-9.79 13.37-10.9 15.07-11.95ZM44.47-18.67L26.78-18.67 26.78-14.86 44.47-14.86ZM46.49-8.14L46.49-12.02 24.77-12.02 24.77-8.14 31.27-8.14C30.38-6.67 29.3-5.09 28.46-4.06 27.38-2.78 26.69-2.45 25.51-2.18L26.69 2.11C28.2 1.92 29.33 1.73 31.49 1.54 34.34 1.34 38.57 1.08 41.59 0.96L42.82 3.05 46.37 0.53C44.76-1.92 42.14-5.59 40.3-7.68L37.18-5.66C37.75-4.92 38.47-3.91 39.22-2.78 36.96-2.66 33.98-2.54 32.38-2.47 33.48-3.89 35.18-6.41 36.29-8.14ZM70.39-2.76L70.1-6.74 68.26-6.53 68.26-19.49 64.44-19.58 64.44-15.17C63.38-16.3 61.97-17.57 60.89-18.41L58.56-15.74C59.42-15.02 61.06-13.42 62.16-12.26L64.44-15.12 64.44-6.12 58.58-5.45C57.74-6.41 56.47-7.7 56.04-8.14L55.13-7.37 55.13-9.48 57.41-9.48 57.41-13.15 55.13-13.15 55.13-15.43C56.09-15.5 56.98-15.6 57.62-15.67L57.1-19.18C54.89-18.91 51.12-18.67 48.94-18.6L49.3-15.05C49.9-15.07 50.62-15.1 51.38-15.17L51.38-13.15 48.72-13.15 48.72-9.48 51.17-9.48C50.5-8.04 49.32-6.5 48-4.87L48.89-0.05C49.44-0.79 50.52-2.3 51.38-3.86L51.38 2.71 55.13 2.71 55.13-4.34C55.68-3.65 56.21-2.93 56.5-2.47L57.96-3.98 58.15-1.42 64.44-2.11 64.44 2.83 68.26 2.83 68.26-2.52ZM63.46-9.26C62.38-10.39 60.94-11.71 59.81-12.5L57.5-9.79C58.39-9.1 60.14-7.44 61.1-6.29ZM80.09-5.64L80.06-9.55C79.56-9.48 79.01-9.38 78.43-9.31L78.43-12.19 80.26-12.19 80.26-15.96 78.43-15.96 78.43-19.49 74.86-19.58 74.86-15.96 72.7-15.96 72.7-12.19 74.86-12.19 74.86-8.81C73.8-8.64 72.79-8.54 71.95-8.45L72.31-4.46C72.96-4.58 73.87-4.7 74.86-4.87L74.86-2.21C74.86-1.34 74.69-1.15 74.11-1.08L72.84-0.96 73.85 2.88 75.72 2.71C77.78 2.52 78.43 2.06 78.43-0.24L78.43-5.38ZM94.54-1.34C92.83-1.8 91.37-2.33 90.1-2.93 91.15-4.25 91.99-5.69 92.83-7.58L92.83-11.62 88.82-11.62 88.82-13.46 93.74-13.46 93.74-17.4 88.82-17.4 88.82-19.49 84.89-19.58 84.89-17.4 80.66-17.4 80.66-13.46 84.89-13.46 84.89-11.62 80.81-11.62 80.81-7.87 83.57-7.87 81.24-6.6C82.1-5.18 82.97-4.01 83.9-2.95 82.56-2.18 80.95-1.51 78.96-0.86L80.93 2.88C83.52 1.8 85.46 0.84 87-0.22 88.61 0.91 90.36 1.85 92.57 2.74ZM88.87-7.87C88.37-6.86 87.7-5.95 86.86-5.14 86.02-5.95 85.34-6.86 84.79-7.87Z" transform="translate(-0.67,19.58)"/></g>
        </g>
      </g>
      <g fill-rule="" fill="#23b5e8" transform="translate(19.44,29.63)">
        <g transform="scale(1,1)">
          <g transform="scale(1)">
            <path d="M6.72-5.04L6.72-5.04L5.78-5.04Q5.43-6.48 3.79-6.52L3.79-6.52Q1.52-6.41 1.45-3.63L1.45-3.63Q1.45-0.66 3.83-0.66L3.83-0.66Q5.47-0.70 5.86-2.66L5.86-2.66L6.80-2.66Q6.37 0.04 3.63 0.12L3.63 0.12Q0.51 0 0.43-3.59L0.43-3.59Q0.59-7.19 3.79-7.34L3.79-7.34Q6.33-7.27 6.72-5.04ZM9.02-0.86L13.32-0.86L13.32 0L8.05 0L8.05-7.15L13.24-7.15L13.24-6.33L9.02-6.33L9.02-4.10L12.93-4.10L12.93-3.24L9.02-3.24L9.02-0.86ZM15.74-7.15L19.34-1.37L19.34-7.15L20.27-7.15L20.27 0L19.18 0L15.55-5.78L15.51-5.78L15.51 0L14.57 0L14.57-7.15L15.74-7.15ZM27.73-5.04L27.73-5.04L26.80-5.04Q26.45-6.48 24.80-6.52L24.80-6.52Q22.54-6.41 22.46-3.63L22.46-3.63Q22.46-0.66 24.84-0.66L24.84-0.66Q26.48-0.70 26.88-2.66L26.88-2.66L27.81-2.66Q27.38 0.04 24.65 0.12L24.65 0.12Q21.52 0 21.45-3.59L21.45-3.59Q21.60-7.19 24.80-7.34L24.80-7.34Q27.34-7.27 27.73-5.04ZM28.95-7.15L29.92-7.15L29.92-0.86L33.55-0.86L33.55 0L28.95 0L28.95-7.15ZM40.16-3.55L40.16-3.55Q40-6.37 37.66-6.52L37.66-6.52Q35.27-6.41 35.16-3.55L35.16-3.55Q35.27-0.78 37.66-0.66L37.66-0.66Q40-0.82 40.16-3.55ZM41.13-3.55L41.13-3.55Q40.90 0 37.66 0.12L37.66 0.12Q34.38 0 34.14-3.55L34.14-3.55Q34.34-7.27 37.66-7.34L37.66-7.34Q40.90-7.23 41.13-3.55ZM46.99-2.66L46.99-7.15L47.97-7.15L47.97-2.54Q47.85 0.04 45.04 0.12L45.04 0.12Q42.42 0.04 42.30-2.38L42.30-2.38L42.30-7.15L43.28-7.15L43.28-2.66Q43.32-0.70 45.08-0.66L45.08-0.66Q46.99-0.70 46.99-2.66L46.99-2.66ZM52.38 0L49.49 0L49.49-7.15L52.42-7.15Q55.31-6.99 55.43-3.67L55.43-3.67Q55.27-0.08 52.38 0L52.38 0ZM52.27-6.37L50.47-6.37L50.47-0.82L52.34-0.82Q54.38-0.94 54.45-3.59L54.45-3.59Q54.41-6.29 52.27-6.37L52.27-6.37Z" transform="translate(-0.43,7.34)"/>
          </g>
        </g>
      </g>
    </g>
  </g>
</svg>
