<svg width="186" height="38" viewBox="0 0 186 38" fill="none" xmlns="http://www.w3.org/2000/svg">
<g clip-path="url(#clip0)">
<path d="M2.94092 29.8808H5.58756L4.55831 36.4974C4.55831 37.0856 4.26424 37.2326 3.82313 37.2326H2.94092V36.0563H3.38202C3.38202 36.0563 3.52906 36.0563 3.52906 35.9093L4.41127 30.9101H2.94092V29.8808ZM4.1172 27.3812H12.2042V28.7045L9.11641 30.3219V30.9101H11.0279V31.9393H9.11641V32.8215H11.1749V33.8508H9.11641V34.733H11.3219V35.7623H9.11641V36.9385C9.11641 37.3796 8.82234 37.5267 8.2342 37.5267H6.02866V36.4974H7.49902C7.64606 36.4974 7.79309 36.4974 7.79309 36.3504V35.6152H5.58756V34.586H7.79309V33.7038H5.73459V32.6745H7.79309V31.7923H6.02866V30.763H7.79309V29.8808L10.2927 28.4105H4.1172V27.3812ZM11.1749 32.0864H12.4982L13.0864 35.9093C13.0864 36.0563 13.2334 36.2034 13.3804 36.2034H13.5275V37.2326H12.7923C12.3512 37.2326 12.2042 37.0856 12.0571 36.6445L11.1749 32.0864ZM12.2042 29.2927H13.5275L13.0864 31.0571C12.9393 31.4982 12.6453 31.6453 12.2042 31.6453H11.1749V30.616H11.616C11.7631 30.616 11.7631 30.469 11.9101 30.3219L12.2042 29.2927Z" fill="#9E0029"/>
<path d="M27.6431 26.793V27.3812C27.6431 27.9693 27.3491 28.2634 26.7609 28.2634H23.3791V29.2926H27.3491V31.4982C27.3491 32.0863 27.055 32.3804 26.4669 32.3804H23.3791V36.2033C23.3791 36.7914 23.085 37.2326 22.3499 37.2326H21.7617V36.0563H22.0558C22.2028 36.0563 22.3499 36.0563 22.3499 35.9092V27.2341H26.4669C26.6139 27.2341 26.7609 27.0871 26.7609 26.646H27.6431V26.793ZM23.2321 31.4982H26.0258C26.1728 31.4982 26.3198 31.3511 26.3198 31.2041V30.3219H23.3791V31.4982H23.2321ZM23.8202 33.4096H27.3491V36.3503C27.3491 36.9385 27.055 37.0855 26.6139 37.0855H23.8202V33.4096ZM26.1728 36.2033C26.3198 36.2033 26.4669 36.0563 26.4669 35.9092V34.2918H24.9965V36.2033H26.1728ZM28.8194 26.9401H29.9957L29.7016 28.1164H32.3483V29.1456H29.4076L29.2605 29.5867C29.1135 30.1748 28.8194 30.4689 28.3783 30.4689H27.6431V29.2926H27.9372C28.0842 29.2926 28.2313 29.1456 28.3783 28.7045L28.8194 26.9401ZM31.025 29.7337H32.0542L30.5839 33.8507L31.4661 35.7622C31.6131 36.0563 31.7601 36.2033 31.9072 36.2033H32.3483V37.2326H31.172C31.025 37.2326 30.7309 37.0855 30.5839 36.7915L29.9957 35.4681L29.5546 36.6444C29.4076 37.0855 29.1135 37.2326 28.8194 37.2326H27.6431V36.2033H28.0842C28.3783 36.2033 28.5254 35.9092 28.8194 35.1741L29.2605 33.8507L27.9372 30.763H28.9665L29.7016 32.3804L31.025 29.7337Z" fill="#9E0029"/>
<path d="M41.0232 31.3511H41.9054L41.6113 36.2033C41.6113 36.4974 41.4643 36.7914 41.3173 36.9385C41.3173 37.2326 41.1702 37.2326 40.8762 37.2326H40.4351V36.2033H40.5821C40.7291 36.2033 40.8762 36.0563 40.8762 35.7622L41.0232 31.3511ZM44.1109 26.9401H45.1402C45.1402 27.5282 44.9932 27.8223 44.8461 28.1163C44.6991 28.2634 44.405 28.4104 44.1109 28.4104H43.3758V29.5867H45.1402V30.616H43.3758V37.5266H42.1995V30.616H40.5821V29.5867H42.1995V28.4104H40.7291V27.3812H43.6698C43.8169 27.5282 43.9639 27.2341 44.1109 26.9401ZM43.5228 31.4982H44.405L44.8461 36.0563C44.8461 36.2033 44.9932 36.3503 45.1402 36.3503H45.4343V37.2326H44.6991C44.405 37.2326 44.1109 36.9385 44.1109 36.4974L43.5228 31.4982ZM51.1687 34.2918V35.4681H50.1394V37.5266H48.8161V35.6152L45.2872 35.7622V34.7329L48.8161 34.5859V27.2341H50.1394V34.5859L51.1687 34.2918ZM45.4343 27.5282H46.7576L47.1987 28.7045C47.1987 28.8515 47.3457 28.9986 47.4928 28.9986H48.375V30.1748H46.9046C46.4635 30.1748 46.3165 30.0278 46.1694 29.5867L45.4343 27.5282ZM45.5813 30.616H46.9046L47.1987 31.7922C47.1987 31.9393 47.3457 32.0863 47.4928 32.0863H48.2279V33.2626H46.9046C46.4635 33.2626 46.3165 33.1156 46.1694 32.6744L45.5813 30.616Z" fill="#9E0029"/>
<path d="M63.6667 27.9693V29.1456H62.4905V30.763H63.5197V31.7922H62.4905V36.3503C62.4905 36.6444 62.3434 36.9385 62.1964 37.0855C62.0493 37.2326 61.7553 37.2326 61.4612 37.2326H59.8438V36.2033H61.0201C61.1671 36.2033 61.3142 36.0563 61.3142 35.7622V33.8507L61.0201 34.733C60.8731 35.027 60.726 35.1741 60.579 35.1741H59.6968V34.1448H59.9908C60.1379 34.1448 60.2849 33.9978 60.432 33.7037L61.3142 31.2041V29.1456H59.6968V27.9693H61.3142V26.9401H62.4905V27.9693H63.6667ZM69.6952 28.2634V29.2926H67.3426V30.763H69.6952V31.9393L67.3426 35.1741L68.0778 36.0563C68.2248 36.2033 68.3719 36.3503 68.5189 36.3503H69.6952V37.2326H67.7837C67.4897 37.2326 67.3426 37.0855 67.0486 36.9385L66.4604 36.2033L66.1663 36.7915C65.8723 37.0855 65.5782 37.2326 65.1371 37.2326H63.3727V36.2033H64.549C64.843 36.2033 65.1371 36.0563 65.2841 35.9092L65.8723 35.1741L63.9608 32.8215H65.4312L66.6074 34.1448L68.3719 31.7922H63.9608V30.616H66.1663V29.1456H63.9608V28.1163H66.1663V26.9401H67.3426V28.2634H69.6952Z" fill="#9E0029"/>
<path d="M80.2816 27.2342H82.6342V36.6445C82.6342 37.0856 82.3401 37.2326 81.899 37.2326H80.8697V36.2034H81.3108C81.4579 36.2034 81.4579 36.2034 81.4579 36.0563V33.9978H80.1345V36.4974C80.1345 37.0856 79.8405 37.2326 79.3994 37.2326H78.3701V36.2034H78.8112C78.9583 36.2034 79.1053 36.0563 79.1053 35.9093V27.0872H80.2816V27.2342ZM80.1345 30.1749H81.4579V28.4105H80.1345V30.1749ZM80.1345 32.9686H81.4579V31.2042H80.1345V32.9686ZM85.8689 27.0872H88.2215V29.8808C88.2215 30.0279 88.3685 30.1749 88.5156 30.1749H88.9567V31.2042H87.9274C87.3393 31.2042 87.1923 30.9101 87.1923 30.469V28.2634H85.1338V30.616C85.1338 31.2042 84.8397 31.3512 84.3986 31.3512H83.3693V30.3219H83.6634C83.8104 30.3219 83.9575 30.1749 83.9575 30.0279V27.0872H85.8689ZM83.2223 31.9393H88.6626V33.1156L86.6041 35.3212L87.0452 35.7623C87.3393 36.0563 87.4863 36.0563 87.7804 36.0563H88.5156V37.2326H87.0452C86.7512 37.2326 86.6041 37.0856 86.4571 36.9385L85.7219 36.0563L84.9867 36.9385C84.9867 37.2326 84.8397 37.2326 84.6927 37.2326H83.2223V36.0563H84.2515C84.3986 36.0563 84.3986 36.0563 84.5456 35.9093L85.2808 35.1741L83.8104 33.5567H85.4278L86.163 34.2919L87.4863 32.8215H83.5164V31.9393H83.2223Z" fill="#9E0029"/>
<path d="M99.102 26.9401H100.425L99.5431 29.2926V37.5266H98.2197V30.4689H97.0435V29.2926H98.0727C98.2197 29.2926 98.3668 29.1456 98.3668 28.8515L99.102 26.9401ZM101.749 27.3812H102.925L102.337 30.616C102.19 31.3511 101.749 31.7922 101.16 31.7922H100.131V30.763H100.719C100.866 30.763 101.013 30.616 101.16 30.1748L101.749 27.3812ZM100.719 32.2333H106.895V36.3503C106.895 36.9385 106.454 37.3796 105.719 37.3796H103.66V36.2033H105.277C105.424 36.2033 105.572 36.0563 105.572 35.9092V33.4096H102.925L102.484 36.2033C102.337 36.7914 102.043 37.0855 101.602 37.0855H100.278V36.0563H100.866C101.013 36.0563 101.16 35.9092 101.307 35.6152L101.602 33.4096H100.572V32.2333H100.719ZM103.513 27.0871H106.601L107.189 30.3219C107.189 30.4689 107.336 30.4689 107.483 30.4689H107.777V31.6452H107.336C106.454 31.6452 105.866 31.3511 105.866 30.763L105.424 28.2634H103.513V27.0871Z" fill="#9E0029"/>
<path d="M126.451 27.8223V28.9986H119.687L119.099 29.8808H126.01V36.4974C126.01 37.0856 125.569 37.3796 124.833 37.3796H121.011V36.3504H124.245C124.392 36.3504 124.539 36.2034 124.539 36.0563V35.3211H118.364V37.5267H117.041V32.3804H115.717V31.2042H116.747C116.894 31.2042 117.041 31.0571 117.188 30.9101L118.07 29.1457H116.011V27.9694H118.658L119.099 27.0872H120.569L119.981 27.9694H126.451V27.8223ZM118.511 32.0864H124.686V30.9101H118.511V32.0864ZM118.511 34.1449H124.686V33.1156H118.511V34.1449Z" fill="#9E0029"/>
<path d="M136.155 36.7915V37.3797H134.979V27.2342H138.508V31.2042C138.508 31.4982 138.361 31.6453 138.067 31.7923C138.361 31.9393 138.508 32.2334 138.508 32.5275V36.0563C138.508 36.4974 138.214 36.6445 137.773 36.7915H136.155ZM136.155 28.2634V31.3512H137.037C137.185 31.3512 137.332 31.2042 137.332 31.0571V28.2634H136.155ZM136.155 32.3804V35.7623H137.185C137.332 35.7623 137.332 35.6152 137.332 35.4682V32.5275C137.332 32.3804 137.185 32.3804 136.89 32.3804H136.155ZM144.83 27.0872V31.7923C144.83 32.2334 144.536 32.3804 144.095 32.3804H140.713V35.7623C140.713 35.9093 140.86 35.9093 141.007 35.9093H142.184V37.2326H140.272C139.831 37.2326 139.537 37.0856 139.537 36.6445V27.2342H144.83V27.0872ZM140.713 29.1457L143.507 29.2927V28.1164H140.713V29.1457ZM140.713 30.3219V31.4982H143.36C143.507 31.4982 143.507 31.4982 143.507 31.3512V30.469H140.713V30.3219ZM143.948 32.9686H145.124L144.536 34.733C144.389 35.1741 144.242 35.3212 143.948 35.3212H143.507L143.801 36.2034C143.801 36.3504 143.948 36.4974 144.095 36.4974H145.419V37.2326H143.507C143.066 37.2326 142.772 36.9385 142.625 36.4974L141.596 33.1156H142.919L143.213 34.2919H143.36C143.507 34.2919 143.507 34.1449 143.654 33.9978L143.948 32.9686Z" fill="#9E0029"/>
<path d="M155.564 27.2342H156.887L156.299 30.763C156.152 31.6453 155.711 31.9393 155.123 31.9393H153.652V30.763H154.682C154.829 30.763 154.976 30.616 155.123 30.1749L155.564 27.2342ZM157.769 30.3219H159.24L156.152 36.0563H161.886C161.739 36.0563 161.739 36.0563 161.739 35.9093L161.298 33.4097H162.622L163.357 36.2034C163.357 36.4974 163.21 36.7915 163.063 36.9385C162.916 37.0856 162.769 37.2326 162.474 37.2326H154.682V36.3504C154.682 36.0563 154.829 35.9093 154.976 35.4682L157.769 30.3219ZM157.622 27.0872H161.739C161.886 27.0872 161.886 27.2342 162.033 27.6753L162.769 30.3219C162.916 30.763 162.916 30.9101 163.063 30.9101H164.092V32.0864H162.033C161.886 32.0864 161.739 31.9393 161.739 31.4982L160.857 28.7046C160.857 28.4105 160.71 28.4105 160.563 28.4105H157.475V27.0872H157.622Z" fill="#9E0029"/>
<path d="M172.473 27.2341H182.619V36.3503C182.619 37.0855 182.177 37.3796 181.442 37.3796H179.972V36.2033H181.001C181.148 36.2033 181.295 36.0563 181.295 35.9092V28.4104H172.473V27.2341ZM180.266 29.4397V30.6159H172.62V29.4397H180.266ZM172.914 31.7922H179.825V35.4681C179.825 36.0563 179.531 36.3503 178.943 36.3503H173.061V31.7922H172.914ZM178.06 35.1741C178.208 35.1741 178.355 35.027 178.355 34.88V32.9685H174.091V35.1741H178.06Z" fill="#9E0029"/>
<path d="M12.204 15.3242C11.0277 15.3242 9.99842 15.0302 9.1162 14.442C8.08696 13.7068 7.64585 12.8246 7.64585 11.5013C7.64585 11.2072 7.64585 11.0602 7.79289 10.7661C7.93992 9.29577 8.82213 8.11948 10.1455 7.23727C11.3217 6.50209 12.498 6.20802 13.8213 6.20802C15.4387 6.20802 16.9091 6.79616 18.0854 8.11948L23.8198 4.00249C21.3202 1.64992 18.2324 0.473633 14.5565 0.473633C11.4688 0.473633 8.52806 1.20881 5.88142 2.8262C2.64664 4.73766 0.735178 7.3843 0.147036 10.7661C0 11.3543 0 11.9424 0 12.3835C0 15.1772 1.32332 17.5298 3.82292 19.0001C5.88142 20.3234 8.23399 20.9116 11.0277 20.9116C14.7036 20.9116 18.2324 19.7353 21.6142 17.2357L17.2032 13.1187C15.5858 14.589 13.9684 15.3242 12.204 15.3242Z" fill="#9E0029"/>
<path d="M39.5525 1.20886L38.2291 8.26657H32.6418L33.9651 1.20886H26.4663L23.0845 20.9116H30.4363L31.7596 13.5598H37.3469L36.0236 20.9116H43.5224L43.6695 19.8824L46.9042 1.20886H39.5525Z" fill="#9E0029"/>
<path d="M73.3707 1.20886L69.8418 20.9116H77.3406L80.8695 1.20886H73.3707Z" fill="#9E0029"/>
<path d="M98.0727 1.20886L96.3083 11.2073L90.4269 1.20886H83.2221L79.8403 20.9116H87.1921L88.8095 11.2073L94.985 20.9116H101.896L105.277 1.20886H98.0727Z" fill="#9E0029"/>
<path d="M106.748 1.20886L105.719 6.50214H110.865L108.365 20.9116H115.717L118.364 6.50214H123.363L124.392 1.20886H106.748Z" fill="#9E0029"/>
<path d="M139.39 6.35511L140.272 1.20886H125.862L122.333 20.9116H136.743L137.772 15.6183H130.715L131.156 13.5598H138.066L138.949 8.41361H132.038L132.332 6.35511H139.39Z" fill="#9E0029"/>
<path d="M151.741 15.3242C150.564 15.3242 149.535 15.0302 148.653 14.442C147.624 13.7068 147.182 12.8246 147.182 11.5013C147.182 11.2072 147.182 11.0602 147.182 10.7661C147.329 9.29577 148.212 8.11948 149.535 7.23727C150.711 6.50209 151.888 6.20802 153.211 6.20802C154.828 6.20802 156.299 6.79616 157.475 8.11948L163.209 4.00249C160.71 1.64992 157.622 0.473633 153.946 0.473633C150.711 0.473633 147.918 1.20881 145.124 2.8262C142.036 4.73766 140.125 7.3843 139.684 10.7661C139.537 11.3543 139.537 11.9424 139.537 12.5305C139.537 15.3242 140.86 17.6768 143.36 19.1471C145.418 20.4705 147.771 21.0586 150.564 21.0586C154.24 21.0586 157.769 19.8823 161.151 17.3827L156.74 13.2657C155.122 14.589 153.505 15.3242 151.741 15.3242Z" fill="#9E0029"/>
<path d="M178.648 1.20886L177.472 8.26657H171.885L173.061 1.20886H165.709L162.18 20.9116H169.679L171.002 13.5598H176.443L175.266 20.9116H182.618L186 1.20886H178.648Z" fill="#9E0029"/>
<path d="M51.7563 6.35511H64.4014L64.2544 5.76697H52.0504L51.7563 6.35511Z" fill="#EF7C1C"/>
<path d="M46.7573 14.5891H66.4601L66.166 13.2657H47.4925L46.7573 14.5891Z" fill="#EF7C1C"/>
<path d="M52.7856 4.5907H63.9603L63.8133 4.29663H53.0797L52.7856 4.5907Z" fill="#EF7C1C"/>
<path d="M50.7271 7.97248H64.8425L64.5484 7.2373H51.1682L50.7271 7.97248Z" fill="#EF7C1C"/>
<path d="M43.5225 19.8824L43.3755 20.9116H50.7273L52.1976 18.265H59.6964L60.1375 20.9116H68.0775L66.4601 14.8832H46.6103L43.5225 19.8824Z" fill="#EF7C1C"/>
<path d="M49.6982 9.58986H65.137L64.9899 8.70764H50.2864L49.6982 9.58986Z" fill="#EF7C1C"/>
<path d="M47.7866 12.9717H66.019L65.725 11.7954H48.3748L47.7866 12.9717Z" fill="#EF7C1C"/>
<path d="M54.8442 1.3559H63.0782V1.20886H54.8442V1.3559Z" fill="#EF7C1C"/>
<path d="M48.8159 11.2073H65.578L65.4309 10.3251H49.4041L48.8159 11.2073Z" fill="#EF7C1C"/>
<path d="M53.8149 2.97327H63.5193L63.3723 2.6792H53.962L53.8149 2.97327Z" fill="#EF7C1C"/>
</g>
<defs>
<clipPath id="clip0">
<rect width="186" height="37.053" fill="white" transform="translate(0 0.473633)"/>
</clipPath>
</defs>
</svg>
