<svg width="110" height="32" viewBox="0 0 110 32" fill="none" xmlns="http://www.w3.org/2000/svg">
<g clip-path="url(#clip0_82_6228)">
<path d="M52.8601 4.13721H55.7551V4.82729H57.3071V6.77407H55.7551V10.7531H57.6333V12.7853H55.1533C55.3021 13.1399 55.5777 13.3868 55.9799 13.5261C56.3822 13.6654 56.9903 13.7382 57.8075 13.7508V16.0078C57.2564 16.0078 56.7623 15.9793 56.3252 15.9223C55.8881 15.8654 55.4858 15.7862 55.1184 15.6818V16.2167H51.4665V17.1822H57.4623V19.2841H42.5757V17.1822H48.5715V16.2167H44.9354V15.6659C44.568 15.7704 44.1625 15.8495 43.7223 15.9065C43.2789 15.9635 42.7848 15.992 42.2305 15.992V13.754C42.6676 13.754 43.0381 13.7382 43.3422 13.7033C43.6463 13.6685 43.9028 13.6115 44.1087 13.5324C44.3146 13.4533 44.4793 13.352 44.5996 13.2317C44.72 13.1114 44.815 12.9658 44.8847 12.7917H42.4047V10.7594H44.2987V6.7804H42.8164V4.83362H44.2987V4.14354H47.1937V4.83362H52.8633V4.14354L52.8601 4.13721ZM48.5683 13.1779H51.4633V14.2446H52.9266C52.7651 14.0262 52.6415 13.7951 52.556 13.5482C52.4705 13.3013 52.3977 13.0449 52.3406 12.7822H47.672C47.615 13.0449 47.5421 13.3013 47.4566 13.5482C47.3711 13.7951 47.2476 14.0262 47.086 14.2446H48.5683V13.1779ZM47.1905 7.41033H52.8601V6.77407H47.1905V7.41033ZM47.1905 9.09754H52.8601V8.44228H47.1905V9.09754ZM47.1905 10.7499H52.8601V10.1137H47.1905V10.7499Z" fill="#282828"/>
<path d="M62.5423 19.275V14.609C62.0609 14.9414 61.5699 15.201 61.0695 15.3846C60.5691 15.5682 60.0781 15.66 59.5967 15.66V12.3204C60.1478 12.3204 60.6799 12.1716 61.1899 11.874C61.6998 11.5765 62.1591 11.1808 62.5677 10.687C62.9762 10.1931 63.3183 9.62969 63.5939 8.99975C63.8694 8.36982 64.0468 7.72406 64.1292 7.07197H59.9609V4.4541H74.8126V7.07197H67.4739C67.4169 7.48665 67.3187 7.91082 67.1825 8.34766C67.0431 8.7845 66.8784 9.22134 66.682 9.65501H73.7294V19.2813H62.5455L62.5423 19.275ZM65.4214 16.7267H70.8503V12.1969H65.4214V16.7267Z" fill="#282828"/>
<path d="M80.8596 4.13721V4.40311C80.8596 4.48858 80.8533 4.57721 80.8438 4.66901H84.6699V6.46068H82.5003V7.42616H84.879V9.21783H82.3103C82.0125 10.2846 81.3822 11.0855 80.4225 11.6204C79.4628 12.1554 78.2529 12.4213 76.7959 12.4213V10.3194C77.461 10.3194 78.0185 10.2213 78.4683 10.0282C78.9149 9.83193 79.2601 9.56287 79.5008 9.21783H76.9859V7.42616H79.9157V6.56514C79.5927 6.79622 79.1777 6.95766 78.6678 7.05579C78.1579 7.15393 77.5339 7.20141 76.7991 7.20141V5.27362C77.3058 5.27362 77.6511 5.20081 77.8411 5.05837C78.0312 4.91592 78.1262 4.60887 78.1262 4.13721H80.8659H80.8596ZM78.1198 12.5764H91.0585V19.3094H78.1198V12.5764ZM80.8596 15.3494H88.3377V14.3681H80.8596V15.3494ZM80.8596 17.5178H88.3377V16.5365H80.8596V17.5178ZM82.5985 9.3033C82.8392 9.68316 83.1623 9.93323 83.5645 10.0599C83.9668 10.1865 84.4102 10.2498 84.8916 10.2498V12.3327C84.1917 12.3327 83.5645 12.244 83.0134 12.0668C82.4623 11.8895 81.984 11.5698 81.5818 11.1108C82.1202 10.6043 82.4591 10.0029 82.5985 9.3033ZM85.2527 4.79246H92.11V12.1459H85.2527V4.79246ZM87.8373 10.2688H89.5255V6.6696H87.8373V10.2688Z" fill="#282828"/>
<path d="M94.8652 7.87589H108.545V14.1277H106.736V14.8178H109.492V16.7456H106.736V19.3983H103.617V16.7456H100.034C99.9425 17.2616 99.7588 17.6858 99.4832 18.0213C99.2077 18.3537 98.8402 18.6164 98.381 18.8064C97.9217 18.9963 97.3611 19.1261 96.7023 19.202C96.0403 19.278 95.2801 19.3128 94.4186 19.3128V17.5212C95.1883 17.5212 95.7774 17.4705 96.186 17.3661C96.5946 17.2616 96.8765 17.0558 97.038 16.7456H93.9023V14.8178H97.2281V14.1277H94.8684V7.87589H94.8652ZM98.1054 4.13744V4.44766C98.1054 4.55212 98.0991 4.64709 98.0896 4.73889H101.707V6.30581H100.414L100.43 7.4074H98.0864L98.0706 6.30581H97.6398C97.3769 6.74265 96.962 7.07502 96.3982 7.3061C95.8344 7.53719 95.0584 7.65114 94.0734 7.65114V5.75818C94.3711 5.75818 94.6023 5.72969 94.7639 5.67271C94.9254 5.61573 95.0394 5.52393 95.1091 5.39731C95.1788 5.27069 95.2136 5.10608 95.22 4.89716C95.2263 4.6914 95.2295 4.43816 95.2295 4.14061H98.1054V4.13744ZM97.7602 9.80368H105.653V9.26871H97.7602V9.80368ZM97.7602 11.2503H105.653V10.7343H97.7602V11.2503ZM97.7602 12.7128H105.653V12.1968H97.7602V12.7128ZM100.104 14.8147H103.62V14.1246H100.104V14.8147ZM105.102 4.13744V4.44766C105.102 4.55212 105.096 4.64709 105.086 4.73889H109.514V6.51156H107.962L107.978 7.54352H105.479L105.463 6.51156H104.706C104.465 6.91358 104.06 7.18265 103.493 7.32193C102.923 7.45805 102.099 7.52769 101.019 7.52769V6.49574C101.33 6.49574 101.567 6.46092 101.735 6.39128C101.903 6.32164 102.02 6.19502 102.09 6.01142C102.16 5.82782 102.198 5.58407 102.21 5.28019C102.223 4.9763 102.226 4.59327 102.226 4.13428H105.102V4.13744Z" fill="#282828"/>
<path d="M41.8721 26.1944C41.8721 23.8899 43.5856 22.3325 45.7901 22.3325C47.2914 22.3325 48.2321 23.1049 48.7801 24.0007L47.6715 24.5832C47.3136 23.9564 46.5851 23.4974 45.7901 23.4974C44.3109 23.4974 43.215 24.618 43.215 26.1944C43.215 27.7708 44.3109 28.8914 45.7901 28.8914C46.5851 28.8914 47.3136 28.4229 47.6715 27.8057L48.7927 28.366C48.2226 29.2618 47.2914 30.0563 45.7933 30.0563C43.5888 30.0563 41.8752 28.4894 41.8752 26.1944H41.8721Z" fill="#A0A0A0"/>
<path d="M49.4736 27.2137C49.4736 25.6595 50.5252 24.3806 52.2514 24.3806C53.9776 24.3806 55.0292 25.6563 55.0292 27.2137C55.0292 28.7712 53.9776 30.0564 52.2514 30.0564C50.5252 30.0564 49.4736 28.7585 49.4736 27.2137ZM53.8066 27.2137C53.8066 26.2641 53.2586 25.4221 52.2482 25.4221C51.2378 25.4221 50.6931 26.2609 50.6931 27.2137C50.6931 28.1666 51.2537 29.0149 52.2482 29.0149C53.2428 29.0149 53.8066 28.176 53.8066 27.2137Z" fill="#A0A0A0"/>
<path d="M56.2266 29.9205V24.5138H57.4016V25.2957C57.8166 24.7797 58.4659 24.3777 59.1595 24.3777V25.5426C59.0582 25.5204 58.9473 25.5078 58.8016 25.5078C58.298 25.5078 57.636 25.8433 57.4016 26.2358V29.9173H56.2266V29.9205Z" fill="#A0A0A0"/>
<path d="M59.7871 27.2137C59.7871 25.6468 60.9305 24.3806 62.53 24.3806C64.1295 24.3806 65.1843 25.612 65.1843 27.3119V27.6031H61.0192C61.1079 28.4103 61.7129 29.0909 62.7327 29.0909C63.2712 29.0909 63.8857 28.8788 64.2784 28.4863L64.8169 29.2586C64.2689 29.7746 63.4739 30.0532 62.6219 30.0532C60.9875 30.0532 59.7903 28.9231 59.7903 27.2106L59.7871 27.2137ZM62.5205 25.3429C61.5228 25.3429 61.054 26.1153 61.0097 26.7642H64.0567C64.0219 26.1248 63.5879 25.3429 62.5237 25.3429H62.5205Z" fill="#A0A0A0"/>
<path d="M65.8901 29.2048L66.4286 28.366C66.8087 28.7585 67.5593 29.1162 68.253 29.1162C68.9466 29.1162 69.3267 28.825 69.3267 28.4008C69.3267 27.3372 66.058 28.1001 66.058 26.0172C66.058 25.134 66.8182 24.3838 68.1865 24.3838C69.105 24.3838 69.7986 24.7098 70.2801 25.134L69.786 25.9634C69.4597 25.6057 68.8674 25.3144 68.1833 25.3144C67.5688 25.3144 67.1856 25.6057 67.1856 25.9855C67.1856 26.9383 70.4543 26.2198 70.4543 28.3692C70.4543 29.3315 69.6593 30.0595 68.2023 30.0595C67.2743 30.0595 66.4444 29.7588 65.8838 29.208L65.8901 29.2048Z" fill="#A0A0A0"/>
<path d="M76.8656 29.9203V26.6535H72.9793V29.9203H71.668V22.4561H72.9793V25.5013H76.8656V22.4561H78.1769V29.9203H76.8656Z" fill="#A0A0A0"/>
<path d="M83.3802 29.9203V29.2049C83.0002 29.6291 82.3287 30.0565 81.4767 30.0565C80.3111 30.0565 79.7314 29.4423 79.7314 28.3439V24.5168H80.9065V27.9071C80.9065 28.7459 81.331 29.015 82.0024 29.015C82.5947 29.015 83.111 28.6668 83.3802 28.3091V24.5137H84.5553V29.9203H83.3802Z" fill="#A0A0A0"/>
<path d="M86.0791 29.9203V22.4561H87.2542V25.2638C87.6913 24.6814 88.3184 24.3807 88.9899 24.3807C90.3899 24.3807 91.3971 25.4664 91.3971 27.2138C91.3971 28.9611 90.3772 30.0564 88.9899 30.0564C88.2962 30.0564 87.6691 29.7209 87.2542 29.1827V29.9203H86.0791ZM88.6573 29.015C89.5854 29.015 90.1808 28.2647 90.1808 27.2138C90.1808 26.1629 89.5885 25.4221 88.6573 25.4221C88.0967 25.4221 87.5266 25.7482 87.2574 26.1502V28.2996C87.5266 28.7016 88.0967 29.015 88.6573 29.015Z" fill="#A0A0A0"/>
<path d="M14.4716 25.9794L18.4213 24.0389C16.4797 21.8104 14.0409 20.0061 11.2092 18.9741C7.63648 17.6794 3.65512 17.6035 0 18.6702L3.53159 25.8528C4.77636 25.169 6.17633 24.748 7.5858 24.5707C8.91609 24.4156 10.2971 24.5074 11.5988 24.8398C12.6156 25.1057 13.5626 25.4887 14.4685 25.9794H14.4716Z" fill="#2467C9"/>
<path d="M24.341 18.2048L24.0465 22.5954C23.1691 23.1367 22.3614 23.7634 21.6234 24.5105C20.6827 25.4696 19.9099 26.6187 19.381 27.8501C18.8298 29.1575 18.4941 30.5819 18.4656 32.0001L10.4775 31.4683C11.0065 29.2936 11.9377 27.2202 13.2046 25.381C13.6354 25.5583 14.0566 25.7577 14.4716 25.9793L18.4213 24.0388C17.7688 23.2886 17.0656 22.589 16.3023 21.9528C16.315 21.9433 16.3308 21.9306 16.3466 21.918C18.6556 19.9838 21.4397 18.7746 24.341 18.208V18.2048Z" fill="url(#paint0_linear_82_6228)"/>
<path d="M25.899 12.6144L22.2407 10.1643C21.281 12.9594 20.9357 15.973 21.4552 18.9391C22.1203 22.6807 24.0461 26.1659 26.7985 28.7933L31.2549 22.1457C30.0419 21.4113 28.9745 20.4079 28.1161 19.2778C27.3148 18.2047 26.7066 16.9638 26.3424 15.6691C26.0637 14.6561 25.9243 13.6432 25.8926 12.6144H25.899Z" fill="url(#paint1_linear_82_6228)"/>
<path d="M18.1802 6.02099L14.2305 7.96144C16.1721 10.1899 18.6109 11.9943 21.4425 13.0262C25.0185 14.3209 28.9998 14.3969 32.6518 13.327L29.1202 6.14444C27.8754 6.82819 26.4754 7.2492 25.066 7.42647C23.7357 7.58158 22.3547 7.48978 21.0529 7.1574C20.0362 6.8915 19.0892 6.50847 18.1833 6.01782L18.1802 6.02099Z" fill="url(#paint2_linear_82_6228)"/>
<path d="M8.60902 9.40468L8.31445 13.7952C11.2157 13.2286 13.9998 12.0194 16.3088 10.0853C19.2165 7.63833 21.2752 4.22909 22.1748 0.531795L14.1867 -0.00317383C14.1582 1.41497 13.8225 2.83944 13.2714 4.14679C12.7424 5.375 11.9696 6.52408 11.0289 7.48639C10.2909 8.23345 9.48321 8.86022 8.60585 9.40152L8.60902 9.40468Z" fill="url(#paint3_linear_82_6228)"/>
<path d="M6.75271 19.3822L10.411 21.8323C11.3707 19.0372 11.7159 16.0236 11.1965 13.0576C10.5314 9.31594 8.60561 5.83073 5.85318 3.20337L1.39355 9.85091C2.60665 10.5853 3.67405 11.5888 4.5324 12.7189C5.33374 13.792 5.94187 15.0328 6.30611 16.3275C6.58484 17.3405 6.7242 18.3534 6.75588 19.3822H6.75271Z" fill="url(#paint4_linear_82_6228)"/>
<path d="M16.3023 21.9497C15.1241 22.95 14.0852 24.1054 13.2078 25.3779C12.6916 25.1627 12.1595 24.9854 11.602 24.8398C10.3002 24.5074 8.91926 24.4125 7.58897 24.5676C6.1795 24.748 4.77636 25.169 3.53476 25.8528L0 18.6702C3.65512 17.6035 7.63648 17.6794 11.2092 18.9741C13.0907 19.6579 14.7979 20.6867 16.3023 21.9529V21.9497Z" fill="url(#paint5_linear_82_6228)"/>
<path d="M18.4217 24.0358L14.472 25.9762C14.0603 25.7546 13.639 25.552 13.2051 25.3779C14.0824 24.1086 15.1213 22.95 16.2996 21.9497C17.0629 22.586 17.7661 23.2855 18.4185 24.0358H18.4217Z" fill="url(#paint6_linear_82_6228)"/>
</g>
<defs>
<linearGradient id="paint0_linear_82_6228" x1="26.9838" y1="20.2922" x2="19.8581" y2="25.229" gradientUnits="userSpaceOnUse">
<stop stop-color="#36963C"/>
<stop offset="1" stop-color="#78EA80"/>
</linearGradient>
<linearGradient id="paint1_linear_82_6228" x1="26.0283" y1="10.9651" x2="26.2238" y2="18.6043" gradientUnits="userSpaceOnUse">
<stop stop-color="#0F3B7D"/>
<stop offset="1" stop-color="#2467C9"/>
</linearGradient>
<linearGradient id="paint2_linear_82_6228" x1="13.9385" y1="1.93694" x2="25.6811" y2="10.2287" gradientUnits="userSpaceOnUse">
<stop stop-color="#36963C"/>
<stop offset="1" stop-color="#78EA80"/>
</linearGradient>
<linearGradient id="paint3_linear_82_6228" x1="7.95699" y1="9.3047" x2="12.4161" y2="6.7919" gradientUnits="userSpaceOnUse">
<stop stop-color="#0F3B7D"/>
<stop offset="1" stop-color="#2467C9"/>
</linearGradient>
<linearGradient id="paint4_linear_82_6228" x1="6.15189" y1="23.4676" x2="6.38408" y2="14.1607" gradientUnits="userSpaceOnUse">
<stop stop-color="#36963C"/>
<stop offset="1" stop-color="#78EA80"/>
</linearGradient>
<linearGradient id="paint5_linear_82_6228" x1="15.4766" y1="26.8828" x2="6.80666" y2="21.9598" gradientUnits="userSpaceOnUse">
<stop stop-color="#0F3B7D"/>
<stop offset="1" stop-color="#2467C9"/>
</linearGradient>
<linearGradient id="paint6_linear_82_6228" x1="13.2447" y1="23.9108" x2="18.4217" y2="24.0401" gradientUnits="userSpaceOnUse">
<stop stop-color="#78EA80"/>
<stop offset="1" stop-color="#78EA80"/>
</linearGradient>
<clipPath id="clip0_82_6228">
<rect width="110" height="32" fill="white"/>
</clipPath>
</defs>
</svg>
