<?xml version="1.0" encoding="UTF-8"?>
<svg xmlns="http://www.w3.org/2000/svg" xmlns:xlink="http://www.w3.org/1999/xlink" width="413pt" height="154pt" viewBox="0 0 413 154" version="1.1">
<g id="surface1">
<path style=" stroke:none;fill-rule:nonzero;fill:rgb(0%,0%,0%);fill-opacity:1;" d="M 159.160156 107.144531 L 134.355469 82.304688 C 129.171875 77.113281 129.613281 77.296875 122.269531 77.296875 L 75.746094 77.296875 C 68.402344 77.296875 68.84375 77.117188 63.664062 82.304688 L 38.855469 107.144531 C 44.480469 118.503906 53.199219 128.039062 64.003906 134.652344 L 92.578125 106.042969 C 95.179688 103.4375 96.328125 102.429688 97.742188 101.992188 C 98.144531 101.851562 98.566406 101.773438 98.992188 101.761719 C 99.417969 101.773438 99.839844 101.851562 100.242188 101.992188 C 101.65625 102.410156 102.804688 103.4375 105.40625 106.042969 L 133.980469 134.652344 C 144.796875 128.046875 153.527344 118.507812 159.160156 107.144531 Z M 159.160156 107.144531 "/>
<path style=" stroke:none;fill-rule:nonzero;fill:rgb(0%,0%,0%);fill-opacity:1;" d="M 67.25 74.855469 C 69.125 72.832031 68.863281 71.101562 70.699219 66.351562 C 75.21875 54.640625 86.464844 46.917969 99.007812 46.917969 C 111.546875 46.917969 122.796875 54.640625 127.316406 66.351562 C 129.148438 71.117188 128.886719 72.832031 130.757812 74.855469 C 132.628906 76.878906 134.507812 77.292969 140.457031 77.292969 L 166.140625 77.292969 C 166.332031 53.152344 153.578125 30.761719 132.726562 18.636719 C 111.878906 6.507812 86.136719 6.507812 65.285156 18.636719 C 44.4375 30.761719 31.683594 53.152344 31.871094 77.292969 L 57.542969 77.292969 C 63.511719 77.292969 65.429688 76.824219 67.25 74.855469 Z M 353.355469 40.417969 C 332.820312 40.417969 316.113281 56.945312 316.113281 77.257812 C 316.113281 97.574219 332.820312 114.101562 353.355469 114.101562 C 373.890625 114.101562 390.601562 97.574219 390.601562 77.257812 C 390.601562 56.945312 373.894531 40.417969 353.355469 40.417969 Z M 353.441406 96.5625 C 342.792969 96.5625 334.160156 87.921875 334.160156 77.261719 C 334.15625 66.601562 342.789062 57.957031 353.4375 57.957031 C 364.085938 57.957031 372.714844 66.601562 372.710938 77.265625 C 372.699219 87.914062 364.078125 96.546875 353.441406 96.5625 Z M 288.074219 48.136719 L 288.074219 112.054688 L 305.503906 112.054688 L 305.503906 42.222656 L 293.980469 42.222656 C 293.128906 42.175781 292.277344 42.261719 291.453125 42.472656 C 289.957031 42.933594 288.789062 44.109375 288.328125 45.605469 C 288.113281 46.433594 288.027344 47.285156 288.074219 48.136719 Z M 202.917969 42.222656 L 202.917969 112.054688 L 214.492188 112.054688 C 215.339844 112.101562 216.191406 112.015625 217.015625 111.804688 C 218.515625 111.34375 219.6875 110.171875 220.144531 108.671875 C 220.355469 107.847656 220.441406 106.996094 220.398438 106.144531 L 220.398438 69.15625 L 254.917969 108.570312 C 255.992188 109.796875 256.886719 110.746094 258.289062 111.386719 C 259.6875 112.023438 260.992188 112.066406 262.625 112.066406 L 275.339844 112.066406 L 275.339844 42.222656 L 263.769531 42.222656 C 262.917969 42.175781 262.066406 42.261719 261.242188 42.472656 C 259.746094 42.929688 258.574219 44.105469 258.117188 45.605469 C 257.902344 46.433594 257.816406 47.285156 257.863281 48.136719 L 257.863281 85.132812 L 223.347656 45.710938 C 222.265625 44.480469 221.371094 43.527344 219.972656 42.894531 C 218.570312 42.261719 217.265625 42.210938 215.632812 42.210938 Z M 202.917969 42.222656 "/>
</g>
</svg>
