<?xml version="1.0" encoding="UTF-8"?>
<svg id="Layer_2" xmlns="http://www.w3.org/2000/svg" viewBox="0 0 267.41 86.69">
  <defs>
    <style>
      .cls-1 {
        fill: #c4001c;
      }
    </style>
  </defs>
  <g id="_图层_1" data-name="图层_1">
    <g>
      <g>
        <g>
          <path class="cls-1" d="M62.21,49.2l-4.58-4.5h2.36c1.23,0,2.22-1,2.22-2.22v-2.84c0-1.19-.96-2.15-2.15-2.15h-15.54v11.71h2.85v-9.35h11.75v2.5h-9.42v2.36h4.33l4.58,4.5h3.6Z"/>
          <path class="cls-1" d="M25.07,37.49c-.47,0-.91.27-1.12.69l-2.2,4.32c-.27.54-.27,1.17,0,1.71l2.2,4.32c.21.42.65.69,1.12.69h15.6v-2.36h-14.47l-1.18-2.32h14.04v-2.36h-14.04l1.18-2.32h14.47v-2.36h-15.6Z"/>
          <path class="cls-1" d="M71.28,37.49h-1.7c-.47,0-.91.27-1.12.69l-2.2,4.32c-.27.54-.27,1.17,0,1.71l2.2,4.32c.21.42.65.69,1.12.69h15.6v-2.36h-14.46l-1.18-2.32h14.04v-2.36h-14.04l1.18-2.32h14.46v-2.36h-13.9Z"/>
          <path class="cls-1" d="M1.7,43.48l13.17,2.02v1.34H0v2.36h15.78c1.07,0,1.93-.87,1.93-1.93v-2.09c0-.98-.73-1.8-1.7-1.92l-13.16-2.02v-1.39h14.86v-2.36H1.93c-1.07,0-1.93.86-1.93,1.93v2.14c0,.98.73,1.8,1.7,1.92"/>
          <path class="cls-1" d="M106.72,39.85v-2.36h-15.78c-1.07,0-1.93.86-1.93,1.93v2.14c0,.98.73,1.8,1.7,1.92l13.16,2.02v1.34h-14.86v2.36h15.78c1.07,0,1.93-.87,1.93-1.93v-2.09c0-.98-.73-1.8-1.7-1.92l-13.17-2.02v-1.39h14.87Z"/>
        </g>
        <path d="M27.8,32.13c4.33-9.83,14.15-16.71,25.56-16.71s21.23,6.89,25.56,16.71h3.99c-4.54-11.92-16.05-20.42-29.55-20.42s-25.01,8.51-29.54,20.42h3.99Z"/>
        <path d="M78.92,54.56c-4.33,9.83-14.15,16.71-25.56,16.71s-21.23-6.89-25.56-16.71h-3.99c4.54,11.92,16.05,20.42,29.55,20.42s25.01-8.51,29.55-20.42h-3.99Z"/>
        <path d="M92.47,54.56c-4.88,17.01-20.55,29.51-39.11,29.51s-34.23-12.5-39.11-29.51h-2.75c4.95,18.48,21.84,32.13,41.87,32.13s36.91-13.65,41.87-32.13h-2.75Z"/>
        <path d="M14.25,32.13C19.13,15.12,34.8,2.63,53.36,2.63s34.23,12.5,39.11,29.51h2.75C90.27,13.65,73.38,0,53.36,0S16.45,13.65,11.5,32.13h2.75Z"/>
      </g>
      <path d="M137.58,59.14c-2.22.69-5.46,1.3-9.63,1.82l1.75,4.19c4.45-.88,7.97-1.74,10.46-2.56,2.54-.83,4.5-1.79,5.82-2.85l.12-.1.15.05c1.44.46,3,.96,4.91,1.55l12.51,3.88,1.22-4.24c-4.83-1.4-10.24-2.87-16.07-4.37l-.33-.08.13-.32c.3-.73.56-1.65.79-2.74h-5.41c-.25,1.3-.79,2.41-1.61,3.29-.87.93-2.49,1.77-4.81,2.49Z"/>
      <path d="M166.35,54.9l1.67-4.1c-4.35-1.29-7.81-2.89-10.3-4.78l-.71-.54h9.22v-3.11h-11.08v-2.32h7.74v-2.69h-7.74v-2.5h6.17v-1.81h4.82v-7.65h-16.08l-.08-.18c-.18-.42-.75-1.65-1.7-3.67l-5.16,1.08.64,1.47.62,1.3h-17.19v7.65h4.82v1.81h6.12v2.5h-7.65v2.69h7.65v2.32h-11.08v3.11h9.08l-.71.54c-1.3.99-2.89,1.95-4.73,2.84-1.73.84-3.61,1.56-5.59,2.16l2.03,3.98c2.03-.78,4.06-1.75,6.06-2.9l.45-.26v5.46h4.36v-5.75h17.2v5.38h4.5v-5.18l.45.25c1.79,1,3.89,1.97,6.22,2.89ZM155.14,28.74h6.49v3.15h-6.49v-3.15ZM142.71,28.74h7.83v3.15h-7.83v-3.15ZM142.71,34.86h7.83v2.5h-7.83v-2.5ZM142.71,40.05h7.83v2.32h-7.83v-2.32ZM138.12,31.89h-6.44v-3.15h6.44v3.15ZM138.66,48.35l.58-.52c.95-.86,1.73-1.62,2.3-2.25l.09-.1h9.91l.09.09c.72.75,1.53,1.51,2.39,2.25l.62.53h-15.96Z"/>
      <path d="M203.67,63.75h1.72c1.95-.03,3.54-.3,4.7-.81,1.14-.5,2.01-1.28,2.59-2.31.59-1.06.99-2.51,1.17-4.31.34-3.03.65-7.29.93-12.67.27-5.24.42-9.71.46-13.29h-19.25v-.31c.18-4.05.26-6.72.25-7.94h-5.31c-.06.99-.1,1.97-.12,2.91v.09c-.03,1.05-.06,2-.09,2.88l-.05,2.38h-12.84v5.34h12.59l-.02.32c-.31,4.3-.93,7.8-1.84,10.42-.93,2.63-2.38,4.99-4.33,7.02-1.88,1.96-4.71,4.22-8.41,6.71l3.94,4.28c4-2.86,7.1-5.54,9.21-7.98,2.14-2.48,3.74-5.3,4.74-8.38,1.01-3.1,1.69-7.17,2.03-12.1l.02-.28h13.85v.3c-.1,6.7-.46,12.63-1.07,17.61-.19,1.45-.46,2.54-.82,3.23-.38.74-.95,1.23-1.71,1.47-.71.23-1.76.34-3.2.34-1.25,0-3.19-.14-5.75-.42l1.08,5.31c1.53.14,3.39.21,5.55.21Z"/>
      <g>
        <path d="M226.42,30.78h2.78v18.31h-3.57v4.13h22.26v-4.13h-2.69v-18.31h2.55v-4.13h-2.55v-3.8h-4.22v3.8h-7.56v-3.8h-4.22v3.8h-2.78v4.13ZM233.43,30.78h7.56v3.57h-7.56v-3.57ZM233.43,38.15h7.56v3.61h-7.56v-3.61ZM233.43,45.57h7.56v3.52h-7.56v-3.52Z"/>
        <path d="M235.67,56l-3.68-2.62-.2.3c-1.97,3.02-4.09,5.55-6.3,7.54l3.44,3.24c2.07-2.19,4.34-5.03,6.74-8.46Z"/>
      </g>
      <path d="M267.41,36.76h-12.8v-6.87l.26-.04c1.95-.28,4.08-.68,6.33-1.2,2.15-.49,4.15-1.04,5.96-1.62l-1.32-4.66c-2.07.67-4.51,1.31-7.25,1.88-2.77.58-5.61,1.05-8.43,1.39v14.75c0,4.22-.1,7.55-.3,9.9-.2,2.37-.61,4.5-1.22,6.35-.58,1.77-1.49,3.66-2.71,5.62l4.33,2.48c1.21-2.16,2.12-4.2,2.73-6.08.62-1.95,1.06-4.21,1.28-6.7.23-2.51.35-5.93.35-10.17v-.3h4.68v22.77h4.46v-22.77h3.66v-4.73Z"/>
      <path d="M245.92,59.64c-1.42-2.16-2.78-4.16-4.05-5.95h0s-3.36,2.14-3.36,2.14c1.35,2.06,2.61,4.12,3.77,6.12l3.65-2.31Z"/>
    </g>
  </g>
</svg>