<svg width="1499" height="315" viewBox="0 0 1499 315" fill="none" xmlns="http://www.w3.org/2000/svg">
<path d="M132.17 67.6101L9 114.56L132.17 157.35V67.6101Z" fill="#0064FF"/>
<path d="M132.17 67.6101L255.33 114.56L132.17 157.35V67.6101Z" fill="#003296"/>
<path d="M77.8103 285.06C120.778 285.06 155.61 250.228 155.61 207.26C155.61 164.292 120.778 129.46 77.8103 129.46C34.8425 129.46 0.0102539 164.292 0.0102539 207.26C0.0102539 250.228 34.8425 285.06 77.8103 285.06Z" fill="white"/>
<path d="M231.241 161.429C234.601 140.729 220.544 121.225 199.844 117.866C179.144 114.506 159.64 128.563 156.281 149.263C152.922 169.963 166.979 189.467 187.678 192.826C208.378 196.186 227.882 182.129 231.241 161.429Z" fill="white"/>
<path d="M132.17 128.4C144.232 128.4 154.01 118.622 154.01 106.56C154.01 94.4981 144.232 84.72 132.17 84.72C120.108 84.72 110.33 94.4981 110.33 106.56C110.33 118.622 120.108 128.4 132.17 128.4Z" fill="white"/>
<path d="M132.17 43.9C144.293 43.9 154.12 34.0727 154.12 21.95C154.12 9.82735 144.293 0 132.17 0C120.048 0 110.22 9.82735 110.22 21.95C110.22 34.0727 120.048 43.9 132.17 43.9Z" fill="#0064FF"/>
<path d="M94.1391 98.5829C97.6077 83.8935 88.5114 69.1735 73.822 65.7049C59.1326 62.2364 44.4126 71.3326 40.944 86.0221C37.4754 100.711 46.5717 115.431 61.2611 118.9C75.9506 122.369 90.6705 113.272 94.1391 98.5829Z" fill="#003296"/>
<path d="M196.1 102.04C212.155 102.04 225.17 89.0248 225.17 72.9699C225.17 56.915 212.155 43.8999 196.1 43.8999C180.045 43.8999 167.03 56.915 167.03 72.9699C167.03 89.0248 180.045 102.04 196.1 102.04Z" fill="#0064FF"/>
<path d="M0 124.56V242.64C0 257.45 9.33 270.66 23.28 275.62L132.16 314.3V157.35L13.34 115.14C6.84 112.83 0 117.66 0 124.56Z" fill="#003296"/>
<path d="M264.33 124.56V242.64C264.33 257.45 255 270.66 241.05 275.62L132.17 314.3V157.35L250.99 115.14C257.49 112.83 264.33 117.66 264.33 124.56Z" fill="#0064FF"/>
<path d="M343.676 91V253.508H314.43V91H343.676ZM413.542 137.423L374.779 191.505L427.005 253.479H391.259L343.676 193.594L380.118 137.423H413.542Z" fill="black"/>
<path d="M524.406 143.109C533.139 148.448 539.812 155.672 544.368 164.812C548.923 173.951 551.215 184.164 551.215 195.451C551.215 206.737 548.923 216.95 544.368 226.09C539.812 235.229 533.139 242.453 524.406 247.792C515.673 253.131 505.257 255.8 493.187 255.8C481.117 255.8 470.701 253.131 461.968 247.792C453.234 242.453 446.561 235.229 442.006 226.09C437.451 216.95 435.159 206.737 435.159 195.451C435.159 184.164 437.451 173.951 442.006 164.812C446.561 155.672 453.234 148.448 461.968 143.109C470.701 137.771 481.117 135.101 493.187 135.101C505.257 135.101 515.644 137.771 524.406 143.109ZM514.773 220.635C519.561 214.223 521.969 205.809 521.969 195.451C521.969 185.093 519.561 176.678 514.773 170.266C509.986 163.854 502.791 160.634 493.187 160.634C483.438 160.634 476.214 163.854 471.484 170.266C466.755 176.678 464.405 185.093 464.405 195.451C464.405 205.809 466.755 214.223 471.484 220.635C476.214 227.047 483.438 230.267 493.187 230.267C502.761 230.267 509.957 227.076 514.773 220.635Z" fill="black"/>
<path d="M654.388 143.109C663.122 148.448 669.795 155.672 674.35 164.812C678.905 173.951 681.197 184.164 681.197 195.451C681.197 206.737 678.905 216.95 674.35 226.09C669.795 235.229 663.122 242.453 654.388 247.792C645.655 253.131 635.239 255.8 623.169 255.8C611.099 255.8 600.683 253.131 591.95 247.792C583.217 242.453 576.544 235.229 571.988 226.09C567.433 216.95 565.141 206.737 565.141 195.451C565.141 184.164 567.433 173.951 571.988 164.812C576.544 155.672 583.217 148.448 591.95 143.109C600.683 137.771 611.099 135.101 623.169 135.101C635.239 135.101 645.655 137.771 654.388 143.109ZM644.756 220.635C649.543 214.223 651.951 205.809 651.951 195.451C651.951 185.093 649.543 176.678 644.756 170.266C639.968 163.854 632.773 160.634 623.169 160.634C613.421 160.634 606.196 163.854 601.467 170.266C596.737 176.678 594.387 185.093 594.387 195.451C594.387 205.809 596.737 214.223 601.467 220.635C606.196 227.047 613.421 230.267 623.169 230.267C632.773 230.267 639.968 227.076 644.756 220.635Z" fill="black"/>
<path d="M759.681 160.634C752.717 162.346 746.305 165.653 740.416 170.615C734.526 175.576 731.595 183.294 731.595 193.826V253.479H702.088V192.665C702.088 182.307 704.67 172.704 709.864 163.883C715.057 155.063 722.05 148.071 730.87 142.877C739.69 137.684 749.294 135.101 759.652 135.101V160.634H759.681Z" fill="black"/>
<path d="M876.666 253.479H820.495C804.711 253.479 791.8 248.982 781.732 240.016C771.664 231.051 766.645 217.356 766.645 198.932C766.645 180.508 771.664 166.814 781.732 157.848C791.8 148.883 804.711 144.386 820.495 144.386H847.42V91H876.666V253.479ZM847.42 227.946V169.918H820.495C816.462 169.918 812.574 171.079 808.773 173.4C804.972 175.721 801.897 179.058 799.488 183.381C797.08 187.704 795.891 192.897 795.891 198.932C795.891 204.967 797.08 210.161 799.488 214.484C801.897 218.807 804.972 222.144 808.773 224.465C812.574 226.786 816.462 227.946 820.495 227.946H847.42Z" fill="black"/>
<path d="M939.103 91V120.246H908V91H939.103ZM938.175 137.423V253.479H908.928V137.423H938.175Z" fill="black"/>
<path d="M1025.68 137.423C1032.64 137.423 1039.11 139.164 1045.06 142.645C1051.01 146.127 1055.74 150.856 1059.22 156.804C1062.7 162.752 1064.44 169.222 1064.44 176.185V253.479H1035.2V181.756C1035.2 176.505 1033.37 172.036 1029.74 168.41C1026.12 164.783 1021.65 162.955 1016.4 162.955H997.363V253.479H968.117V137.423H1025.68Z" fill="black"/>
<path d="M1171.48 143.109C1177.83 146.91 1182.88 151.959 1186.68 158.313C1190.48 164.667 1192.37 171.63 1192.37 179.203V253.479H1122.73H1122.04C1115.22 253.479 1108.92 251.767 1103.12 248.372C1097.32 244.978 1092.7 240.365 1089.31 234.562C1085.91 228.759 1084.2 222.463 1084.2 215.645C1084.2 208.826 1085.91 202.559 1089.31 196.843C1092.7 191.128 1097.32 186.602 1103.12 183.265C1108.92 179.928 1115.22 178.274 1122.04 178.274H1163.12C1163.12 173.777 1161.58 169.947 1158.48 166.785C1155.37 163.622 1151.66 162.027 1147.34 162.027H1106.48V137.423H1150.59C1158.16 137.423 1165.12 139.309 1171.48 143.109ZM1163.12 227.947V200.557H1127.14C1123.11 200.557 1119.83 201.921 1117.28 204.619C1114.72 207.318 1113.45 210.625 1113.45 214.484C1113.45 218.053 1114.75 221.186 1117.39 223.885C1120.03 226.583 1123.2 227.947 1126.91 227.947H1163.12Z" fill="black"/>
<path d="M1249.47 137.423H1287.3V162.955H1249.47V213.323C1249.47 217.356 1250.89 220.78 1253.76 223.652C1256.63 226.525 1260.06 227.946 1264.09 227.946H1287.3V253.479H1258.98C1252.02 253.479 1245.55 251.738 1239.6 248.256C1233.66 244.775 1228.93 240.045 1225.44 234.097C1221.96 228.15 1220.22 221.679 1220.22 214.716V91H1249.47V137.423Z" fill="black"/>
<path d="M1392.83 143.109C1401.56 148.448 1408.23 155.672 1412.79 164.812C1417.34 173.951 1419.63 184.164 1419.63 195.451C1419.63 206.737 1417.34 216.95 1412.79 226.09C1408.23 235.229 1401.56 242.453 1392.83 247.792C1384.09 253.131 1373.68 255.8 1361.61 255.8C1349.54 255.8 1339.12 253.131 1330.39 247.792C1321.65 242.453 1314.98 235.229 1310.43 226.09C1305.87 216.95 1303.58 206.737 1303.58 195.451C1303.58 184.164 1305.87 173.951 1310.43 164.812C1314.98 155.672 1321.65 148.448 1330.39 143.109C1339.12 137.771 1349.54 135.101 1361.61 135.101C1373.68 135.101 1384.06 137.771 1392.83 143.109ZM1383.19 220.635C1387.98 214.223 1390.39 205.809 1390.39 195.451C1390.39 185.093 1387.98 176.678 1383.19 170.266C1378.41 163.854 1371.21 160.634 1361.61 160.634C1351.86 160.634 1344.63 163.854 1339.9 170.266C1335.17 176.678 1332.82 185.093 1332.82 195.451C1332.82 205.809 1335.17 214.223 1339.9 220.635C1344.63 227.047 1351.86 230.267 1361.61 230.267C1371.18 230.267 1378.38 227.076 1383.19 220.635Z" fill="black"/>
<path d="M1498.09 160.634C1491.13 162.346 1484.71 165.653 1478.82 170.615C1472.93 175.576 1470 183.294 1470 193.826V253.479H1440.53V192.665C1440.53 182.307 1443.11 172.704 1448.3 163.883C1453.49 155.063 1460.49 148.071 1469.31 142.877C1478.13 137.684 1487.73 135.101 1498.09 135.101V160.634Z" fill="black"/>
</svg>
