<svg width="1500" height="500" viewBox="0 0 1500 500" fill="none" xmlns="http://www.w3.org/2000/svg">
<g clip-path="url(#clip0_64_418)">
<path d="M433.624 128.36C431.542 119.662 425.669 112.356 417.622 108.453L262.897 34.5778C254.775 30.7019 245.337 30.7019 237.215 34.5778L105.008 97.7394L82.5124 108.488C78.488 110.438 75.0073 113.239 72.2724 116.64C71.9361 117.058 71.6469 117.512 71.3334 117.948C71.0102 118.398 70.6636 118.83 70.3657 119.297C69.9171 120.001 69.5254 120.74 69.1363 121.481C69.0159 121.71 68.8706 121.925 68.756 122.157C67.7869 124.126 67.0292 126.212 66.5087 128.386L28.3447 294.424C27.4037 298.62 27.4007 302.972 28.3358 307.169C28.6114 308.449 28.9713 309.709 29.4133 310.941C30.1601 313.042 31.1489 315.049 32.3599 316.922C32.8819 317.729 33.4416 318.509 34.0382 319.261L141.121 452.396C141.177 452.466 141.244 452.527 141.302 452.596C141.721 453.093 142.163 453.566 142.611 454.037C143.296 454.767 144.041 455.436 144.796 456.091C144.967 456.239 145.116 456.411 145.291 456.556C145.412 456.656 145.55 456.736 145.673 456.834C146.507 457.502 147.362 458.145 148.265 458.719C148.896 459.117 149.541 459.488 150.198 459.838C152.265 460.936 154.453 461.797 156.721 462.397C159.173 463.069 161.703 463.418 164.247 463.434H165.912L335.962 463.395C336.996 463.39 338.029 463.33 339.056 463.213C340.53 463.046 341.989 462.769 343.42 462.384C344.447 462.113 345.458 461.79 346.45 461.414C347.225 461.118 347.997 460.821 348.743 460.464C349.86 459.929 350.944 459.327 351.988 458.66C354.682 456.966 357.082 454.843 359.091 452.374L361.431 449.464L362.353 448.315L426.903 368.017L466.134 319.215C468.123 316.72 469.685 313.914 470.759 310.91C471.096 309.979 471.341 309.02 471.585 308.06C471.664 307.748 471.784 307.447 471.853 307.132V307.135C471.854 307.135 471.854 307.134 471.854 307.134C472.792 302.939 472.79 298.589 471.849 294.395L433.624 128.36Z" fill="#326CE5"/>
<path d="M492.032 298.656V298.65L450.329 117.506C448.059 108.014 441.651 100.041 432.869 95.7841L264.066 15.1952C255.205 10.9659 244.907 10.9659 236.046 15.1952L67.2589 95.8323C58.4771 100.086 52.0663 108.054 49.7918 117.543L8.16112 298.698C6.26413 307.134 7.84163 315.978 12.5383 323.239C13.111 324.116 13.7188 324.968 14.3769 325.788L131.204 471.048C137.403 478.616 146.651 483.029 156.433 483.087L343.78 483.043C353.56 482.987 362.808 478.58 369.012 471.019L485.797 325.747C491.854 318.119 494.145 308.165 492.032 298.656ZM471.854 307.134C471.854 307.134 471.854 307.135 471.853 307.136V307.132C471.784 307.447 471.664 307.748 471.585 308.06C471.342 309.02 471.098 309.981 470.761 310.912C469.686 313.918 468.122 316.725 466.131 319.219L426.903 368.017L362.353 448.315L361.431 449.464L359.093 452.378C357.082 454.847 354.68 456.971 351.984 458.664C350.943 459.33 349.863 459.933 348.75 460.468C347.999 460.815 347.235 461.129 346.457 461.412C345.463 461.79 344.45 462.116 343.422 462.388C341.991 462.774 340.532 463.052 339.058 463.219C338.031 463.335 336.998 463.396 335.965 463.399L165.914 463.439H164.246C161.704 463.423 159.175 463.075 156.723 462.403C154.454 461.802 152.266 460.939 150.198 459.838C149.541 459.488 148.896 459.117 148.265 458.719C147.362 458.145 146.507 457.502 145.673 456.834C145.55 456.735 145.412 456.656 145.291 456.555C145.116 456.411 144.967 456.239 144.796 456.091C144.042 455.437 143.298 454.77 142.613 454.042C142.163 453.567 141.72 453.093 141.301 452.595C141.244 452.527 141.177 452.466 141.121 452.396L34.0381 319.261C33.4415 318.509 32.8818 317.729 32.3598 316.922C31.1487 315.049 30.16 313.042 29.4131 310.941C28.9711 309.709 28.6112 308.449 28.3357 307.169C27.4006 302.972 27.4036 298.62 28.3445 294.424L66.5085 128.386C67.0291 126.212 67.7868 124.125 68.7559 122.157C68.8705 121.924 69.0158 121.71 69.1361 121.481C69.5252 120.74 69.917 120 70.3656 119.297C70.6634 118.83 71.0101 118.398 71.3333 117.948C71.6468 117.512 71.9359 117.058 72.2722 116.64C75.0076 113.238 78.4891 110.436 82.5143 108.486L105.008 97.7393L237.215 34.5777C245.337 30.7019 254.775 30.7019 262.897 34.5777L417.622 108.453C425.669 112.356 431.542 119.661 433.624 128.36L471.849 294.395C472.79 298.589 472.792 302.939 471.854 307.134Z" fill="white"/>
<path d="M318.378 343.915L405.391 256.903C409.491 252.803 409.344 246.111 405.068 242.195L318.055 162.505C316.026 160.646 313.608 159.812 311.243 159.812C305.996 159.812 300.997 163.909 300.997 170.014V188.665L349.584 233.163C354.074 237.275 356.726 243.124 356.86 249.211C356.993 255.298 354.601 261.258 350.296 265.563L300.997 314.862V336.716C300.997 342.853 306.018 346.918 311.252 346.918C313.754 346.918 316.304 345.99 318.378 343.915Z" fill="white"/>
<path d="M254.623 343.915L288.75 309.789L294.874 303.665L300.997 297.541L341.636 256.903C345.736 252.803 345.589 246.111 341.313 242.195L300.997 205.272L294.874 199.664L288.75 194.055L254.301 162.505C252.271 160.646 249.853 159.812 247.488 159.812C242.241 159.812 237.242 163.909 237.242 170.014V188.665L285.829 233.163C286.914 234.157 287.889 235.254 288.75 236.429C291.451 240.118 293.003 244.595 293.105 249.211C293.213 254.16 291.652 259.026 288.75 262.986C288.083 263.896 287.345 264.759 286.541 265.563L237.242 314.862V336.716C237.242 342.853 242.264 346.918 247.497 346.918C249.999 346.918 252.549 345.99 254.623 343.915Z" fill="white"/>
<path d="M190.868 343.915L224.995 309.789L231.118 303.665L237.242 297.541L277.88 256.903C281.98 252.803 281.834 246.111 277.557 242.195L237.242 205.272L231.118 199.664L224.995 194.056L190.545 162.505C188.515 160.646 186.098 159.812 183.732 159.812C178.486 159.812 173.487 163.909 173.487 170.014V188.665L222.073 233.163C223.158 234.157 224.134 235.254 224.995 236.43C227.695 240.118 229.247 244.596 229.348 249.211C229.457 254.16 227.896 259.025 224.995 262.985C224.327 263.895 223.589 264.758 222.784 265.563L173.487 314.861V336.716C173.487 342.853 178.508 346.918 183.742 346.918C186.244 346.918 188.794 345.99 190.868 343.915Z" fill="white"/>
<path d="M127.112 343.915L161.24 309.788L167.363 303.665L173.487 297.54L214.124 256.903C218.225 252.803 218.078 246.111 213.801 242.195L173.487 205.273L167.363 199.664L161.24 194.056L126.789 162.505C124.759 160.646 122.342 159.812 119.976 159.812C114.73 159.812 109.731 163.909 109.731 170.014V336.716C109.731 342.853 114.752 346.918 119.986 346.918C122.488 346.918 125.038 345.99 127.112 343.915Z" fill="white"/>
<path d="M589.963 362V143.818H636.092V240.018H638.969L717.484 143.818H772.776L691.81 241.51L773.734 362H718.55L658.784 272.298L636.092 299.997V362H589.963ZM890.629 292.327V198.364H936.012V362H892.44V332.277H890.735C887.042 341.865 880.899 349.571 872.305 355.395C863.782 361.219 853.377 364.131 841.091 364.131C830.153 364.131 820.529 361.645 812.22 356.673C803.91 351.702 797.412 344.635 792.724 335.473C788.108 326.311 785.764 315.338 785.693 302.554V198.364H831.076V294.457C831.147 304.116 833.74 311.751 838.853 317.362C843.967 322.973 850.821 325.778 859.414 325.778C864.883 325.778 869.997 324.536 874.755 322.05C879.514 319.493 883.349 315.729 886.261 310.757C889.244 305.786 890.7 299.642 890.629 292.327ZM1046.89 365.196C1030.06 365.196 1015.57 361.787 1003.42 354.969C991.348 348.08 982.044 338.349 975.51 325.778C968.976 313.136 965.709 298.186 965.709 280.928C965.709 264.095 968.976 249.322 975.51 236.609C982.044 223.896 991.241 213.989 1003.1 206.886C1015.03 199.784 1029.03 196.233 1045.08 196.233C1055.87 196.233 1065.92 197.973 1075.23 201.453C1084.6 204.862 1092.77 210.011 1099.73 216.901C1106.76 223.79 1112.23 232.455 1116.13 242.895C1120.04 253.264 1121.99 265.409 1121.99 279.33V291.794H983.82V263.669H1079.27C1079.27 257.135 1077.85 251.347 1075.01 246.304C1072.17 241.261 1068.23 237.32 1063.19 234.479C1058.22 231.567 1052.43 230.111 1045.82 230.111C1038.93 230.111 1032.83 231.709 1027.5 234.905C1022.24 238.03 1018.12 242.256 1015.14 247.582C1012.16 252.838 1010.63 258.697 1010.56 265.161V291.901C1010.56 299.997 1012.05 306.993 1015.03 312.888C1018.09 318.783 1022.38 323.328 1027.92 326.524C1033.46 329.72 1040.03 331.318 1047.63 331.318C1052.68 331.318 1057.29 330.608 1061.48 329.188C1065.67 327.767 1069.26 325.636 1072.24 322.795C1075.23 319.955 1077.5 316.474 1079.06 312.355L1121.04 315.125C1118.9 325.21 1114.54 334.017 1107.93 341.545C1101.4 349.003 1092.95 354.827 1082.58 359.017C1072.28 363.136 1060.38 365.196 1046.89 365.196ZM1256.55 292.327V198.364H1301.93V362H1258.36V332.277H1256.65C1252.96 341.865 1246.82 349.571 1238.22 355.395C1229.7 361.219 1219.3 364.131 1207.01 364.131C1196.07 364.131 1186.45 361.645 1178.14 356.673C1169.83 351.702 1163.33 344.635 1158.64 335.473C1154.03 326.311 1151.68 315.338 1151.61 302.554V198.364H1196.99V294.457C1197.07 304.116 1199.66 311.751 1204.77 317.362C1209.88 322.973 1216.74 325.778 1225.33 325.778C1230.8 325.778 1235.91 324.536 1240.67 322.05C1245.43 319.493 1249.27 315.729 1252.18 310.757C1255.16 305.786 1256.62 299.642 1256.55 292.327ZM1412.81 365.196C1395.97 365.196 1381.48 361.787 1369.34 354.969C1357.27 348.08 1347.96 338.349 1341.43 325.778C1334.89 313.136 1331.63 298.186 1331.63 280.928C1331.63 264.095 1334.89 249.322 1341.43 236.609C1347.96 223.896 1357.16 213.989 1369.02 206.886C1380.95 199.784 1394.94 196.233 1410.99 196.233C1421.79 196.233 1431.84 197.973 1441.14 201.453C1450.52 204.862 1458.69 210.011 1465.65 216.901C1472.68 223.79 1478.15 232.455 1482.05 242.895C1485.96 253.264 1487.91 265.409 1487.91 279.33V291.794H1349.74V263.669H1445.19C1445.19 257.135 1443.77 251.347 1440.93 246.304C1438.09 241.261 1434.15 237.32 1429.11 234.479C1424.13 231.567 1418.35 230.111 1411.74 230.111C1404.85 230.111 1398.74 231.709 1393.42 234.905C1388.16 238.03 1384.04 242.256 1381.06 247.582C1378.08 252.838 1376.55 258.697 1376.48 265.161V291.901C1376.48 299.997 1377.97 306.993 1380.95 312.888C1384.01 318.783 1388.3 323.328 1393.84 326.524C1399.38 329.72 1405.95 331.318 1413.55 331.318C1418.59 331.318 1423.21 330.608 1427.4 329.188C1431.59 327.767 1435.18 325.636 1438.16 322.795C1441.14 319.955 1443.42 316.474 1444.98 312.355L1486.95 315.125C1484.82 325.21 1480.45 334.017 1473.85 341.545C1467.32 349.003 1458.86 354.827 1448.49 359.017C1438.2 363.136 1426.3 365.196 1412.81 365.196Z" fill="#326CE5"/>
</g>
<defs>
<clipPath id="clip0_64_418">
<rect width="1500" height="500" fill="white"/>
</clipPath>
</defs>
</svg>
