<svg width="439" height="89" viewBox="0 0 439 89" fill="none" xmlns="http://www.w3.org/2000/svg">
<path d="M112.614 48.7569V65.7859H109.567V23.5119H120.471C125.43 23.5119 129.169 24.5969 131.689 26.7679C134.208 28.9399 135.469 32.0359 135.469 36.0589C135.469 37.9119 135.126 39.6139 134.437 41.1679C133.757 42.7116 132.742 44.0842 131.465 45.1859C130.169 46.3119 128.597 47.1889 126.745 47.8149C124.893 48.4429 122.802 48.7569 120.471 48.7569H112.614ZM112.614 46.3059H120.471C122.342 46.3059 124.017 46.0469 125.49 45.5289C126.963 45.0109 128.213 44.2949 129.24 43.3789C130.252 42.4818 131.057 41.3757 131.599 40.1369C132.146 38.8919 132.421 37.5329 132.421 36.0589C132.421 32.8139 131.419 30.3139 129.418 28.5599C127.416 26.8079 124.434 25.9319 120.471 25.9319H112.614V46.3059ZM145.624 65.7849V36.0589H147.119C147.457 36.0589 147.702 36.1289 147.85 36.2679C148 36.4079 148.084 36.6459 148.105 36.9849L148.343 43.2579C149.299 40.8489 150.573 38.9609 152.168 37.5959C153.761 36.2329 155.722 35.5489 158.053 35.5489C158.949 35.5489 159.775 35.6439 160.532 35.8329C161.28 36.0187 162.002 36.2943 162.683 36.6539L162.294 38.6259C162.236 38.9459 162.035 39.1039 161.697 39.1039C161.577 39.1039 161.408 39.0639 161.19 38.9849C160.97 38.9049 160.697 38.8159 160.368 38.7159C159.441 38.4476 158.48 38.3169 157.515 38.3279C155.265 38.3279 153.417 39.0249 151.973 40.4189C150.529 41.8129 149.359 43.8249 148.463 46.4539V65.7839L145.624 65.7849ZM183.775 35.5809C185.905 35.5809 187.812 35.9449 189.496 36.6719C191.179 37.3989 192.598 38.4299 193.753 39.7639C194.908 41.0979 195.788 42.7069 196.397 44.5889C197.004 46.4719 197.307 48.5779 197.307 50.9089C197.307 53.2379 197.004 55.3399 196.397 57.2109C195.788 59.0839 194.908 60.6879 193.753 62.0219C192.598 63.3559 191.179 64.3809 189.496 65.0979C187.811 65.8159 185.905 66.1739 183.775 66.1739C181.643 66.1739 179.737 65.8169 178.054 65.0979C176.371 64.3809 174.947 63.3569 173.781 62.0219C172.616 60.6879 171.73 59.0839 171.123 57.2109C170.516 55.3399 170.211 53.2379 170.211 50.9089C170.211 48.5779 170.516 46.4719 171.123 44.5889C171.73 42.7069 172.616 41.0989 173.781 39.7639C174.946 38.4299 176.371 37.3989 178.054 36.6719C179.737 35.9449 181.643 35.5809 183.775 35.5809ZM183.775 63.9329C185.548 63.9329 187.095 63.6279 188.421 63.0209C189.722 62.4318 190.86 61.5346 191.736 60.4069C192.623 59.2719 193.285 57.9039 193.724 56.2999C194.162 54.6959 194.381 52.8989 194.381 50.9079C194.381 48.9359 194.163 47.1419 193.724 45.5289C193.286 43.9159 192.624 42.5369 191.736 41.3919C190.861 40.2555 189.724 39.3482 188.421 38.7479C187.095 38.1309 185.548 37.8219 183.775 37.8219C182.002 37.8219 180.453 38.1309 179.129 38.7479C177.826 39.3485 176.688 40.2557 175.812 41.3919C174.926 42.5369 174.259 43.9159 173.81 45.5289C173.363 47.1419 173.137 48.9359 173.137 50.9079C173.137 52.8989 173.362 54.6959 173.81 56.2999C174.259 57.9039 174.926 59.2719 175.812 60.4069C176.689 61.5349 177.827 62.4321 179.129 63.0209C180.453 63.6289 182.002 63.9329 183.775 63.9329ZM207.166 65.7849V36.0589H208.72C209.238 36.0589 209.535 36.3089 209.616 36.8059L209.884 41.1079C210.443 40.314 211.062 39.565 211.738 38.8679C212.373 38.2092 213.079 37.623 213.843 37.1199C214.585 36.6344 215.389 36.2526 216.234 35.9849C217.098 35.713 218 35.5767 218.906 35.5809C221.077 35.5809 222.811 36.2139 224.105 37.4789C225.401 38.7439 226.276 40.5009 226.735 42.7519C227.092 41.5169 227.594 40.4519 228.24 39.5549C228.851 38.6943 229.602 37.9422 230.462 37.3299C231.294 36.745 232.216 36.3011 233.192 36.0159C234.175 35.7268 235.195 35.5807 236.22 35.5819C237.69 35.5819 239.013 35.8269 240.185 36.3139C241.342 36.7898 242.369 37.5319 243.185 38.4799C244.009 39.4359 244.639 40.6109 245.079 42.0049C245.516 43.3989 245.734 44.9919 245.734 46.7849V65.7859H242.896V46.7839C242.896 43.8769 242.269 41.6599 241.012 40.1369C239.759 38.6129 237.966 37.8519 235.636 37.8519C234.618 37.8482 233.608 38.041 232.663 38.4199C231.717 38.7987 230.862 39.3737 230.154 40.1069C229.427 40.8539 228.85 41.7859 228.42 42.9009C227.992 44.0159 227.779 45.3109 227.779 46.7849V65.7859H224.939V46.7839C224.939 43.8959 224.362 41.6859 223.207 40.1519C222.052 38.6189 220.369 37.8519 218.158 37.8519C216.545 37.8519 215.051 38.3349 213.678 39.3009C212.303 40.2669 211.078 41.6059 210.002 43.3189V65.7859L207.166 65.7849ZM268.29 35.5809C269.962 35.5809 271.512 35.8709 272.934 36.4479C274.337 37.0106 275.601 37.8719 276.638 38.9719C277.684 40.0769 278.501 41.4369 279.089 43.0489C279.677 44.6619 279.969 46.5149 279.969 48.6069C279.969 49.0449 279.906 49.3449 279.775 49.5029C279.648 49.6629 279.444 49.7419 279.166 49.7419H257.713V50.3089C257.713 52.5389 257.97 54.5019 258.491 56.1939C259.009 57.8879 259.744 59.3059 260.702 60.4529C261.633 61.5797 262.821 62.4657 264.167 63.0359C265.519 63.6149 267.033 63.9039 268.709 63.9039C270.202 63.9039 271.494 63.7389 272.593 63.4109C273.688 63.0819 274.607 62.7139 275.353 62.3049C276.103 61.8969 276.694 61.5289 277.131 61.1989C277.571 60.8699 277.888 60.7059 278.089 60.7059C278.346 60.7059 278.547 60.8059 278.688 61.0049L279.463 61.9609C278.984 62.5579 278.354 63.1159 277.565 63.6329C276.78 64.1509 275.903 64.5939 274.938 64.9619C273.97 65.3319 272.935 65.6239 271.829 65.8439C270.732 66.0611 269.616 66.1706 268.498 66.1709C266.466 66.1709 264.614 65.8169 262.942 65.1109C261.292 64.4191 259.819 63.3624 258.636 62.0199C257.435 60.6639 256.509 59.0059 255.858 57.0449C255.203 55.0839 254.876 52.8379 254.876 50.3079C254.876 48.1779 255.179 46.2109 255.788 44.4079C256.394 42.6049 257.27 41.0519 258.415 39.7469C259.563 38.4429 260.964 37.4219 262.63 36.6849C264.29 35.9489 266.177 35.5809 268.29 35.5809ZM268.332 37.7019C266.8 37.7019 265.427 37.9409 264.216 38.4189C263.033 38.8761 261.96 39.5785 261.068 40.4799C260.184 41.3759 259.47 42.4519 258.92 43.7059C258.374 44.9609 258.012 46.3649 257.832 47.9199H277.401C277.401 46.3259 277.179 44.8959 276.743 43.6319C276.306 42.3679 275.69 41.2979 274.895 40.4209C274.101 39.5461 273.124 38.8573 272.033 38.4039C270.916 37.9359 269.684 37.7019 268.332 37.7019ZM296.848 66.2629C294.838 66.2629 293.274 65.7069 292.158 64.5909C291.042 63.4749 290.486 61.7529 290.486 59.4219V39.1059H286.215C286.019 39.1147 285.828 39.0509 285.676 38.9269C285.535 38.8069 285.465 38.6379 285.465 38.4189V37.3129L290.546 36.9549L291.254 26.3189C291.275 26.1399 291.353 25.9722 291.476 25.8409C291.543 25.7712 291.623 25.7165 291.712 25.6805C291.802 25.6445 291.898 25.6279 291.994 25.6319H293.325V36.9849H302.677V39.1049H293.325V59.2709C293.325 60.0879 293.431 60.7899 293.638 61.3779C293.849 61.9639 294.134 62.4479 294.504 62.8269C294.874 63.2049 295.307 63.4839 295.803 63.6629C296.303 63.8429 296.838 63.9319 297.416 63.9319C298.134 63.9319 298.75 63.8259 299.272 63.6169C299.741 63.4341 300.191 63.2039 300.613 62.9299C300.993 62.6819 301.303 62.4529 301.539 62.2429C301.778 62.0339 301.969 61.9299 302.109 61.9299C302.267 61.9299 302.426 62.0289 302.584 62.2279L303.362 63.4829C302.605 64.3189 301.644 64.9919 300.478 65.4999C299.334 66.0044 298.098 66.2643 296.848 66.2629ZM312.442 65.7849V22.3159H315.28V41.1369C316.657 39.4439 318.223 38.0949 319.987 37.0889C321.747 36.0839 323.726 35.5799 325.916 35.5799C327.55 35.5799 328.99 35.8399 330.233 36.3569C331.479 36.8749 332.508 37.6219 333.324 38.5969C334.141 39.5729 334.761 40.7479 335.176 42.1219C335.595 43.4969 335.806 45.0499 335.806 46.7829V65.7839H332.968V46.7839C332.968 43.9949 332.327 41.8099 331.056 40.2259C329.778 38.6419 327.827 37.8509 325.197 37.8509C323.246 37.8509 321.433 38.3539 319.761 39.3599C318.089 40.3659 316.596 41.7449 315.279 43.4979V65.7849H312.442ZM358.361 35.5809C360.033 35.5809 361.583 35.8709 363.005 36.4479C364.408 37.0106 365.672 37.8719 366.709 38.9719C367.755 40.0769 368.572 41.4369 369.16 43.0489C369.748 44.6619 370.04 46.5149 370.04 48.6069C370.04 49.0449 369.977 49.3449 369.846 49.5029C369.719 49.6629 369.515 49.7419 369.237 49.7419H347.784V50.3089C347.784 52.5389 348.041 54.5019 348.562 56.1939C349.08 57.8879 349.815 59.3059 350.773 60.4529C351.704 61.5797 352.892 62.4657 354.238 63.0359C355.59 63.6149 357.104 63.9039 358.78 63.9039C360.273 63.9039 361.565 63.7389 362.664 63.4109C363.759 63.0819 364.678 62.7139 365.424 62.3049C366.174 61.8969 366.765 61.5289 367.202 61.1989C367.642 60.8699 367.959 60.7059 368.16 60.7059C368.417 60.7059 368.618 60.8059 368.759 61.0049L369.534 61.9609C369.055 62.5579 368.425 63.1159 367.636 63.6329C366.851 64.1509 365.974 64.5939 365.009 64.9619C364.041 65.3319 363.006 65.6239 361.9 65.8439C360.803 66.0611 359.687 66.1706 358.569 66.1709C356.537 66.1709 354.685 65.8169 353.013 65.1109C351.363 64.4191 349.89 63.3624 348.707 62.0199C347.506 60.6639 346.58 59.0059 345.929 57.0449C345.274 55.0839 344.947 52.8379 344.947 50.3079C344.947 48.1779 345.25 46.2109 345.859 44.4079C346.465 42.6049 347.341 41.0519 348.486 39.7469C349.634 38.4429 351.035 37.4219 352.701 36.6849C354.362 35.9489 356.249 35.5809 358.361 35.5809ZM358.404 37.7019C356.872 37.7019 355.499 37.9409 354.288 38.4189C353.105 38.8761 352.032 39.5785 351.14 40.4799C350.256 41.3759 349.542 42.4519 348.992 43.7059C348.446 44.9609 348.084 46.3649 347.904 47.9199H367.473C367.473 46.3259 367.251 44.8959 366.815 43.6319C366.378 42.3679 365.762 41.2979 364.967 40.4209C364.173 39.5461 363.196 38.8573 362.105 38.4039C360.988 37.9359 359.756 37.7019 358.404 37.7019ZM380.976 36.0589V55.0599C380.976 57.8499 381.613 60.0349 382.895 61.6179C384.173 63.2019 386.12 63.9949 388.74 63.9949C390.676 63.9949 392.486 63.5019 394.166 62.5159C395.845 61.5299 397.352 60.1609 398.69 58.4069V36.0589H401.531V65.7859H399.964C399.415 65.7859 399.13 65.5269 399.108 65.0099L398.837 60.5879C397.464 62.3009 395.872 63.6759 394.066 64.7109C392.263 65.7459 390.253 66.2639 388.038 66.2639C386.383 66.2639 384.936 66.0049 383.7 65.4879C382.464 64.9709 381.436 64.2239 380.619 63.2469C379.802 62.2719 379.182 61.0959 378.763 59.7229C378.344 58.3479 378.136 56.7949 378.136 55.0609V36.0589H380.976ZM428.776 39.7629C428.635 40.0419 428.417 40.1809 428.118 40.1809C427.9 40.1809 427.615 40.0569 427.266 39.8079C426.917 39.5589 426.46 39.2809 425.893 38.9719C425.326 38.6629 424.629 38.3839 423.802 38.1349C422.975 37.8869 421.964 37.7619 420.771 37.7619C419.694 37.7619 418.715 37.9159 417.828 38.2239C416.941 38.5319 416.184 38.9439 415.557 39.4609C414.949 39.9534 414.45 40.5671 414.092 41.2629C413.748 41.9312 413.569 42.6723 413.571 43.4239C413.571 44.3569 413.81 45.1329 414.286 45.7479C414.765 46.3639 415.392 46.8899 416.17 47.3279C416.948 47.7649 417.828 48.1409 418.814 48.4599C419.8 48.7769 420.81 49.0959 421.845 49.4139C422.88 49.7319 423.891 50.0859 424.876 50.4759C425.862 50.8629 426.746 51.3469 427.52 51.9249C428.289 52.4922 428.931 53.2144 429.404 54.0449C429.883 54.8829 430.119 55.8989 430.119 57.0919C430.119 58.3879 429.887 59.5919 429.418 60.7079C428.95 61.8239 428.274 62.7889 427.386 63.6059C426.498 64.4229 425.411 65.0689 424.115 65.5479C422.819 66.0269 421.348 66.2649 419.693 66.2649C417.602 66.2649 415.799 65.9319 414.285 65.2649C412.8 64.6156 411.428 63.7331 410.222 62.6509L410.912 61.6349C411.011 61.4749 411.12 61.3569 411.239 61.2759C411.359 61.1969 411.528 61.1559 411.746 61.1559C412.007 61.1559 412.323 61.3159 412.704 61.6349C413.081 61.9539 413.574 62.2969 414.183 62.6649C414.789 63.0349 415.546 63.3779 416.454 63.6969C417.359 64.0159 418.479 64.1739 419.813 64.1739C421.066 64.1739 422.172 63.9999 423.13 63.6509C424.084 63.3039 424.883 62.8309 425.521 62.2319C426.152 61.6446 426.646 60.926 426.968 60.1269C427.299 59.3163 427.466 58.4484 427.461 57.5729C427.461 56.5769 427.222 55.7509 426.746 55.0929C426.267 54.4359 425.64 53.8799 424.862 53.4209C424.026 52.9366 423.139 52.546 422.218 52.2559C421.232 51.9369 420.218 51.6189 419.172 51.2999C418.126 50.9809 417.109 50.6329 416.123 50.2539C415.18 49.8994 414.291 49.4173 413.479 48.8209C412.713 48.2561 412.073 47.5386 411.599 46.7139C411.12 45.8869 410.881 44.8579 410.881 43.6219C410.881 42.5669 411.11 41.5509 411.568 40.5749C412.033 39.5911 412.701 38.7162 413.526 38.0069C414.371 37.2699 415.403 36.6819 416.617 36.2439C417.832 35.8069 419.198 35.5859 420.712 35.5859C422.522 35.5859 424.131 35.8489 425.536 36.3739C426.941 36.8989 428.229 37.7019 429.405 38.7829L428.776 39.7629Z" fill="black"/>
<path d="M45.1989 8.43604C65.2129 8.44004 81.6409 24.661 81.6159 44.395C81.5899 64.428 65.2299 80.424 44.7809 80.409C24.7879 80.395 8.62395 64.157 8.63795 44.102C8.65195 24.491 25.1139 8.43204 45.1989 8.43604ZM34.1359 21.066C34.5949 23.311 34.1489 25.405 33.4709 27.465C33.0009 28.891 32.3519 30.265 31.9639 31.71C31.3249 34.092 30.5999 36.488 30.3339 38.925C29.9519 42.428 31.3369 45.514 33.7059 48.583L22.8119 46.303C22.8309 46.645 22.8109 46.775 22.8479 46.885C23.8799 49.9 25.6979 52.441 27.7339 54.836C27.9489 55.089 28.4399 55.22 28.8039 55.22C39.6659 55.24 50.5279 55.239 61.3889 55.225C61.7259 55.225 62.1749 55.161 62.3819 54.945C64.7099 52.512 66.4899 49.741 67.6029 46.25L56.0709 48.495C56.8319 47.013 57.6999 45.71 58.1989 44.278C59.9059 39.379 59.1989 34.643 56.7479 30.176C54.7809 26.591 52.9669 23.022 53.9479 18.702C51.8709 20.741 51.0729 23.337 50.5669 26.012C50.0679 28.647 49.7749 31.321 49.3889 33.994C49.3339 33.913 49.2629 33.854 49.2519 33.784C49.2034 33.504 49.1697 33.2216 49.1509 32.938C48.9159 28.559 48.0559 24.34 46.2409 20.311C45.1719 17.939 43.9939 15.514 45.0949 12.685C44.3489 13.076 43.6759 13.464 43.1919 14.019C41.7499 15.674 41.1539 17.663 41.0009 19.84C40.8699 21.7 40.6899 23.569 40.3429 25.398C39.9779 27.32 39.3999 29.204 38.1019 30.97C37.5779 27.195 37.5189 23.463 34.1359 21.066ZM62.1419 58.526H28.0739V64.409H62.1419V58.526ZM34.8289 67.448C34.8009 72.347 39.8199 75.997 46.0239 75.732C51.1649 75.513 55.7149 71.492 55.3239 67.448H34.8289Z" fill="#E75225"/>
</svg>
