<svg xmlns="http://www.w3.org/2000/svg" xmlns:xlink="http://www.w3.org/1999/xlink" fill="none" version="1.1" width="330.275634765625" height="327.0625" viewBox="0 0 330.275634765625 327.0625"><defs><linearGradient x1="0.10611901432275772" y1="0.9834379553794861" x2="1.0127024455840854" y2="0.7087482565493461" id="master_svg0_162_1561"><stop offset="0%" stop-color="#615CED" stop-opacity="0.5"/><stop offset="0%" stop-color="#6964ED" stop-opacity="0.5299999713897705"/><stop offset="0.9999999776482582%" stop-color="#8884F1" stop-opacity="0.6200000047683716"/><stop offset="2.9999999329447746%" stop-color="#A4A2F4" stop-opacity="0.7200000286102295"/><stop offset="3.999999910593033%" stop-color="#BDBBF7" stop-opacity="0.7900000214576721"/><stop offset="5.999999865889549%" stop-color="#D2D0F9" stop-opacity="0.8600000143051147"/><stop offset="7.000000029802322%" stop-color="#E2E1FB" stop-opacity="0.9100000262260437"/><stop offset="9.000000357627869%" stop-color="#EFEFFD" stop-opacity="0.949999988079071"/><stop offset="11.999999731779099%" stop-color="#F8F8FE" stop-opacity="0.9800000190734863"/><stop offset="15.000000596046448%" stop-color="#FDFDFE" stop-opacity="1"/><stop offset="25%" stop-color="#FFFFFF" stop-opacity="1"/></linearGradient><linearGradient x1="0.9915931820869446" y1="0.7900100946426392" x2="0.025012259650019898" y2="-0.02934667583044351" id="master_svg1_162_1554"><stop offset="0%" stop-color="#615CED" stop-opacity="0.5"/><stop offset="0%" stop-color="#6964ED" stop-opacity="0.5299999713897705"/><stop offset="0.9999999776482582%" stop-color="#8884F1" stop-opacity="0.6200000047683716"/><stop offset="2.9999999329447746%" stop-color="#A4A2F4" stop-opacity="0.7200000286102295"/><stop offset="3.999999910593033%" stop-color="#BDBBF7" stop-opacity="0.7900000214576721"/><stop offset="5.999999865889549%" stop-color="#D2D0F9" stop-opacity="0.8600000143051147"/><stop offset="7.000000029802322%" stop-color="#E2E1FB" stop-opacity="0.9100000262260437"/><stop offset="9.000000357627869%" stop-color="#EFEFFD" stop-opacity="0.949999988079071"/><stop offset="11.999999731779099%" stop-color="#F8F8FE" stop-opacity="0.9800000190734863"/><stop offset="15.000000596046448%" stop-color="#FDFDFE" stop-opacity="1"/><stop offset="25%" stop-color="#FFFFFF" stop-opacity="1"/></linearGradient><linearGradient x1="0.5" y1="0" x2="0.5" y2="1" id="master_svg2_162_1568"><stop offset="0%" stop-color="#615CED" stop-opacity="0.5"/><stop offset="0%" stop-color="#6964ED" stop-opacity="0.5299999713897705"/><stop offset="0.9999999776482582%" stop-color="#8884F1" stop-opacity="0.6200000047683716"/><stop offset="2.9999999329447746%" stop-color="#A4A2F4" stop-opacity="0.7200000286102295"/><stop offset="3.999999910593033%" stop-color="#BDBBF7" stop-opacity="0.7900000214576721"/><stop offset="5.999999865889549%" stop-color="#D2D0F9" stop-opacity="0.8600000143051147"/><stop offset="7.000000029802322%" stop-color="#E2E1FB" stop-opacity="0.9100000262260437"/><stop offset="9.000000357627869%" stop-color="#EFEFFD" stop-opacity="0.949999988079071"/><stop offset="11.999999731779099%" stop-color="#F8F8FE" stop-opacity="0.9800000190734863"/><stop offset="15.000000596046448%" stop-color="#FDFDFE" stop-opacity="1"/><stop offset="25%" stop-color="#FFFFFF" stop-opacity="1"/></linearGradient><linearGradient x1="0.9286861419677734" y1="0.2500119209289551" x2="0.06702831102961634" y2="0.7426092481438283" id="master_svg3_162_1558"><stop offset="0%" stop-color="#615CED" stop-opacity="1"/><stop offset="17.000000178813934%" stop-color="#6156EC" stop-opacity="1"/><stop offset="37.99999952316284%" stop-color="#6147E9" stop-opacity="1"/><stop offset="61.000001430511475%" stop-color="#622FE4" stop-opacity="1"/><stop offset="62.00000047683716%" stop-color="#632DE4" stop-opacity="1"/></linearGradient><linearGradient x1="0" y1="0.49997615814208984" x2="0.9998583197593689" y2="0.49997615814208984" id="master_svg4_162_1572"><stop offset="0%" stop-color="#615CED" stop-opacity="1"/><stop offset="3.999999910593033%" stop-color="#615CED" stop-opacity="0.9599999785423279"/><stop offset="9.000000357627869%" stop-color="#615CED" stop-opacity="0.8600000143051147"/><stop offset="17.000000178813934%" stop-color="#615CED" stop-opacity="0.6899999976158142"/><stop offset="25%" stop-color="#615CED" stop-opacity="0.46000000834465027"/><stop offset="34.99999940395355%" stop-color="#615CED" stop-opacity="0.1599999964237213"/><stop offset="40.00000059604645%" stop-color="#615CED" stop-opacity="0"/></linearGradient><linearGradient x1="0.7498819231987" y1="0.06276530027389526" x2="0.24257327745846063" y2="0.9328706897214754" id="master_svg5_162_1565"><stop offset="0%" stop-color="#A7A5F6" stop-opacity="1"/><stop offset="5.000000074505806%" stop-color="#9895F4" stop-opacity="0.7900000214576721"/><stop offset="11.999999731779099%" stop-color="#8784F1" stop-opacity="0.550000011920929"/><stop offset="18.99999976158142%" stop-color="#7975F0" stop-opacity="0.3499999940395355"/><stop offset="25%" stop-color="#6F6AEE" stop-opacity="0.20000000298023224"/><stop offset="31.00000023841858%" stop-color="#6762ED" stop-opacity="0.09000000357627869"/><stop offset="36.000001430511475%" stop-color="#625DED" stop-opacity="0.019999999552965164"/><stop offset="40.00000059604645%" stop-color="#615CED" stop-opacity="0"/></linearGradient></defs><g><g><g><path d="M120.16828525390625,7.799072265625L142.64518525390625,46.732072265625L120.16828525390625,85.665172265625L299.98388525390624,85.665172265625L277.50688525390626,124.582072265625L102.18358525390624,124.582072265625L77.44488525390625,81.765572265625L120.16828525390625,7.799072265625Z" fill="#FFFFFF" fill-opacity="1"/></g><g><path d="M30.26043701171875,85.64959716796875L75.21433701171875,85.64959716796875L162.86043701171874,237.49759716796876L138.13743701171876,280.3305971679688L52.737437011718754,280.2995971679687L75.21433701171875,241.36659716796876L120.16823701171874,241.38159716796875L30.26043701171875,85.64959716796875Z" fill="#FFFFFF" fill-opacity="1"/></g><g><path d="M142.629638671875,280.29911669921876L165.106638671875,319.23211669921875L255.014638671875,163.51561669921875L277.475638671875,202.44861669921875L322.44563867187503,202.44861669921875L279.753638671875,128.48211669921875L230.306938671875,128.49771819921875L142.629638671875,280.29911669921876Z" fill="#FFFFFF" fill-opacity="1"/></g><g><path d="M120.16828525390625,7.799072265625L142.64518525390625,46.732072265625L120.16828525390625,85.665172265625L299.98388525390624,85.665172265625L277.50688525390626,124.582072265625L102.18358525390624,124.582072265625L77.44488525390625,81.765572265625L120.16828525390625,7.799072265625Z" fill="url(#master_svg0_162_1561)" fill-opacity="1"/></g><g><path d="M52.737437011718754,280.3151000976562L75.21433701171875,241.38210009765626L120.16823701171874,241.38210009765626L30.26043701171875,85.66510009765625L75.19873701171875,85.66510009765625L162.86043701171874,237.49810009765625L138.13743701171876,280.3301000976562L52.737437011718754,280.3151000976562Z" fill="url(#master_svg1_162_1554)" fill-opacity="1"/></g><g><path d="M322.46126367187503,202.44861669921875L277.491263671875,202.44861669921875L255.030263671875,163.51561669921875L165.122263671875,319.2481166992187L142.645263671875,280.33011669921876L230.306963671875,128.49771819921875L279.753263671875,128.48211669921875L322.46126367187503,202.44861669921875Z" fill="url(#master_svg2_162_1568)" fill-opacity="1"/></g><g><path d="M329.184,198.548625L290.984,132.381625L286.492,124.582625L306.722,89.564725C307.424,88.363625,307.767,87.022225,307.767,85.665125C307.767,84.308125,307.424,82.966725,306.722,81.765625L284.245,42.832625C283.543,41.631525,282.561,40.664425,281.391,39.978125C280.237,39.307425,278.88,38.933025,277.491,38.933025L192.076,38.933025L171.845,3.899575C170.457,1.497455,167.883,0.000029400000000000606,165.107,0.000029400000000000606L120.153,0.000029400000000000606C118.764,0.000029400000000000606,117.423,0.374385,116.269,1.045105C115.099,1.715825,114.116,2.698515,113.414,3.899575L75.1987,70.082625L70.7065,77.850525L30.2448,77.850525C28.8566,77.850525,27.5151,78.224825,26.3609,78.895525C25.191,79.566325,24.1927,80.548925,23.5064,81.750025L1.04508,120.682625C0.34316,121.883625,0,123.225625,0,124.582625C0,125.939625,0.34316,127.280625,1.04508,128.482625L43.7529,202.448625L23.522,237.482625C22.8201,238.683625,22.477,240.024625,22.477,241.381625C22.477,242.738625,22.8201,244.080625,23.522,245.281625L45.999,284.214625C46.7009,285.415625,47.6836,286.382625,48.8535,287.068625C50.0233,287.739625,51.3648,288.113625,52.753,288.113625L138.153,288.113625L158.384,323.147625C159.772,325.549625,162.346,327.031625,165.122,327.046625L210.076,327.046625C211.464,327.046625,212.806,326.672625,213.976,326.001625C215.13,325.330625,216.128,324.348625,216.83,323.147625L259.538,249.180625L300,249.180625C301.388,249.180625,302.729,248.806625,303.899,248.135625C305.053,247.464625,306.052,246.482625,306.754,245.281625L329.231,206.348625C329.932,205.146625,330.276,203.805625,330.276,202.448625C330.276,201.091625,329.932,199.749625,329.231,198.548625L329.184,198.548625ZM120.168,7.799115L142.645,46.732125L120.168,85.649525L299.984,85.649525L277.507,124.566625L102.184,124.566625L77.4449,81.750025L120.168,7.799115ZM138.137,280.330625L52.7374,280.298625L75.2144,241.365625L120.168,241.365625L30.2604,85.649525L75.2144,85.649525L97.6913,124.582625L162.86,237.497625L138.153,280.330625L138.137,280.330625ZM277.476,202.448625L255.014,163.515625L165.107,319.231625L142.63,280.298625L165.122,241.381625L230.307,128.497625L279.753,128.497625L322.445,202.448625L277.476,202.448625Z" fill="url(#master_svg3_162_1558)" fill-opacity="1"/></g><g><path d="M329.184,198.548625L290.984,132.381625L286.492,124.582625L306.722,89.564725C307.424,88.363625,307.767,87.022225,307.767,85.665125C307.767,84.308125,307.424,82.966725,306.722,81.765625L284.245,42.832625C283.543,41.631525,282.561,40.664425,281.391,39.978125C280.237,39.307425,278.88,38.933025,277.491,38.933025L192.076,38.933025L171.845,3.899575C170.457,1.497455,167.883,0.000029400000000000606,165.107,0.000029400000000000606L120.153,0.000029400000000000606C118.764,0.000029400000000000606,117.423,0.374385,116.269,1.045105C115.099,1.715825,114.116,2.698515,113.414,3.899575L75.1987,70.082625L70.7065,77.850525L30.2448,77.850525C28.8566,77.850525,27.5151,78.224825,26.3609,78.895525C25.191,79.566325,24.1927,80.548925,23.5064,81.750025L1.04508,120.682625C0.34316,121.883625,0,123.225625,0,124.582625C0,125.939625,0.34316,127.280625,1.04508,128.482625L43.7529,202.448625L23.522,237.482625C22.8201,238.683625,22.477,240.024625,22.477,241.381625C22.477,242.738625,22.8201,244.080625,23.522,245.281625L45.999,284.214625C46.7009,285.415625,47.6836,286.382625,48.8535,287.068625C50.0233,287.739625,51.3648,288.113625,52.753,288.113625L138.153,288.113625L158.384,323.147625C159.772,325.549625,162.346,327.031625,165.122,327.046625L210.076,327.046625C211.464,327.046625,212.806,326.672625,213.976,326.001625C215.13,325.330625,216.128,324.348625,216.83,323.147625L259.538,249.180625L300,249.180625C301.388,249.180625,302.729,248.806625,303.899,248.135625C305.053,247.464625,306.052,246.482625,306.754,245.281625L329.231,206.348625C329.932,205.146625,330.276,203.805625,330.276,202.448625C330.276,201.091625,329.932,199.749625,329.231,198.548625L329.184,198.548625ZM120.168,7.799115L142.645,46.732125L120.168,85.649525L299.984,85.649525L277.507,124.566625L102.184,124.566625L77.4449,81.750025L120.168,7.799115ZM138.137,280.330625L52.7374,280.298625L75.2144,241.365625L120.168,241.365625L30.2604,85.649525L75.2144,85.649525L97.6913,124.582625L162.86,237.497625L138.153,280.330625L138.137,280.330625ZM277.476,202.448625L255.014,163.515625L165.107,319.231625L142.63,280.298625L165.122,241.381625L230.307,128.497625L279.753,128.497625L322.445,202.448625L277.476,202.448625Z" fill="url(#master_svg4_162_1572)" fill-opacity="1"/></g><g><path d="M329.184,198.548625L290.984,132.381625L286.492,124.582625L306.722,89.564725C307.424,88.363625,307.767,87.022225,307.767,85.665125C307.767,84.308125,307.424,82.966725,306.722,81.765625L284.245,42.832625C283.543,41.631525,282.561,40.664425,281.391,39.978125C280.237,39.307425,278.88,38.933025,277.491,38.933025L192.076,38.933025L171.845,3.899575C170.457,1.497455,167.883,0.000029400000000000606,165.107,0.000029400000000000606L120.153,0.000029400000000000606C118.764,0.000029400000000000606,117.423,0.374385,116.269,1.045105C115.099,1.715825,114.116,2.698515,113.414,3.899575L75.1987,70.082625L70.7065,77.850525L30.2448,77.850525C28.8566,77.850525,27.5151,78.224825,26.3609,78.895525C25.191,79.566325,24.1927,80.548925,23.5064,81.750025L1.04508,120.682625C0.34316,121.883625,0,123.225625,0,124.582625C0,125.939625,0.34316,127.280625,1.04508,128.482625L43.7529,202.448625L23.522,237.482625C22.8201,238.683625,22.477,240.024625,22.477,241.381625C22.477,242.738625,22.8201,244.080625,23.522,245.281625L45.999,284.214625C46.7009,285.415625,47.6836,286.382625,48.8535,287.068625C50.0233,287.739625,51.3648,288.113625,52.753,288.113625L138.153,288.113625L158.384,323.147625C159.772,325.549625,162.346,327.031625,165.122,327.046625L210.076,327.046625C211.464,327.046625,212.806,326.672625,213.976,326.001625C215.13,325.330625,216.128,324.348625,216.83,323.147625L259.538,249.180625L300,249.180625C301.388,249.180625,302.729,248.806625,303.899,248.135625C305.053,247.464625,306.052,246.482625,306.754,245.281625L329.231,206.348625C329.932,205.146625,330.276,203.805625,330.276,202.448625C330.276,201.091625,329.932,199.749625,329.231,198.548625L329.184,198.548625ZM120.168,7.799115L142.645,46.732125L120.168,85.649525L299.984,85.649525L277.507,124.566625L102.184,124.566625L77.4449,81.750025L120.168,7.799115ZM138.137,280.330625L52.7374,280.298625L75.2144,241.365625L120.168,241.365625L30.2604,85.649525L75.2144,85.649525L97.6913,124.582625L162.86,237.497625L138.153,280.330625L138.137,280.330625ZM277.476,202.448625L255.014,163.515625L165.107,319.231625L142.63,280.298625L165.122,241.381625L230.307,128.497625L279.753,128.497625L322.445,202.448625L277.476,202.448625Z" fill="url(#master_svg5_162_1565)" fill-opacity="1"/></g></g></g></svg>