<?xml version="1.0" encoding="UTF-8"?>
<svg width="650px" height="218px" viewBox="0 0 650 218" version="1.1" xmlns="http://www.w3.org/2000/svg" xmlns:xlink="http://www.w3.org/1999/xlink">
    <title>Xprobe-01备份 5</title>
    <defs>
        <linearGradient x1="-21.5969351%" y1="156.240073%" x2="86.2858599%" y2="0.635352848%" id="linearGradient-1">
            <stop stop-color="#E9A85E" offset="0%"></stop>
            <stop stop-color="#F52B76" offset="100%"></stop>
        </linearGradient>
        <linearGradient x1="8.65277799%" y1="103.550942%" x2="278.804567%" y2="-271.046162%" id="linearGradient-2">
            <stop stop-color="#E9A85E" offset="0%"></stop>
            <stop stop-color="#F52B76" offset="100%"></stop>
        </linearGradient>
        <linearGradient x1="-2.89154942%" y1="21.7203669%" x2="90.6369366%" y2="73.137504%" id="linearGradient-3">
            <stop stop-color="#6A0CF5" offset="0%"></stop>
            <stop stop-color="#AB66F3" offset="100%"></stop>
        </linearGradient>
    </defs>
    <g id="Xprobe-01备份-5" stroke="none" stroke-width="1" fill="none" fill-rule="evenodd">
        <g id="编组-3" transform="translate(0.000000, 20.000000)" fill-rule="nonzero">
            <g id="路径">
                <path d="M59.1028403,90.8173965 C64.1761368,96.4454485 69.9300263,101.417156 76.2312364,105.617365 C81.6408254,109.243942 87.411548,112.297549 93.4505338,114.729043 C104.415854,104.346366 113.49819,92.1329995 120.29238,78.6337813 L159.925333,0 L90.814397,54.4618012 C78.0829415,64.5008937 67.3289278,76.8297924 59.1028403,90.8173965 L59.1028403,90.8173965 Z" fill="url(#linearGradient-1)"></path>
                <path d="M53.1517964,139.95081 C48.1484978,136.621129 43.4202496,133.108643 38.9539542,129.504753 L14.7757101,177.308521 L58.2336809,143.241318 C56.5309876,142.157539 54.8282944,141.073761 53.1517964,139.95081 Z" fill="url(#linearGradient-2)"></path>
                <path d="M141.865928,63.6380888 C154.872722,80.8809861 158.670706,100.04843 149.8521,113.234175 C136.975373,132.492645 102.065137,131.751434 71.8763671,111.582706 C41.6875973,91.4139777 27.6532662,59.4508995 40.5299926,40.1924297 C49.3485992,27.0066846 68.5076074,23.1966025 89.4225328,28.5931352 C53.2506376,13.2357734 18.8346596,14.7572055 5.48968852,34.6788637 C-11.2630627,59.7499845 11.6158887,104.48269 56.5803769,134.48221 C101.544865,164.481731 151.59501,168.551887 168.347761,143.49377 C181.679725,123.5331 169.882563,91.1669076 141.865928,63.6380888 Z" fill="url(#linearGradient-3)"></path>
            </g>
            <g id="Xinference备份" transform="translate(207.729100, 57.364521)" fill="#781FF5">
                <g id="Xinference" transform="translate(0.000000, 1.518143)" stroke="#781FF5" stroke-width="1.57887701">
                    <g id="编组-2" transform="translate(1.486263, 1.390655)">
                        <path d="M12.1371904,0 L59.1028403,59.1028403 L46.9656499,59.1028403 L29.635,37.359 L13.0373912,59.1028403 L0.869159416,59.1028403 L23.626,29.819 L0,0.175379348 L12.1371904,0 Z M48.0018042,0 L59.9719997,0.177153512 L38.3200284,27.8131013 L32.1588984,20.0183468 L48.0018042,0 Z" id="形状结合"></path>
                    </g>
                </g>
                <path d="M73.0603522,11.8533313 L73.0603522,1.0397659 L84.747321,1.0397659 L84.747321,11.8533313 L73.0603522,11.8533313 Z M73.0603522,62.0116385 L73.0603522,17.8423829 L84.747321,17.8423829 L84.747321,62.0116385 L73.0603522,62.0116385 Z" id="形状"></path>
                <path d="M136.901979,62.0116385 L125.21501,62.0116385 L125.21501,39.4695137 C125.21501,34.7004541 124.965466,31.6158152 124.466378,30.2155971 C123.967291,28.8153791 123.156273,27.7270908 122.033326,26.9507322 C120.910379,26.1743737 119.558683,25.7861944 117.978239,25.7861944 C115.954162,25.7861944 114.138037,26.3407362 112.529866,27.4498198 C110.921695,28.5589035 109.819543,30.0284393 109.22341,31.8584273 C108.627278,33.6884153 108.329212,37.0711203 108.329212,42.0065425 L108.329212,62.0116385 L96.6422429,62.0116385 L96.6422429,17.8423829 L107.497399,17.8423829 L107.497399,24.3305221 C111.351465,19.3396458 116.203705,16.8442076 122.054122,16.8442076 C124.632741,16.8442076 126.989544,17.3086364 129.12453,18.2374939 C131.259516,19.1663515 132.874619,20.3516846 133.969839,21.7934933 C135.065059,23.2353021 135.827554,24.8712004 136.257324,26.7011884 C136.687094,28.5311764 136.901979,31.1513865 136.901979,34.5618186 L136.901979,62.0116385 Z" id="路径"></path>
                <path d="M143.639662,17.8423829 L150.127801,17.8423829 L150.127801,14.515132 C150.127801,10.7997018 150.522912,8.02699277 151.313134,6.19700478 C152.103356,4.36701679 153.559028,2.87668567 155.680151,1.7260114 C157.801273,0.575337133 160.483869,0 163.727939,0 C167.05519,0 170.313123,0.499087634 173.501738,1.4972629 L171.921294,9.64902758 C170.063579,9.20539413 168.275182,8.9835774 166.556102,8.9835774 C164.86475,8.9835774 163.651689,9.37868845 162.916922,10.1689105 C162.182154,10.9591326 161.81477,12.4771908 161.81477,14.7230852 L161.81477,17.8423829 L170.548803,17.8423829 L170.548803,27.0339135 L161.81477,27.0339135 L161.81477,62.0116385 L150.127801,62.0116385 L150.127801,27.0339135 L143.639662,27.0339135 L143.639662,17.8423829 Z" id="路径"></path>
                <path d="M202.698365,47.9540035 L214.343743,49.9087634 C212.84648,54.1787353 210.482746,57.4297367 207.25254,59.6617675 C204.022334,61.8937983 199.98111,63.0098137 195.128869,63.0098137 C187.448465,63.0098137 181.764412,60.500512 178.076708,55.4819086 C175.165364,51.4614804 173.709692,46.3874228 173.709692,40.2597358 C173.709692,32.9397838 175.622861,27.2072078 179.449199,23.0620077 C183.275538,18.9168077 188.113915,16.8442076 193.964331,16.8442076 C200.535652,16.8442076 205.720618,19.0138525 209.519229,23.3531422 C213.317841,27.6924319 215.133965,34.3400019 214.967603,43.2958522 L185.687795,43.2958522 C185.770976,46.7617386 186.713697,49.4581981 188.515958,51.3852309 C190.318219,53.3122637 192.564113,54.2757801 195.253641,54.2757801 C197.083629,54.2757801 198.622483,53.7766925 199.870202,52.7785172 C201.117921,51.780342 202.060642,50.1721707 202.698365,47.9540035 Z M203.363815,36.1422628 C203.280634,32.7595577 202.407231,30.1878701 200.743605,28.4271998 C199.07998,26.6665295 197.055902,25.7861944 194.671372,25.7861944 C192.12048,25.7861944 190.013221,26.7150519 188.349596,28.572767 C186.68597,30.4304821 185.868021,32.9536474 185.895748,36.1422628 L203.363815,36.1422628 Z" id="形状"></path>
                <path d="M235.679739,62.0116385 L223.992771,62.0116385 L223.992771,17.8423829 L234.847927,17.8423829 L234.847927,24.122569 C236.705642,21.1557702 238.376199,19.2010103 239.859598,18.2582893 C241.342998,17.3155682 243.027419,16.8442076 244.912861,16.8442076 C247.574661,16.8442076 250.139417,17.5789755 252.607128,19.0485113 L248.988743,29.2382172 C247.02012,27.962771 245.190132,27.3250479 243.498779,27.3250479 C241.862881,27.3250479 240.476526,27.7756132 239.339715,28.6767436 C238.202905,29.5778741 237.308706,31.2068406 236.657119,33.5636434 C236.005533,35.9204461 235.679739,40.8558682 235.679739,48.3699098 L235.679739,62.0116385 Z" id="路径"></path>
                <path d="M283.217837,47.9540035 L294.863215,49.9087634 C293.365952,54.1787353 291.002217,57.4297367 287.772011,59.6617675 C284.541805,61.8937983 280.500582,63.0098137 275.648341,63.0098137 C267.967937,63.0098137 262.283883,60.500512 258.59618,55.4819086 C255.684835,51.4614804 254.229163,46.3874228 254.229163,40.2597358 C254.229163,32.9397838 256.142332,27.2072078 259.968671,23.0620077 C263.79501,18.9168077 268.633387,16.8442076 274.483803,16.8442076 C281.055124,16.8442076 286.240089,19.0138525 290.038701,23.3531422 C293.837312,27.6924319 295.653437,34.3400019 295.487074,43.2958522 L266.207266,43.2958522 C266.290448,46.7617386 267.233169,49.4581981 269.03543,51.3852309 C270.837691,53.3122637 273.083585,54.2757801 275.773113,54.2757801 C277.603101,54.2757801 279.141954,53.7766925 280.389673,52.7785172 C281.637392,51.780342 282.580114,50.1721707 283.217837,47.9540035 Z M283.883287,36.1422628 C283.800105,32.7595577 282.926702,30.1878701 281.263077,28.4271998 C279.599451,26.6665295 277.575374,25.7861944 275.190844,25.7861944 C272.639951,25.7861944 270.532693,26.7150519 268.869067,28.572767 C267.205442,30.4304821 266.387493,32.9536474 266.41522,36.1422628 L283.883287,36.1422628 Z" id="形状"></path>
                <path d="M345.187884,62.0116385 L333.500916,62.0116385 L333.500916,39.4695137 C333.500916,34.7004541 333.251372,31.6158152 332.752284,30.2155971 C332.253197,28.8153791 331.442179,27.7270908 330.319232,26.9507322 C329.196285,26.1743737 327.844589,25.7861944 326.264145,25.7861944 C324.240067,25.7861944 322.423943,26.3407362 320.815772,27.4498198 C319.2076,28.5589035 318.105449,30.0284393 317.509316,31.8584273 C316.913184,33.6884153 316.615117,37.0711203 316.615117,42.0065425 L316.615117,62.0116385 L304.928149,62.0116385 L304.928149,17.8423829 L315.783305,17.8423829 L315.783305,24.3305221 C319.63737,19.3396458 324.489611,16.8442076 330.340027,16.8442076 C332.918647,16.8442076 335.275449,17.3086364 337.410435,18.2374939 C339.545421,19.1663515 341.160524,20.3516846 342.255745,21.7934933 C343.350965,23.2353021 344.11346,24.8712004 344.54323,26.7011884 C344.972999,28.5311764 345.187884,31.1513865 345.187884,34.5618186 L345.187884,62.0116385 Z" id="路径"></path>
                <path d="M395.554145,30.9018426 L384.033539,32.9813745 C383.645359,30.6800259 382.765024,28.9470827 381.392533,27.7825449 C380.020042,26.6180071 378.238577,26.0357382 376.048136,26.0357382 C373.136792,26.0357382 370.814648,27.0408453 369.081705,29.0510593 C367.348762,31.0612734 366.48229,34.4231832 366.48229,39.1367886 C366.48229,44.3772087 367.362625,48.0787754 369.123296,50.2414884 C370.883966,52.4042015 373.2477,53.4855581 376.214499,53.4855581 C378.432666,53.4855581 380.248791,52.8547667 381.662872,51.5931841 C383.076954,50.3316015 384.075129,48.1619566 384.657398,45.0842496 L396.136414,47.0390095 C394.944149,52.3071567 392.656664,56.2859942 389.273959,58.975522 C385.891254,61.6650498 381.357874,63.0098137 375.673821,63.0098137 C369.213409,63.0098137 364.063101,60.9718726 360.222899,56.8959902 C356.382697,52.8201079 354.462596,47.1776449 354.462596,39.9686013 C354.462596,32.6763765 356.389629,26.9992546 360.243695,22.9372358 C364.09776,18.875217 369.310453,16.8442076 375.881774,16.8442076 C381.260829,16.8442076 385.537733,18.0018137 388.712485,20.3170257 C391.887237,22.6322378 394.16779,26.1605101 395.554145,30.9018426 Z" id="路径"></path>
                <path d="M429.991191,47.9540035 L441.63657,49.9087634 C440.139307,54.1787353 437.775572,57.4297367 434.545366,59.6617675 C431.31516,61.8937983 427.273937,63.0098137 422.421696,63.0098137 C414.741292,63.0098137 409.057238,60.500512 405.369535,55.4819086 C402.45819,51.4614804 401.002518,46.3874228 401.002518,40.2597358 C401.002518,32.9397838 402.915687,27.2072078 406.742026,23.0620077 C410.568364,18.9168077 415.406742,16.8442076 421.257158,16.8442076 C427.828478,16.8442076 433.013444,19.0138525 436.812056,23.3531422 C440.610667,27.6924319 442.426792,34.3400019 442.260429,43.2958522 L412.980621,43.2958522 C413.063803,46.7617386 414.006524,49.4581981 415.808785,51.3852309 C417.611045,53.3122637 419.85694,54.2757801 422.546468,54.2757801 C424.376456,54.2757801 425.915309,53.7766925 427.163028,52.7785172 C428.410747,51.780342 429.353468,50.1721707 429.991191,47.9540035 Z M430.656642,36.1422628 C430.57346,32.7595577 429.700057,30.1878701 428.036432,28.4271998 C426.372806,26.6665295 424.348729,25.7861944 421.964199,25.7861944 C419.413306,25.7861944 417.306047,26.7150519 415.642422,28.572767 C413.978797,30.4304821 413.160847,32.9536474 413.188574,36.1422628 L430.656642,36.1422628 Z" id="形状"></path>
            </g>
        </g>
    </g>
</svg>