<svg width="445" height="512" viewBox="0 0 445 512" fill="none" xmlns="http://www.w3.org/2000/svg">
<path d="M287.995 0C307.295 22.9 330.495 41.6 356.895 55.6C384.095 70 413.395 78.6 444.095 81.4L442.295 101.1C408.995 98.1 377.095 88.7 347.595 73.1C343.395 70.9 339.395 68.6 335.295 66.2C327.095 74.7 319.795 83.9 313.195 93.7C351.295 112.5 382.995 142.5 404.595 180.6C433.295 231.3 440.695 290.6 425.495 347.4C410.295 404.2 374.295 451.9 324.195 481.6C290.395 501.7 252.795 511.9 214.795 511.9C196.395 511.9 177.895 509.5 159.695 504.6C103.895 489.7 57.2946 453.5 28.5946 402.7C-0.00538445 352 -7.50539 292.7 7.69461 235.9C22.8946 179 58.8946 131.4 108.995 101.6C159.195 71.8 217.595 63.7 273.495 78.6C280.695 80.5 287.795 82.8 294.795 85.5C301.795 74.7 309.695 64.5 318.495 55C301.595 42.9 286.295 28.7 272.695 12.6L287.995 0ZM218.595 91.3C184.095 91.3 149.995 100.6 119.295 118.8C73.5946 145.8 40.8946 189.3 26.9946 241.1C13.0946 292.9 19.8946 346.9 45.9946 393.1C71.9946 439.2 114.295 472 164.895 485.5C181.395 489.9 198.095 492.1 214.795 492.1C249.295 492.1 283.395 482.8 314.095 464.6C359.795 437.6 392.495 394.1 406.395 342.3C420.295 290.5 413.495 236.5 387.395 190.3C361.395 144.2 319.095 111.4 268.495 97.9C251.995 93.5 235.295 91.3 218.595 91.3ZM205.895 108C283.595 179.8 333.895 275.7 348.595 381.6C350.095 392.4 351.295 404.7 351.995 417.1C346.095 423.9 339.795 430.2 332.995 436.1C332.495 418.3 331.095 399.8 328.895 384.3C315.395 287.6 270.995 199.6 202.295 132C242.595 192.1 268.095 260.8 276.695 333.8C282.195 380 280.695 426.1 272.295 471.2C260.195 475.4 247.595 478.4 234.795 480C234.895 475.6 234.995 471.2 234.995 466.8C234.995 460.6 234.895 454.4 234.595 448.3C227.395 449 220.195 449.4 212.995 449.4C204.895 449.4 196.795 448.9 188.695 448C189.395 441.4 189.895 434.8 190.295 428.2C204.595 429.9 218.995 430 233.295 428.5C228.995 378.7 216.395 330.5 195.595 284.8C174.395 238.2 145.695 196.3 109.995 159.9C154.195 231.9 177.495 314.2 177.495 399.6C177.495 425.4 175.295 451.1 171.095 476.3C169.695 476 168.295 475.6 166.895 475.2C161.795 473.8 156.795 472.3 151.995 470.5C153.595 460.9 154.795 451.1 155.695 441.4C142.495 437.7 129.795 432.8 117.695 426.7C118.095 419.3 118.395 412 118.495 404.6C130.695 411.5 143.595 417 157.195 421.1C157.495 413.9 157.695 406.7 157.695 399.5C157.695 314.4 133.595 232.6 87.7946 161.7C96.5946 152.9 106.195 145.1 116.495 138.3C157.295 178.1 189.895 224.5 213.595 276.5C239.495 333.3 253.295 393.8 254.595 456.5C260.895 416.9 261.695 376.5 256.895 336.1C247.295 254.8 215.795 178.9 165.395 115.3C178.695 111.4 192.195 108.9 205.895 108ZM60.2946 201.5C73.2946 229.3 83.5946 258.4 90.8946 288.2C99.6946 324.2 104.095 361.4 104.095 398.8C104.095 412.6 103.495 426.4 102.295 440.1C95.7946 434.7 89.6946 428.9 83.9946 422.6C84.3946 414.7 84.5946 406.7 84.5946 398.8C84.5946 338.9 72.3946 279.3 49.1946 224.7C52.4946 216.6 56.1946 208.8 60.2946 201.5ZM350.095 190.5C367.895 217.6 379.695 249.1 384.095 281.4L364.595 284C360.595 254.6 349.895 226 333.695 201.3L350.095 190.5ZM308.695 144C317.995 151.8 326.795 160.5 334.695 169.9L319.695 182.6C312.495 174.1 304.595 166.2 296.095 159.1L308.695 144Z" fill="#76B900"/>
</svg>
