<svg xmlns="http://www.w3.org/2000/svg" role="img" viewBox="-7.84 -8.34 433.94 117.94"><title>DaoCloud_id1Jphq1Bw_1.svg</title><style>svg {enable-background:new 0 0 418.5 101.6}</style><style>.st1{fill:#0f1011}</style><path fill="#0fd15d" d="M47.3 21.4l22.9-11.3-23-10-23 9.9zM23.8 52.3l-1.1-18.6 16.7-8.3-23.6-11.7L.5 20.3l2 17.9zm68.1-14.2l2.2-17.8-15.5-6.6-23.4 11.7 16.9 8.3-1.3 18.6zM70.2 61.2l-1.7 24.2 19.4-14.6 2.9-23.5zm-45.9 0L3.6 47.3l2.8 23.6 19.5 14.5zm38.6 4.9L47.4 76.5 31.7 66.1l1.6 24.8 14 10.5 13.8-10.5z"/><path d="M119.8 73.1V19.5h19.7c11 0 17.8 6.7 17.8 17.5v18.7c0 10.6-6.8 17.5-17.8 17.5l-19.7-.1zm10.3-9.1h9.4c4.8 0 7.4-3.1 7.4-9.3V37.8c0-6.1-2.6-9.3-7.4-9.3h-9.4V64zM205 48.6c0-10 6.4-16.2 16.7-16.2s16.6 6.1 16.6 16.2v9c.1 10-6.4 16.2-16.6 16.2-10.3 0-16.7-6.1-16.7-16.2v-9zm9.8 8.2c0 5.6 2.5 8.5 6.9 8.5s6.8-2.9 6.8-8.5v-7.4c0-5.6-2.5-8.5-6.8-8.5-4.4 0-6.8 2.9-6.8 8.5l-.1 7.4zm-17.9 16.3h-8.4l-.5-3.8c-2.3 2.7-6.6 4.6-11.3 4.6-7.6 0-13.3-5.4-13.3-12 0-16.9 23.4-17.1 23.4-17.1 0-1.3-1.9-5.3-10.3-5.3-2.5.1-4.9.5-7.3 1.3l-1.9-5.3c4.1-2 8.7-3 13.3-3.1 10.4 0 16.4 4.3 16.4 14.2l-.1 26.5zm-18.2-6.9c3.3-.1 6.4-1.8 8.2-4.6V50.7c-1.6 0-13.7 1-13.7 10.2-.1 2.8 2.1 5.1 4.9 5.2.3.1.4.1.6.1z" class="st1"/><path d="M264.4 74.1c-10.6 0-18.4-6.7-18.4-17.3V36.4c0-10.6 7.8-17.2 18.4-17.2 6.7 0 10.7 1.9 15.2 5.1l-3.9 7.1c-3.8-2.1-6.3-3.3-11.3-3.3s-8.2 3.5-8.2 9.3V56c0 6 3.3 9.3 8.2 9.3 5 0 7.5-1.2 11.3-3.3l3.9 7.2c-4.5 3-8.5 4.9-15.2 4.9zm21.7-1V16.5h9.7v56.6h-9.7zM304.2 49c0-9.9 6.3-15.9 16.4-15.9S337 39.1 337 49v8.9c.1 9.9-6.3 15.9-16.4 15.9-10.2 0-16.4-6-16.4-15.9V49zm9.6 8.1c0 5.5 2.4 8.4 6.8 8.4 4.3 0 6.7-2.9 6.7-8.4v-7.2c0-5.5-2.4-8.4-6.7-8.4-4.4 0-6.7 2.9-6.7 8.4l-.1 7.2zm43.4 16.7c-9 0-11.9-5.4-11.9-15.4V33.9h9.7v23.7c0 5.6 1.1 8 4.9 8 3.1 0 5.9-1.7 7.3-4.4V33.9h9.7v39.2h-8.4l-.8-3.7c-2.9 2.7-6.6 4.2-10.5 4.4zm52.2-4c-2.9 2.7-6.7 4.1-10.6 4.1-8.8 0-13.4-6-13.4-15.9v-9.6c0-10 4.4-15.2 13.1-15.2 3.3-.1 6.5.6 9.6 1.8V16.5h9.7v56.6h-7.9l-.5-3.3zm-1.3-26.6c-2.3-1-4.8-1.6-7.4-1.5-3.7 0-5.7 2.3-5.7 7.4v8c0 5.5 1.5 8.4 5.9 8.4 3 .2 5.8-1.4 7.2-4V43.2z" class="st1"/></svg>