<svg xmlns="http://www.w3.org/2000/svg" role="img" viewBox="-2.08 -2.08 108.16 34.03"><title>prep-logo.svg</title><g clip-path="url(#clip0_53150_146537)"><path fill="#1479F3" d="M0 6.00098V3.16977C0 1.41806 1.41806 0 3.16977 0H30.2159v26.8302c0 1.7517-1.4181 3.1698-3.1698 3.1698H12.0854v-5.9519h10.9862c.6036 0 1.0942-.4907 1.0942-1.0942V6.00098H0z"/><path fill="#1479F3" d="M0 24.9362v3.1698C0 29.8577 1.41806 30 3.16977 30h2.87537V12.002H0v12.9391-.0049z"/><path fill="#515151" d="M36.2953 23.7831c-.1178-.1178-.1766-.265-.1766-.4367V6.69769c0-.18645.0539-.34347.1668-.46123.1128-.11776.26-.17665.4465-.17665h6.8548c2.0608 0 3.6849.48577 4.8577 1.45732 1.1776.97154 1.7664 2.38469 1.7664 4.24437 0 1.8596-.5888 3.2335-1.7664 4.1806-1.1777.947-2.7969 1.418-4.8577 1.418h-3.7586v5.9863c0 .1864-.0589.3385-.1767.4465-.1177.1128-.2748.1668-.4612.1668h-2.4534c-.1717 0-.314-.0589-.4367-.1815m7.1639-9.2836c.9912 0 1.7419-.2356 2.262-.7017.5201-.4662.7802-1.1531.7802-2.0609 0-.9077-.2503-1.575-.7557-2.07062-.5054-.49558-1.2659-.74092-2.2914-.74092h-3.685v5.57414h3.6899zm10.9914 9.2885c-.1178-.1178-.1767-.265-.1767-.4367V6.69769c0-.18645.054-.34347.1668-.46123.1129-.11776.2601-.17665.4466-.17665h6.6241c2.0952 0 3.739.48577 4.9215 1.45732 1.1825.97154 1.7762 2.35034 1.7762 4.14127 0 1.2464-.2993 2.2866-.8979 3.1306-.5986.8439-1.4328 1.4524-2.5074 1.8302l3.7096 6.5211c.049.103.0785.1963.0785.2797 0 .1521-.054.2797-.1669.3827-.1128.103-.2355.1521-.3729.1521h-2.3503c-.2748 0-.4858-.0638-.6379-.1914-.1521-.1275-.2895-.2944-.4073-.5004l-3.2728-6.0599h-3.5034v6.1384c0 .1717-.0589.314-.1767.4367-.1177.1177-.2747.1766-.4612.1766h-2.3552c-.1718 0-.3141-.0589-.4367-.1766m6.9823-9.4897c1.0255 0 1.791-.2257 2.3013-.6772.5103-.4514.7654-1.1138.7654-1.9823s-.2551-1.5407-.7654-2.00687c-.5103-.47105-1.2807-.70167-2.3013-.70167h-3.5525v5.37294h3.5525v-.0049zm11.5357 9.4946c-.1177-.1178-.1766-.265-.1766-.4367V6.69772c0-.18646.0539-.33857.1668-.46124.1129-.11776.2601-.18155.4465-.18155h11.2807c.1864 0 .3435.05888.4612.18155.1178.11776.1767.27478.1767.46124v1.71246c0 .18646-.0589.33857-.1767.44652-.1177.11285-.2748.16683-.4612.16683h-8.3906v4.47497h7.8263c.1865 0 .3386.0589.4612.1816.1178.1177.1816.2747.1816.4612v1.6094c0 .1865-.0589.3386-.1816.4465-.1177.1129-.2747.1669-.4612.1669h-7.8263v4.627h8.5918c.1864 0 .3385.054.4612.1669.1178.1128.1766.26.1766.4465v1.737c0 .1864-.0588.3386-.1766.4465-.1178.1129-.2748.1668-.4612.1668H73.4102c-.1717 0-.314-.0588-.4367-.1766m17.2129.0049c-.1177-.1178-.1815-.265-.1815-.4367V6.69769c0-.18645.054-.34347.1668-.46123.1129-.11776.2601-.17665.4465-.17665h6.8548c2.0608 0 3.685.48577 4.858 1.45732 1.177.97154 1.766 2.38469 1.766 4.24437 0 1.8596-.589 3.2335-1.766 4.1806-1.178.947-2.7972 1.418-4.858 1.418h-3.7586v5.9863c0 .1864-.0589.3385-.1815.4465-.1178.1128-.2748.1668-.4613.1668h-2.4534c-.1717 0-.314-.0589-.4367-.1815m7.159-9.2836c.9863 0 1.7419-.2356 2.262-.7017.5205-.4662.7805-1.1531.7805-2.0609 0-.9077-.251-1.575-.7559-2.07062-.5054-.49558-1.266-.74092-2.2866-.74092h-3.685v5.57414h3.685z"/><path fill="#FF9E00" d="M17.3112 11.9774H12.9c-.4514 0-.8194.3631-.8194.8194v4.4112c0 .4515.3631.8195.8194.8195h4.4112c.4514 0 .8194-.3631.8194-.8195v-4.4112c0-.4514-.368-.8194-.8194-.8194z"/></g><defs><clipPath id="clip0_53150_146537"><path fill="#fff" d="M0 0h104.097v30H0z"/></clipPath></defs></svg>