<svg xmlns="http://www.w3.org/2000/svg" role="img" viewBox="-1.48 -1.48 76.83 26.83"><title>SF TECH.svg</title><path fill="#D80C24" d="M16.87973 13.4891c-.73138 0-1.27448-.55207-1.27448-1.24938 0-.69735.5431-1.27845 1.27448-1.27845.69518 0 1.24553.5811 1.24553 1.27845 0 .70458-.57207 1.24937-1.24553 1.24937z"/><path d="M11.93385 2.65135c2.33898 0 4.52588.63922 6.37244 1.73608l2.21588-1.73608C18.06008.97338 15.12007 0 11.93385 0 8.77659 0 5.80037.97338 3.3745 2.65135l2.1869 1.73608c1.87553-1.09686 4.06244-1.73608 6.37245-1.73608z"/><path d="M5.5614 19.64165l-2.1869 1.707C5.8076 23.02662 8.7766 24 11.93385 24c3.18622 0 6.13348-.97338 8.58832-2.65135l-2.21588-1.707c-1.8538 1.09686-4.0407 1.707-6.37244 1.707-2.31001 0-4.49692-.61014-6.37244-1.707z"/><path d="M2.61415 12c0-2.30992.63725-4.50364 1.7307-6.39224l-1.7307-2.19371C.9776 5.8547 0 8.80386 0 12c0 3.19614.97035 6.15251 2.61415 8.62227l1.7307-2.22276C3.2514 16.50364 2.61415 14.34627 2.61415 12z"/><path d="M19.55182 18.39224l1.70173 2.22276c1.67276-2.46248 2.64311-5.4189 2.64311-8.62227 0-3.19614-.97035-6.14529-2.64311-8.58595l-1.70173 2.19371c1.09345 1.8886 1.70173 4.08232 1.70173 6.39224 0 2.35354-.60828 4.5109-1.70173 6.3995z"/><path d="M8.08142 17.75305c-1.21656 0-2.2738-.33415-3.21519-1.03873h-.02897v-2.33896l.15207.15256c.23897.33415 1.27449 1.37289 2.94726 1.37289 1.27448 0 1.39759-.9443 1.39759-1.3729 0-.82082-.84724-1.27845-1.79587-1.73608l-.05793-.02904c-1.24553-.61019-2.64312-1.27845-2.64312-3.07262 0-1.64165 1.36863-2.86198 3.2514-2.95642h.23896c1.63656 0 2.46209.61019 2.60691.73366l.02897.02904V9.5013l-.15207-.12347c-.57931-.51576-1.5207-.82083-2.3969-.82083-.39829 0-.76036.0654-.99933.1816-.39103.1816-.5793.48667-.5793.9443 0 .5448.6662.88618 1.48448 1.3075l.15207.05812c1.06449.5811 2.88208 1.4891 2.88208 3.55933 0 .88618-.36207 1.79417-.94138 2.3172-.57207.52289-1.42656.828-2.33173.828z"/><path d="M14.54076 17.8184h-2.03484V7.4237l.05793-.02903c.05793-.02904 1.75967-.69735 3.5483-.69735q1.9407 0 2.91828.72639l.02897.02904v2.00485l-.1231-.08717c-.18104-.12347-1.02828-.73366-2.60691-.7627h-.09414c-.81828 0-1.3976.1816-1.67277.27603l-.02896.02904v8.90561h.00724z"/><path d="M43.8178 20.54237h-1.08622v-1.26391h-3.04863v-.91526h3.04863v-1.31477h-2.22311v-.95884h2.22311v-1.3075h-2.8314v-.91526h2.8314v-1.17675h1.08621v1.17675h2.8314v.91526h-2.8314v1.3075h2.21587v.95884H43.8178v1.31477h3.04864v.91526h-3.04864v1.26391z"/><path d="M28.90772 20.4552h.86897v-7.5908h-.86897v7.5908z"/><path d="M27.24944 12.8644h-.82552v5.41164c0 .79178-.13035 1.17675-.43449 1.39465l.39104.78452c.43448-.2615.82552-.78452.86897-1.8741v-.04359-.26148-5.41163z"/><path d="M32.51395 18.53753v-2.83295h-.82552v2.83295c-.04345.4794-.04345 1.046-1.30346 1.046v.87168h.04345c.86896-.04358 1.39035-.30507 1.65104-.61019.30413.30507.82552.5666 1.65104.61019h.0869v-.87168c-1.26 0-1.30345-.56656-1.30345-1.046z"/><path d="M30.16773 13.73607v-.8281h3.86691v.8281H32.2967l-.26069.61018h1.83209v4.49637h-.91967v-3.66831h-1.69449v3.66831h-.91242v-4.49637h.82552l.2607-.61018h-1.26001z"/><rect width=".869" height="5.935" x="27.64" y="13.387" rx="0"/><g><path fill-rule="evenodd" d="M71.69723 14.82567h1.92622v-.9588h-1.92623v-1.13316h-1.1369v1.13317h-1.73794v.95157h1.73794v.87895h-1.75243v.98788h3.3745c-.23896.50848-.60103.96611-1.07897 1.38016-.47792-.38496-.8762-.83532-1.19483-1.3438l-.89069.53025a8.31982 8.31982 0 0 0 1.20208 1.43824q-.72414.47212-1.62932.84986v1.03147q1.11517-.39228 2.5345-1.23488 1.04276.7482 2.35346 1.1913V19.4601q-.88346-.37047-1.45552-.7482c.61552-.59565 1.0862-1.27846 1.40483-2.04843v-.95885h-1.7307v-.87895zm-4.77933-.69008h-.8762v1.03142h.88345v1.40193l-.96311.1816v1.13317l.9631-.2179v1.42373c0 .13802-.02172.23968-.0724.2978-.0507.05813-.1376.10898-.28242.10898h-.53587v1.03146c.75311 0 1.47725-.08716 1.65105-.26149.16655-.17432.25344-.42858.25344-.77724v-2.07747l.70967-.16705v-1.03874l-.70967.15256v-1.1913h.67346V14.1356h-.67346v-1.39466H66.9179v1.39466z"/></g><g><path fill-rule="evenodd" d="M58.38028 20.54237v-7.78694h1.11518v7.78694h-1.11518zM54.7451 17.2518q.22448.247 1.00656.50848v-1.02415l-1.00656-.69008h1.02828v-1.02419H54.7451v-.99515c.41277-.04358.79656-.09444 1.15139-.14529l-.2969-.9298c-.9269.13074-1.92622.23972-3.01967.32688l.18103.9443.95587-.08716v.88618h-1.12966V16.046h1.09346q-.14483.8644-1.16587 2.00485l-.00724 1.06777q.91965-.82083 1.20931-1.44551v2.86925h1.02828V17.2518zm3.57002-2.81836l-1.33242-1.1114-.65897.67558 1.26 1.16221.73139-.72639zm-.2462 2.01935l-1.35416-1.11863-.67344.69004 1.28173 1.1477.74586-.71911z"/><rect width="4.482" height="1.031" x="55.824" y="17.855" rx="0"/></g><g><path d="M27.23496 5.00485h-1.24553V3.47217h4.04071v1.53268h-1.24552v6h-1.5569v-6h.00724z"/><path d="M30.68187 3.47217h3.54105v1.4891h-2.02035v1.4455h1.91897v1.4891h-1.91897v1.61984h2.12897v1.4891h-3.64967V3.47216z"/><path d="M39.0095 10.8378c-.48518.19613-.98484.29057-1.42657.29057-1.68 0-2.88208-1.3075-2.88208-3.95157 0-2.22276.97759-3.8426 2.87484-3.8426.7531 0 1.26.26876 1.3976.34865l-.07966 1.66342c-.18104-.13801-.63724-.42859-1.12966-.42859-.99208 0-1.45553.8426-1.45553 2.30992 0 1.293.55035 2.28815 1.5207 2.28815.55759 0 .9631-.29057 1.10794-.42132l.07241 1.74336z"/><path d="M42.15227 7.9395h-1.20932v3.06535h-1.5569v-7.5254h1.5569v2.89102h1.20932V3.47944h1.5569v7.5254h-1.5569V7.9395z"/><path d="M45.75125 5.7821h-.03621v5.22275h-1.36139v-7.5254h1.80311l1.51346 5.18644h.01448V3.47944h1.36138v7.5254h-1.82483l-1.47-5.22275z"/><path fill-rule="evenodd" d="M54.56403 7.23487c0-2.79659-1.3107-3.89345-2.5707-3.89345-1.26001 0-2.5707 1.10413-2.56346 3.89345 0 2.79659 1.30345 3.89345 2.56346 3.89345 1.26 0 2.5707-1.09686 2.5707-3.89345zM51.9861 9.68281h-.00725c-.65896 0-.97034-.95884-.97034-2.44794 0-1.46732.31861-2.44793.97759-2.44793.65896 0 .97034.9806.97034 2.44793 0 1.4891-.31862 2.44794-.97034 2.44794z"/><path d="M54.93336 3.47217h1.5569v6h1.9045v1.53268h-3.4614V3.47217z"/><path fill-rule="evenodd" d="M63.60857 7.23487c0-2.79659-1.30345-3.89345-2.56346-3.89345-1.25276 0-2.56346 1.10413-2.56346 3.89345 0 2.79659 1.30346 3.89345 2.56346 3.89345 1.25277 0 2.56346-1.09686 2.56346-3.89345zm-2.5707 2.44794h-.00724c-.65173 0-.97035-.95884-.97035-2.44794 0-1.46732.31862-2.44793.9776-2.44793.65896 0 .97034.9806.97034 2.44793 0 1.4891-.31862 2.44794-.97035 2.44794z"/><path d="M66.60651 6.6465h2.24484v4.06777c-.3331.2179-1.00656.42132-1.74518.42132-1.78139 0-3.12105-1.33658-3.12105-3.84987 0-2.2736 1.02828-3.93703 3.19346-3.93703.7531 0 1.26.19614 1.49897.30507L68.5979 5.2591c-.2969-.24699-.73863-.42132-1.26725-.42132-1.20208 0-1.73794.99516-1.73794 2.46248 0 1.46733.57207 2.30992 1.30346 2.30992.19551 0 .38379-.02904.5069-.13074V8.05569h-.78932V6.6465h-.00724z"/><path d="M70.69068 8.25911L68.9455 3.47217h1.77414l.79656 2.89103h.01449l.7531-2.89103H74l-1.74518 4.78694v2.73851h-1.5569v-2.7385h-.00724z"/></g></svg>