<svg xmlns="http://www.w3.org/2000/svg" xmlns:xlink="http://www.w3.org/1999/xlink" width="384" zoomAndPan="magnify" viewBox="0 0 288 104.249996" height="139" preserveAspectRatio="xMidYMid meet" version="1.0"><metadata/><path fill="#003956" d="M 140.613281 57.308594 C 143.121094 57.046875 145.101562 57.574219 147.609375 58.101562 L 147.609375 66.152344 C 145.890625 66.28125 142.328125 66.808594 139.558594 66.28125 C 134.675781 65.226562 134.675781 58.101562 140.613281 57.308594 Z M 132.960938 47.410156 L 135.203125 49.917969 C 138.765625 46.75 146.683594 45.300781 147.476562 52.03125 C 147.609375 52.820312 147.609375 53.746094 147.609375 54.800781 C 145.628906 54.273438 144.441406 53.746094 141.800781 53.746094 C 132.433594 53.746094 129.925781 61.664062 133.222656 66.546875 C 135.730469 70.242188 140.085938 70.242188 144.042969 70.109375 C 147.871094 69.976562 151.566406 69.054688 151.566406 67.734375 L 151.566406 50.578125 C 151.699219 42.792969 137.972656 40.8125 132.960938 47.410156 Z M 132.960938 47.410156 " fill-opacity="1" fill-rule="evenodd"/><path fill="#003956" d="M 63.148438 52.953125 L 60.773438 52.953125 L 60.773438 34.609375 L 54.96875 34.609375 L 37.8125 54.007812 L 37.8125 58.101562 L 54.703125 58.101562 L 54.703125 69.449219 L 60.773438 69.449219 L 60.773438 58.101562 L 63.148438 58.101562 Z M 46.652344 52.953125 L 54.835938 43.980469 L 54.835938 52.953125 Z M 46.652344 52.953125 " fill-opacity="1" fill-rule="evenodd"/><path fill="#003956" d="M 65.523438 69.449219 L 71.332031 69.449219 L 71.332031 57.96875 L 81.226562 57.96875 C 94.820312 57.96875 95.480469 34.609375 80.570312 34.609375 L 65.523438 34.609375 L 65.523438 52.820312 L 63.148438 52.820312 L 63.148438 58.101562 L 65.523438 58.101562 Z M 81.226562 52.953125 L 70.804688 52.953125 L 70.933594 39.757812 L 79.777344 39.757812 C 87.957031 39.757812 87.167969 52.953125 81.226562 52.953125 Z M 81.226562 52.953125 " fill-opacity="1" fill-rule="evenodd"/><path fill="#3b82c5" d="M 54.703125 73.144531 L 60.773438 73.144531 L 60.773438 83.042969 L 54.703125 83.042969 Z M 54.703125 73.144531 " fill-opacity="1" fill-rule="evenodd"/><path fill="#003956" d="M 217.15625 46.355469 L 217.15625 69.449219 L 221.507812 69.449219 L 221.507812 48.863281 C 221.507812 46.488281 231.40625 46.75 231.40625 50.316406 L 231.40625 69.316406 L 235.761719 69.316406 L 235.761719 50.710938 C 235.761719 46.355469 246.054688 45.960938 246.054688 51.105469 L 246.054688 69.449219 L 250.410156 69.449219 L 250.410156 52.292969 C 250.410156 45.300781 245.527344 43.453125 239.851562 43.453125 C 237.214844 43.453125 235.234375 44.902344 233.652344 45.960938 C 229.03125 42.925781 222.699219 42.265625 217.945312 45.167969 C 217.417969 45.433594 217.15625 45.828125 217.15625 46.355469 Z M 217.15625 46.355469 " fill-opacity="1" fill-rule="evenodd"/><path fill="#003956" d="M 195.90625 62.058594 C 195.90625 50.84375 193.664062 45.035156 206.859375 48.203125 L 206.859375 65.359375 C 203.824219 66.152344 195.90625 67.601562 195.90625 62.058594 Z M 206.464844 69.054688 L 207.257812 68.65625 C 207.257812 70.769531 207.125 75.785156 205.144531 77.105469 C 202.242188 78.820312 197.753906 77.5 194.851562 75.519531 L 192.609375 78.027344 C 196.304688 83.304688 210.6875 83.964844 211.347656 74.070312 C 211.742188 68.921875 211.347656 55.328125 211.347656 48.996094 C 211.347656 46.222656 211.480469 45.5625 210.292969 45.035156 C 208.578125 44.242188 205.144531 43.714844 203.296875 43.585938 C 198.679688 43.1875 194.191406 44.375 192.214844 48.996094 C 191.289062 50.972656 191.554688 53.351562 191.554688 56.121094 C 191.554688 61.929688 191.15625 65.492188 194.589844 68.128906 C 197.492188 69.976562 202.636719 71.035156 206.464844 69.054688 Z M 206.464844 69.054688 " fill-opacity="1" fill-rule="evenodd"/><path fill="#003956" d="M 160.804688 61.796875 C 160.804688 52.164062 159.351562 48.46875 165.421875 47.410156 C 166.742188 47.148438 172.152344 47.542969 172.152344 49.390625 L 172.152344 65.886719 C 170.175781 65.753906 160.804688 67.867188 160.804688 61.796875 Z M 172.152344 44.902344 C 165.292969 41.207031 156.449219 44.507812 156.449219 52.164062 L 156.449219 61.269531 C 156.449219 64.433594 158.164062 67.074219 160.671875 68.527344 C 164.632812 70.902344 170.835938 70.109375 174.925781 68.65625 C 175.847656 68.394531 176.640625 67.867188 176.640625 67.074219 L 176.640625 35.007812 L 172.285156 35.007812 L 172.285156 44.902344 Z M 172.152344 44.902344 " fill-opacity="1" fill-rule="evenodd"/><path fill="#003956" d="M 101.417969 57.308594 C 103.925781 57.046875 105.90625 57.574219 108.414062 58.101562 L 108.414062 66.152344 C 106.699219 66.28125 103.136719 66.808594 100.363281 66.28125 C 95.480469 65.226562 95.480469 58.101562 101.417969 57.308594 Z M 93.765625 47.410156 L 96.007812 49.917969 C 99.570312 46.75 107.488281 45.300781 108.28125 52.03125 C 108.414062 52.820312 108.414062 53.746094 108.414062 54.800781 C 106.433594 54.273438 105.246094 53.746094 102.605469 53.746094 C 91.257812 53.746094 89.9375 65.492188 97.066406 69.1875 C 100.496094 70.902344 112.503906 70.242188 112.503906 67.734375 L 112.503906 50.578125 C 112.503906 42.792969 98.78125 40.8125 93.765625 47.410156 Z M 93.765625 47.410156 " fill-opacity="1" fill-rule="evenodd"/><path fill="#003956" d="M 117.914062 51.105469 L 117.914062 69.449219 L 122.007812 69.449219 L 122.007812 52.558594 C 122.007812 47.28125 126.492188 47.410156 130.054688 47.410156 C 130.054688 42.925781 130.585938 43.320312 127.152344 43.320312 C 122.535156 43.453125 117.914062 46.621094 117.914062 51.105469 Z M 117.914062 51.105469 " fill-opacity="1" fill-rule="evenodd"/><path fill="#003956" d="M 182.050781 43.847656 L 186.40625 43.847656 L 186.40625 69.449219 L 182.050781 69.449219 Z M 182.050781 43.847656 " fill-opacity="1" fill-rule="evenodd"/><path fill="#00aeb0" d="M 65.261719 73.144531 L 71.332031 73.144531 L 71.332031 89.90625 L 65.261719 89.90625 Z M 65.261719 73.144531 " fill-opacity="1" fill-rule="evenodd"/><path fill="#3b82c5" d="M 65.261719 21.019531 L 71.332031 21.019531 L 71.332031 30.914062 L 65.261719 30.914062 Z M 65.261719 21.019531 " fill-opacity="1" fill-rule="evenodd"/><path fill="#00aeb0" d="M 54.703125 14.15625 L 60.773438 14.15625 L 60.773438 30.914062 L 54.703125 30.914062 Z M 54.703125 14.15625 " fill-opacity="1" fill-rule="evenodd"/><path fill="#00aeb0" d="M 182.050781 35.007812 L 186.40625 35.007812 L 186.40625 41.605469 L 182.050781 41.605469 Z M 182.050781 35.007812 " fill-opacity="1" fill-rule="evenodd"/><path fill="#003956" d="M 94.03125 80.140625 L 94.03125 79.082031 L 109.335938 79.082031 L 109.335938 82.382812 L 103.398438 82.382812 L 103.398438 83.703125 L 109.46875 83.703125 L 109.46875 89.90625 L 106.699219 89.90625 L 106.699219 84.890625 L 103.398438 84.890625 L 103.398438 89.90625 L 100.363281 89.90625 L 100.363281 84.890625 L 94.160156 84.890625 L 94.160156 81.195312 L 100.363281 81.195312 L 100.363281 80.140625 Z M 103.664062 75.519531 L 106.566406 75.519531 L 106.300781 75.785156 L 109.867188 75.785156 L 109.867188 76.839844 L 108.675781 76.839844 L 109.867188 78.421875 L 106.960938 78.421875 L 105.90625 76.839844 L 105.773438 76.839844 L 104.585938 78.421875 L 101.683594 78.421875 Z M 95.480469 75.519531 L 93.632812 78.421875 L 96.535156 78.421875 L 97.59375 76.839844 L 97.722656 76.839844 L 98.78125 78.421875 L 101.683594 78.421875 L 100.496094 76.839844 L 101.683594 76.839844 L 101.683594 75.785156 L 98.253906 75.785156 L 98.382812 75.519531 Z M 96.933594 89.90625 L 98.78125 85.550781 L 95.746094 85.550781 L 93.898438 89.90625 Z M 100.363281 83.703125 L 100.363281 82.382812 L 96.933594 82.382812 L 96.933594 83.703125 Z M 103.53125 80.140625 L 103.53125 81.195312 L 106.699219 81.195312 L 106.699219 80.140625 Z M 131.902344 89.90625 L 116.332031 89.90625 L 116.332031 75.652344 L 131.902344 75.652344 Z M 129.132812 88.71875 L 129.132812 76.707031 L 127.679688 76.707031 L 127.679688 84.890625 L 124.910156 84.890625 L 124.910156 76.707031 L 123.589844 76.707031 L 123.589844 84.890625 L 120.820312 84.890625 L 120.820312 76.707031 L 119.101562 76.707031 L 119.101562 88.71875 Z M 147.210938 88.71875 L 154.46875 88.71875 L 154.46875 89.90625 L 144.175781 89.90625 L 144.175781 79.347656 L 153.808594 79.347656 L 153.808594 84.890625 L 148.664062 84.890625 L 148.664062 83.703125 L 150.773438 83.703125 L 150.773438 80.402344 L 147.082031 80.402344 L 147.082031 88.71875 Z M 152.09375 78.421875 L 149.058594 78.421875 L 149.058594 77.632812 L 143.648438 77.632812 L 143.648438 78.421875 L 140.480469 78.421875 L 140.480469 77.632812 L 138.105469 77.632812 L 138.105469 76.574219 L 140.480469 76.574219 L 140.480469 75.785156 L 143.648438 75.785156 L 143.648438 76.574219 L 149.058594 76.574219 L 149.058594 75.785156 L 152.09375 75.785156 L 152.09375 76.574219 L 154.601562 76.574219 L 154.601562 77.632812 L 152.09375 77.632812 Z M 141.539062 89.90625 L 138.238281 89.90625 L 140.085938 85.152344 L 143.386719 85.152344 Z M 140.085938 85.152344 L 143.386719 85.152344 L 141.539062 82.117188 L 138.238281 82.117188 Z M 141.539062 79.214844 L 143.386719 81.589844 L 140.085938 81.589844 L 138.238281 79.214844 Z M 160.804688 78.027344 L 160.804688 76.972656 L 169.515625 76.972656 L 169.117188 75.785156 L 172.417969 75.785156 L 172.8125 76.972656 L 173.472656 76.972656 L 173.078125 75.785156 L 176.375 75.785156 L 176.773438 76.972656 L 177.167969 78.027344 L 173.210938 78.027344 L 177.167969 89.90625 L 173.871094 89.90625 L 169.910156 78.027344 Z M 160.9375 88.585938 L 160.9375 89.773438 L 170.304688 89.773438 L 170.304688 88.585938 L 167.269531 88.585938 L 167.269531 80.402344 L 169.910156 80.402344 L 169.910156 79.347656 L 161.332031 79.347656 L 161.332031 80.402344 L 164.105469 80.402344 L 164.105469 88.585938 Z M 160.9375 88.585938 " fill-opacity="1" fill-rule="evenodd"/></svg>