<svg fill="none" height="706" viewBox="21 30 311.168 39.921" width="2500" xmlns="http://www.w3.org/2000/svg"><g fill="#ff5a00"><path d="m61.535 30h2.772c3.9.218 8.06.95 11.168 3.505 2.476 2.02 3.525 5.446 2.911 8.554-.455 2.297-1.525 4.436-2.673 6.476-2.317 4.02-5.188 7.703-7.901 11.485-.495.614-.871 1.386-.832 2.198.06.634.555 1.148 1.129 1.386 1.109.455 2.356.356 3.525.297 3.722-.396 7.307-1.525 10.851-2.654.258-.158.357.12.456.317-3.763 2.495-7.822 4.594-12.08 6.139-2.356.792-4.851 1.544-7.366 1.248-1.307-.14-2.634-.911-3.05-2.238-.514-1.703-.316-3.604.416-5.228 1.13-2.534 2.892-4.693 4.535-6.89 2.752-3.605 5.584-7.19 7.743-11.209.732-1.406 1.485-3.148.772-4.713-.654-1.445-2.119-2.297-3.505-2.95-2.456-1.09-5.09-1.763-7.683-2.495-.396.264-.786.521-1.168.772.89.693 1.801 1.386 2.693 2.08-3.406.613-6.812 1.306-10.179 2.158-5.109 1.287-10.099 2.99-15.05 4.772.476.97.971 1.94 1.426 2.91-1.128 1.248-2.237 2.496-3.346 3.724a16.45 16.45 0 0 0 8.317.316c2.337-.534 4.554-1.643 6.337-3.247-.496-.614-1.11-1.109-1.763-1.505 2.178.06 4.158 1.94 4.158 4.158h-1.267a8.914 8.914 0 0 0 -.396-1.406c-2.475 2.238-5.663 3.644-8.97 4-2.911.337-5.881-.059-8.634-1.089.198 1.69.383 3.38.555 5.07a15.723 15.723 0 0 0 -4.297 2.554c-1.03.891-2.06 1.92-2.436 3.267-.396 1.188.238 2.535 1.267 3.169 1.248.772 2.713 1.148 4.179 1.346 1.9.258 3.841.238 5.762.1 3.762-.278 7.505-.99 11.168-1.882.357-.139.535.455.159.554-2.931 1.505-5.98 2.773-9.188 3.585-2.99.792-6.08 1.188-9.189 1.287-3.148-.1-6.514-.713-9.01-2.773-1.86-1.504-2.851-3.9-2.851-6.277v-.119c.06-2.514.91-4.95 2.139-7.108 1.604-3.07 3.584-5.941 5.92-8.496 4.04-4.475 9.11-7.92 14.555-10.415 5.663-2.555 11.703-4.396 17.92-4.733z"/><path clip-rule="evenodd" d="m110.129 31.248c4.488 0 8.977-.007 13.465-.02a31496.654 31496.654 0 0 1 17.743 37.307h-13.446c-.911-2.244-1.828-4.489-2.752-6.733h-18.535c-.977 2.244-1.96 4.489-2.951 6.733h-12.118c2.851-5.723 5.722-11.426 8.554-17.149 3.347-6.732 6.713-13.426 10.04-20.138zm6.079 8.91c-2.02 4.502-4.04 8.997-6.059 13.486h11.782c-1.901-4.495-3.822-8.99-5.723-13.485zm28.515-8.91h11.742v37.287h-11.742zm19.109 0h11.762v7.445h-11.762zm19.168.04c3.842-.014 7.683-.014 11.525 0v15.148c2.218-2.416 5.247-4.139 8.554-4.475 2.99-.278 6.159.217 8.713 1.88 1.168.733 2.218 1.704 3.089 2.773 1.802 2.515 2.852 5.584 2.931 8.673.079 2.575-.277 5.228-1.525 7.505a12.175 12.175 0 0 1 -3.307 3.862c-2.297 1.623-5.109 2.594-7.94 2.515-2.654-.02-5.347-.753-7.525-2.298-1.188-.831-2.198-1.861-3.109-2.99v4.654h-11.406c-.013-12.423-.013-24.839 0-37.248zm15.782 16.85c-1.584.357-2.95 1.506-3.604 2.99-.534 1.308-.713 2.734-.752 4.14.02 1.88.297 3.92 1.564 5.425.852 1.149 2.297 1.624 3.644 1.842 1.762.257 3.505-.555 4.673-1.862 1.069-1.01 1.485-2.475 1.703-3.9.178-1.545.119-3.169-.376-4.654-.416-1.327-1.208-2.594-2.396-3.327-1.327-.812-2.971-1.01-4.456-.653zm62.178-16.85c3.842-.014 7.684-.014 11.525 0 0 5.055.007 10.105.02 15.148 1.901-2.06 4.396-3.664 7.188-4.258 2.594-.554 5.366-.336 7.861.555 2.832 1.07 5.248 3.228 6.535 5.96 1.703 3.248 2.06 7.07 1.386 10.634-.455 2.436-1.703 4.713-3.485 6.436-2.02 1.92-4.733 3.049-7.485 3.346-2.852.258-5.842-.257-8.297-1.782-1.485-.891-2.753-2.1-3.842-3.446.02 1.565.02 3.11.02 4.654h-11.465v-13.565c.059-7.9.039-15.802.039-23.683zm15.802 16.85c-1.703.357-3.128 1.664-3.722 3.288-.476 1.287-.634 2.634-.654 4 .06 1.564.238 3.188 1.069 4.554.476.733 1.03 1.446 1.842 1.822 1.248.614 2.693.97 4.079.654 1.545-.357 2.812-1.486 3.683-2.773 1.129-2.198 1.268-4.812.654-7.188-.357-1.406-1.109-2.752-2.317-3.584-1.346-.91-3.069-1.148-4.634-.772zm-44.95-5.88c3.049-.594 6.198-.614 9.287-.456 2.97.218 6.02.673 8.653 2.1 1.307.732 2.496 1.742 3.248 3.029.871 1.465 1.188 3.188 1.208 4.871v16.693h-10.792v-3.802c-1.644 2.178-4.198 3.466-6.832 3.96-2.95.575-6.079.654-8.99-.217-1.426-.456-2.832-1.129-3.901-2.218-1.109-1.109-1.683-2.654-1.762-4.218-.179-2.218.614-4.515 2.257-6.08 2.06-1.96 4.871-2.85 7.624-3.346 3.742-.633 7.564-.713 11.346-.812 0-1.287-.356-2.653-1.326-3.544-.911-.852-2.218-1.129-3.446-1.109-1.049-.02-2.178.218-2.95.97-.495.495-.812 1.149-1.01 1.802h-10.713c.257-1.663.871-3.307 2.02-4.574 1.564-1.723 3.841-2.594 6.079-3.05zm6.139 14.594c-1.248.198-2.575.495-3.525 1.386-1.089 1.01-1.03 3.05.218 3.9.93.615 2.079.674 3.148.634 1.485-.059 3.089-.435 4.099-1.603 1.109-1.208 1.327-2.931 1.307-4.515-1.762 0-3.505 0-5.247.198zm71.94-14.614c3.129-.594 6.337-.594 9.485-.416 2.872.218 5.802.693 8.357 2.06 1.247.692 2.376 1.663 3.148 2.87.852 1.308 1.228 2.892 1.287 4.456v17.287h-10.732c0-1.267-.02-2.554 0-3.822-1.684 2.238-4.337 3.525-7.05 4.02-2.931.535-6 .614-8.871-.297-1.248-.396-2.456-.95-3.465-1.822-1.109-.95-1.842-2.336-2.04-3.782-.277-1.822-.02-3.762.95-5.346 1.03-1.683 2.713-2.872 4.515-3.644 2.713-1.148 5.703-1.485 8.634-1.742 2.337-.179 4.713-.238 7.069-.297-.059-1.208-.336-2.495-1.208-3.406-.891-.931-2.218-1.248-3.445-1.248-1.149-.02-2.376.198-3.188 1.07-.456.475-.713 1.089-.911 1.702h-10.713c.237-1.623.832-3.227 1.94-4.475 1.565-1.822 3.941-2.693 6.238-3.168zm6 14.633c-1.188.179-2.455.476-3.386 1.288-1.168.99-1.149 3.128.158 3.98.99.653 2.258.693 3.406.633 1.426-.099 2.911-.534 3.862-1.643 1.049-1.228 1.307-2.911 1.227-4.475-1.742 0-3.505.02-5.267.217zm-152.059-14.198h11.762v25.862h-11.762z" fill-rule="evenodd"/></g></svg>