<svg width="600" height="229" viewBox="0 0 600 229" fill="none" xmlns="http://www.w3.org/2000/svg">
<g clip-path="url(#clip0_48_7)">
<path d="M495.701 95.1944H488.934C477.043 95.2247 467.391 104.836 467.289 116.749L467.028 157.84H477.729V117.552C477.724 114.522 478.922 111.614 481.059 109.47C483.196 107.326 486.096 106.121 489.12 106.121L494.713 106.214C501.139 106.336 506.29 111.58 506.309 118.019V157.802H517.029V116.506C517.024 110.846 514.773 105.419 510.773 101.422C506.773 97.4249 501.351 95.1846 495.701 95.1944ZM572.957 74.0885V99.9386C567.871 95.2819 561.204 92.7436 554.314 92.8411C536.79 92.8411 523.069 107.092 523.069 125.284C523.069 143.477 536.79 157.859 554.314 157.859C561.184 157.999 567.849 155.514 572.957 150.91V157.336H583.77V74.0885H572.957ZM554.314 103.693C566.861 103.693 572.566 114.9 572.566 125.284C572.566 135.669 566.861 146.876 554.314 146.876C542.867 146.876 533.807 137.388 533.807 125.284C533.807 113.181 542.793 103.637 554.314 103.637V103.693ZM308.583 119.737L304.854 118.934C297.397 117.346 294.75 115.198 294.75 112.079C294.75 108.474 299.727 105.86 304.929 105.86C310.13 105.86 314.604 108.4 314.604 112.808V114.9H327.319V112.808C327.319 101.825 318.202 95.2692 304.947 95.2692C292.382 95.2692 282.054 102.348 282.054 112.079C282.054 120.97 289.306 126.648 301.778 129.412L305.32 130.141C316.375 132.475 317.308 135.744 317.308 138.751C317.308 143.775 312.255 147.287 305.041 147.287C297.826 147.287 292.904 143.084 292.904 137.294V135.202H280.264V137.294C280.264 149.36 290.499 157.84 305.134 157.84C319.768 157.84 330.302 149.827 330.302 138.788C330.227 126.256 319.824 122.221 308.583 119.737ZM410.317 129.263L410.485 130.141C412.405 140.227 420.104 146.951 429.649 146.951C436.752 146.951 442.084 145.475 445.477 142.58L447.957 140.413L455.787 148.258L452.748 150.724C447.043 155.374 439.288 157.728 429.649 157.728C421.778 157.796 414.174 154.865 408.378 149.528C403.176 144.474 399.989 137.695 399.411 130.458L399.299 129.263H410.317ZM429.594 94.3166C437.844 94.5907 445.72 97.8331 451.779 103.45C458.071 109.371 461.475 117.746 461.1 126.386L460.876 131.504H438.729V120.783H449.485C447.138 111.692 438.966 105.331 429.594 105.299C420.142 105.299 412.442 111.948 410.447 121.866L410.28 122.744H399.299L399.467 121.512C401.629 105.523 413.952 94.3166 429.594 94.3166ZM430.563 121.138V130.738H418.259V121.138H430.563ZM240.35 73.248L205.189 157.802H218.743L229.015 130.122H256.252L266.599 157.859H280.059L246.334 73.3228L240.35 73.248ZM252.114 118.915H233.303L242.289 96.7634C242.392 96.5192 242.64 96.3688 242.904 96.3899C243.172 96.3719 243.423 96.5201 243.538 96.7634L252.114 118.915ZM368.24 107.316C373.536 107.67 378.438 110.248 381.737 114.414L382.073 114.844H394.209L393.464 113.256C388.709 103.563 379.014 97.2807 368.24 96.9128V107.316ZM346.577 124.22C347.571 116.038 353.647 109.395 361.696 107.69V97.137C347.639 98.6463 336.711 110.083 335.82 124.22H346.577ZM382.8 138.714L382.464 139.199C377.747 145.704 369.595 148.739 361.782 146.9C353.969 145.06 348.02 138.705 346.689 130.776H335.932C337.479 146.614 349.728 157.802 366.189 157.802C379.146 157.802 389.623 151.228 394.153 140.245L394.787 138.714H382.8Z" fill="#040000"/>
<path d="M152.057 15.7205C154.43 13.1664 158.094 12.2746 161.371 13.4533C164.649 14.6319 166.911 17.6542 167.121 21.137L167.326 73.7711C140.275 83.6517 108.563 105.299 77.5045 140.395L77.4485 140.47L30.338 193.178C27.0877 196.828 22.1407 198.464 17.3604 197.469C12.5801 196.474 8.69273 192.999 7.16272 188.354C5.63271 183.709 6.69245 178.599 9.94275 174.949L128.344 41.3838L152.057 15.7205ZM108.526 126.872C124.913 113.966 144.022 105.038 167.326 107.485L166.319 169.383C166.485 173.571 164.173 177.465 160.421 179.318C156.668 181.172 152.178 180.638 148.963 177.956L108.526 126.872Z" fill="#C31D20"/>
</g>
<defs>
<clipPath id="clip0_48_7">
<rect width="600" height="229" fill="white"/>
</clipPath>
</defs>
</svg>
