<?xml version="1.0" encoding="UTF-8"?>
<svg width="1654.6" height="476.13" version="1.1" viewBox="0 0 1654.6161 476.12656" xmlns="http://www.w3.org/2000/svg" xmlns:cc="http://creativecommons.org/ns#" xmlns:dc="http://purl.org/dc/elements/1.1/" xmlns:rdf="http://www.w3.org/1999/02/22-rdf-syntax-ns#">
<metadata>
<rdf:RDF>
<cc:Work rdf:about="">
<dc:format>image/svg+xml</dc:format>
<dc:type rdf:resource="http://purl.org/dc/dcmitype/StillImage"/>
<dc:title/>
</cc:Work>
</rdf:RDF>
</metadata>
<path d="m1153.5 442.88-0.037-33.25-6.2134 12.07c-6.0102 11.675-15.691 27.497-16.713 27.315-0.275-0.0489-2.4401-2.2546-4.8112-4.9017l-4.3113-4.8129 7.102-9.3354c7.5677-9.9474 17.413-28.567 21.46-40.585l2.4414-7.25h-27.881v-11.941l14.5 0.62626 14.5 0.62627v-13.656c0-15.882 1.1347-14.835-12.604-11.631-4.7746 1.1133-8.9123 1.793-9.1948 1.5105-0.2826-0.28253-1.7326-2.6419-3.2224-5.243l-2.7086-4.7293 20.81-4.1709c17.893-3.5862 27.019-5.9551 34-8.8256 1.1478-0.47193 2.5852 0.86331 5.25 4.8767 4.2115 6.3431 4.2746 6.5574 1.9297 6.5574-0.9569 0-6.1319 0.99051-11.5 2.2011l-9.7603 2.2011v30.872l12-0.49422 12-0.49422v11.714h-24v94h-13l-0.037-33.25zm87.827 8.75c0.3107-15.601 0.1333-24.5-0.4883-24.5-2.596 0-29.965 5.414-38.802 7.6755-5.5 1.4076-10.609 2.619-11.353 2.6919-0.7978 0.0782-2.2365-2.3294-3.5062-5.8674l-2.1532-6 28.006-5 28.006-5v-93.501l6.75 4.3e-4 6.75 4.3e-4v91.038l2.25-0.51241c1.2375-0.28183 6.1482-1.3578 10.913-2.391l8.6628-1.8786 0.6555 3.622c0.3606 1.9921 0.8821 4.5689 1.1591 5.7262 0.4448 1.8586-0.059 2.1798-4.3183 2.7515-2.652 0.35599-8.0843 1.3668-12.072 2.2462l-7.25 1.5989v51.799h-13.698zm-1138.8 16.46c-9.075-3.7372-21.937-8.4993-28.581-10.583l-12.081-3.7878 2.9807-4.795c1.6394-2.6373 3.5402-4.795 4.2241-4.795 1.6862 0 55.603 17.752 57.328 18.875 1.0808 0.70376 0.47442 2.079-2.8702 6.5089-2.3323 3.0891-4.299 5.5615-4.3704 5.4941-0.0714-0.0673-7.5548-3.1801-16.63-6.9172zm1441.5 0.97958c-3.1092-3.9574-4.232-6.0793-3.3539-6.3382 0.7259-0.21403 4.4699-1.1909 8.3199-2.1708 10.136-2.5798 27.268-9.9568 35.214-15.163l2.2436-1.4701-3.1913-4.6385c-5.3014-7.7053-12.544-23.049-16.002-33.902l-3.2637-10.242-4.25-8e-3 -4.25-8e-3v-11.042l16.5 0.67629 16.5 0.67629v-27.31h-36v-11h36.307l-0.6453-12-0.6452-12h13.697l-0.4942 12-0.4942 12h40.274v11h-40v27h17c9.6855 0 17 0.39598 17 0.92032 0 2.0081-6.465 19.092-10.476 27.683-4.2919 9.1925-9.9949 18.378-16.212 26.112l-3.389 4.2156 4.2888 3.1178c7.816 5.6821 31.883 15.951 37.385 15.951 0.857 0-6e-4 2.168-2.3777 6.011-3.4222 5.5325-3.952 5.9693-6.656 5.4874-5.057-0.90116-23.103-10.074-32.555-16.548l-9.0551-6.202-5.334 3.5416c-8.2139 5.4537-20.053 11.18-36.586 17.697l-4.8246 1.9017-4.6738-5.949zm56.331-38.643c5.5402-6.4815 18.132-31.163 18.135-35.547 3e-4 -0.4125-9.6745-0.75-21.5-0.75s-21.5 0.20267-21.5 0.45039c0 1.5396 7.315 20.233 10.017 25.598 3.8318 7.6085 8.7201 14.952 9.9534 14.952 0.4808 0 2.6833-2.1164 4.8944-4.7032zm-1083.3 40.617c-9.6803-6.1391-21.444-20.595-27.949-34.345-5.7658-12.188-10.176-30.724-12.092-50.819l-0.64345-6.75h-31.841v26.305l12.5-0.66825 12.5-0.66825v12.032h-25v30.25l2.78-0.55599c6.1026-1.2205 27.25-3.9902 27.525-3.605 0.16164 0.22604 0.12219 2.9164-0.0877 5.9786l-0.38154 5.5676-13.168 1.7668c-17.549 2.3546-48.572 8.0316-60.725 11.112-5.3932 1.3671-10.184 2.4856-10.646 2.4856s-1.3681-2.5875-2.0136-5.75c-0.6455-3.1625-1.476-6.7625-1.8454-8-0.64284-2.153-0.41895-2.2506 5.1948-2.2636 3.2266-8e-3 6.9394-0.30077 8.2506-0.65167l2.384-0.63802-0.47243-27.848-0.47247-27.848h13.677v27.567c0 25.772 0.11397 27.536 1.75 27.084 0.9625-0.26583 4-0.77845 6.75-1.1392 2.75-0.36071 6.0125-0.89732 7.25-1.1925l2.25-0.53665v-68.855l-23.001 0.28586-23.001 0.28586 8.3e-4 -5.5 8.4e-4 -5.5 44.606 0.35944 44.606 0.35943-0.63749-19.359c-0.35061-10.648-0.87581-21.272-1.1671-23.609l-0.52961-4.25h8.1683c7.3936 0 8.0983 0.16596 7.4307 1.75-0.99846 2.3689-1.9058 39.403-1.049 42.817l0.68259 2.7196 22.445-0.51536 22.445-0.51536v10.745h-45v3.9006c0 6.4228 3.7338 26.074 6.4789 34.099 5.2533 15.358 15.905 33.584 21.935 37.536 4.8695 3.1906 8.647-0.83941 10.113-10.789l0.70052-4.7534 3.3994 2.9847c1.8697 1.6416 4.7663 3.6916 6.4368 4.5554 3.4373 1.7775 3.4794 1.3116-1.2347 13.669-3.4939 9.1589-7.372 13.798-11.535 13.798-1.5966 0-5.0931-1.3889-7.7698-3.0864zm984.98 1.8364c-0.2357-0.6875-1.3464-3.725-2.4681-6.75s-2.0397-5.5617-2.04-5.6372c-3e-4 -0.0754 3.1518-0.31528 7.0047-0.53299 5.5944-0.31611 7.4573-0.84749 9.25-2.6385 2.1659-2.1638 2.2555-2.9977 2.5499-23.717 0.2439-17.164 0.043-21.468-1-21.443-0.7178 0.0174-5.4422 2.1874-10.499 4.8224l-9.1937 4.7909-2.8696-5.7897-2.8697-5.7897 3.0633-1.0344c1.6848-0.56888 7.6715-2.9461 13.304-5.2827l10.24-4.2484 0.01-16.903 0.01-16.903-12 0.60335-12 0.60336v-11.401l12.14 0.33692 12.14 0.33692-0.4838-17.587-0.4838-17.587h12.99l-0.7054 17.598-0.7053 17.598 9.5562-0.34842 9.5562-0.34842-7e-4 5.7702-8e-4 5.7702-9.5-0.66779-9.5-0.66778v14.148c0 7.7812 0.17 14.148 0.3779 14.148 1.0759 0 8.085-3.3248 12.513-5.9355l5.0365-2.9696 0.6237 3.7026c0.3431 2.0364 0.8345 4.4734 1.0921 5.4155 0.3639 1.3311-1.7783 2.8403-9.61 6.7705l-10.078 5.0575 0.077 28.072c0.086 31.361 0.1093 31.244-6.8566 34.798-3.5513 1.8117-14.565 5.0895-17.101 5.0895-0.6254 0-1.3299-0.5625-1.5657-1.25zm-663.89-2.7844c-4.0661-1.2175-7.4551-4.715-8.6152-8.8913-0.5703-2.0529-0.99528-18.578-0.99848-38.824l-6e-3 -35.25h56v-41.244l-31 0.41175-31 0.41175v-11.829l3.125 0.625c1.7188 0.34375 18.594 0.625 37.5 0.625h34.375v71h-13v-8h-43v57.855l2.6349 2.0726c2.4372 1.9171 3.9452 2.0726 20.099 2.0726 21.445 0 22.86-0.47446 26.658-8.9375 1.4347-3.1969 2.6086-6.3713 2.6086-7.0542 0-0.7971 0.80549-1.0287 2.25-0.6469 1.2375 0.32707 4.6196 1.1278 7.5158 1.7793 6.0184 1.3539 5.9956 1.1539 1.2947 11.359-3.3551 7.2839-6.7327 10.786-11.895 12.332-4.5792 1.372-50.038 1.483-54.546 0.13325zm-78.096-6.1021c-0.27574-0.7499-1.3496-3.8568-2.3863-6.9042l-1.885-5.5408 15.624-2.2482c14.506-2.0873 42.815-7.3027 47.21-8.6976 1.7379-0.55158 1.9141-0.0641 1.9141 5.2967v5.9042l-13.75 2.8054c-12.741 2.5996-38.812 8.5822-43.988 10.094-1.461 0.42678-2.4119 0.18039-2.7392-0.70975zm-740.65-19.162-4.6235-5.273 8.0729-2.8595c15.848-5.6136 38.674-18.965 38.674-22.621 0-0.67447-7.4894-0.9248-22.001-0.73538l-22.001 0.28719 9.01e-4 -5.25 9.01e-4 -5.25h45v-11h-29v-9.9412l14.5 0.62626 14.5 0.62627v-13.616l-11.5 0.65681-11.5 0.65682v-10.009h23v-10h13v10h32.258l-0.66327-5-0.66328-5 6.7844-6.2e-4 6.7844-6.2e-4 -0.34651 5.0006-0.34652 5.0006h26.193v9.9347l-13-0.62182-13-0.62183v13.624l17-0.64184 17-0.64184v9.9689h-34v11h48l9.3e-4 5.25 9.3e-4 5.25-21.501-0.28789c-13.157-0.17617-21.501 0.0818-21.501 0.66484 0 1.398 8.5851 7.4208 15.58 10.93 7.143 3.5835 15.324 5.8389 24.581 6.7764l6.6614 0.67467-2.7996 4.621c-1.5398 2.5416-3.1052 5.6335-3.4788 6.871-0.37355 1.2375-1.02 2.25-1.4366 2.25-2.1824 0-16.739-5.6044-24.608-9.4742-11.139-5.4779-17.672-10.425-23.5-17.796l-4.5-5.6908-16.394-0.0197-16.394-0.0198-8.1064 7.7802c-9.3505 8.9742-19.658 16.015-34.776 23.757-5.8683 3.0048-10.818 5.4576-11 5.4506-0.18168-7e-3 -2.4109-2.3855-4.9539-5.2856zm88.124-47.202v-5.5h-32v11h32zm0-21v-6.5h-32v13h32zm-2.5 66.878c-3.85-1.7939-11.5-4.9392-17-6.9895s-10.13-3.8187-10.288-3.9297c-0.5676-0.39724 6.0702-10.403 6.6729-10.059 0.33853 0.19339 7.8155 3.1671 16.616 6.6083 8.8 3.4412 16.278 6.5346 16.618 6.8743 0.33997 0.33967-0.78503 2.8989-2.5 5.6872l-3.1181 5.0696zm657.53-19.496-2.4236-7.1189 2.9468-2.0446c8.1553-5.6584 27.959-28.538 26.213-30.284-0.56358-0.56358-19.029 0.97493-25.838 2.1527l-3.5712 0.61778-2.1116-5.7322-2.1116-5.7322 4.8556-4.7294c7.6779-7.4785 11.298-13.807 26.079-45.586l1.4308-3.0762 6.0769 3.1914 6.0769 3.1914-4.5769 7.0954c-7.4994 11.626-23.551 37.329-23.91 38.286-0.184 0.49051 5.663 0.88863 13.051 0.88863h13.384l4.6381-7.75c2.551-4.2625 5.3762-9.3376 6.2783-11.278l1.6401-3.5279 6.9592 3.4544 6.9592 3.4544-4.3847 4.5735c-2.4116 2.5154-6.5703 7.4985-9.2416 11.074-7.7248 10.338-20.258 25.875-27.257 33.791-3.5456 4.0098-6.2165 7.5206-5.9353 7.8018 0.42096 0.42095 33.399-4.5502 40.241-6.0659 1.846-0.40896 1.9748-3e-3 1.6728 5.2653l-0.32715 5.7084-16.366 2.2995c-9.0015 1.2648-20.92 3.4022-26.487 4.75-5.566 1.3478-10.439 2.4505-10.83 2.4505s-1.8001-3.2035-3.1331-7.1189zm421.67-8.877c-1.5382-2.1743-5.3214-6.9108-8.4072-10.526l-5.6105-6.5723 3.9072-4.0413 3.9071-4.0413 9.6442 10.272 9.6443 10.272-4.6443 4.277c-2.5543 2.3523-4.8692 4.2852-5.1442 4.2953-0.275 0.0101-1.7585-1.7606-3.2966-3.9349zm29.744-14.134c-4.3713-5.0214-9.9372-10.883-12.369-13.026l-4.4206-3.8965 3.4206-3.7127c1.8814-2.042 3.5218-3.8937 3.6453-4.115 0.3635-0.65111 8.0618 5.9366 18.622 15.936l9.8469 9.3235-4.8469 4.2721c-2.6657 2.3496-5.0952 4.2894-5.3989 4.3105-0.3036 0.0211-4.1286-4.07-8.5-9.0914zm4.2562-38.642c-3.6036-4.8004-8.587-11.015-11.074-13.811l-4.5224-5.0832 4.6146-3.8572 4.6145-3.8573 3.9006 4.4404c7.4295 8.4576 18.401 21.445 19.064 22.568 0.5646 0.95574-2.2314 3.3423-8.9039 7.6001-0.7108 0.45358-3.611-2.5624-7.6929-8zm-1198.2-13.728v-13.5h32.25c35.78 0 33.411 0.54173 30.739-7.0303-0.83087-2.355-1.3934-4.3876-1.25-4.5169 0.54668-0.49329 15.27-3.2766 15.598-2.9486 0.18966 0.18966 1.1199 3.4163 2.0671 7.1703l1.7223 6.8255 32.937 0.26284 32.937 0.26285v26.973l-6.75 6.5e-4 -6.75 6.4e-4v-17h-120v17h-13.5zm488.5 2.5-8.5-8.5 4.2575-4.4389 4.2575-4.4389 3.7425 3.4255c8.8298 8.0819 14.242 13.431 14.242 14.075 0 0.38007-2.1375 2.4204-4.75 4.5342l-4.75 3.8431zm-109-8.25 7e-5 -5.75h60l-1e-4 5.75-1e-4 5.75h-60zm-360.75-69.267c-14.201-3.0848-27.42-13.056-32.749-24.702-6.2346-13.625-6.0013-9.3173-6.0013-110.78 0-85.223 0.13923-93.043 1.7697-99.397 3.9085-15.233 12.215-25.907 24.816-31.891 12.824-6.0895 11.425-5.9833 84.664-6.4293l67.25-0.40956v35.127l-63.75 6e-3c-43.191 4e-3 -65.025 0.35951-67.703 1.1031-5.1247 1.4228-10.079 6.4396-11.473 11.618-0.77786 2.8888-1.0268 30.147-0.8396 91.94 0.26296 86.802 0.29055 87.88 2.3498 91.833 1.3285 2.5502 3.6844 4.9062 6.5 6.5l4.4163 2.5 65.25 0.27783 65.25 0.27783v33.944l-66.75-0.0795c-52.245-0.0622-68.108-0.3745-73-1.4371zm209.75-0.05c-18.827-4.0771-31.328-16.202-36.615-35.513-2.4015-8.7721-2.4645-30.897-0.11294-39.645 5.3372-19.855 17.776-31.559 37.935-35.694 6.3005-1.2924 15.293-1.5811 49.25-1.5811h41.542v33.897l-41.25 0.30126-41.25 0.30125-4.5 2.5c-6.6269 3.6816-9.0063 8.972-8.978 19.962 0.0342 13.28 3.6769 19.204 13.478 21.919 2.5929 0.71817 17.04 1.1099 41.068 1.1135 41.238 6e-3 45.122-0.46087 49.771-5.9855 5.0598-6.0132 5.161-7.1308 5.161-57.009 0-42.143-0.16634-46.931-1.7752-51.099-2.1811-5.6511-4.9685-8.3697-10.629-10.367-3.7079-1.3082-12.564-1.5338-60.222-1.5338h-55.874v-34h58.84c55.35 0 59.299 0.11733 66.575 1.9782 18.953 4.8473 30.083 15.886 35.31 35.022 1.5977 5.8487 1.7756 11.861 1.7756 60 0 48.154-0.17754 54.15-1.7768 60-2.5794 9.4362-6.5356 16.704-12.223 22.454-6.2012 6.2694-13.062 10.004-23.085 12.568-7.1587 1.8309-11.017 1.9722-51.825 1.8986-33.915-0.0611-45.59-0.40435-50.59-1.4871zm175-95.433v-97l90.25 0.0174c98.019 0.0189 97.528-6e-3 109.41 5.5904 7.6328 3.5943 17.135 13.096 20.729 20.729 5.5063 11.693 5.5716 12.784 5.5904 93.413l0.0174 74.25h-33.95l-0.27505-73.25-0.27505-73.25-2.3679-4.1321c-1.3676-2.3866-4.1134-5.1324-6.5-6.5-3.9847-2.2834-4.9972-2.3791-28.382-2.6823l-24.25-0.31439v160.13h-34v-160h-62v160h-34zm298.32 95.009c-17.625-4.6198-28.345-14.487-34.059-31.348l-2.7653-8.1608-0.27785-116.75-0.27784-116.75h34.006l0.27481 112.75c0.25845 106.04 0.38189 112.99 2.0726 116.74 5.0111 11.112 6.8725 11.515 53.134 11.508 24.029-4e-3 38.476-0.39531 41.068-1.1135 5.7234-1.5852 9.4563-4.5736 11.595-9.282 1.7334-3.8169 1.8615-7.4363 1.8615-52.599s-0.1281-48.782-1.8615-52.599c-2.1383-4.7084-5.8712-7.6968-11.595-9.282-2.6114-0.7233-17.625-1.1098-43.25-1.1135l-39.25-6e-3v-34h42.84c39.409 0 43.459 0.15843 50.575 1.9782 18.697 4.7818 29.797 15.831 35.264 35.102 1.6592 5.8483 1.8214 11.185 1.8214 59.92 0 48.859-0.15912 54.064-1.8342 60-4.0785 14.454-12.475 25.326-23.886 30.929-11.502 5.648-15.702 6.04-64.28 5.9984-39.787-0.0341-44.687-0.21781-51.176-1.9187zm175.92-73.259c0.39264-82.784 0.17711-79.798 6.7319-93.275 3.4166-7.0248 11.184-15.154 18.05-18.891 9.3206-5.0729 18.302-6.5838 39.137-6.5838h18.84v34h-15.057c-8.2814 0-17.108 0.51635-19.614 1.1474-5.5989 1.4098-10.472 6.0514-12.117 11.54-0.90007 3.0042-1.2117 22.469-1.2117 75.678v71.634h-35.115zm115.76-21.75v-97h35v194h-35zm111.5 95.125c-19.097-4.7142-30.549-16.268-35.565-35.881-1.7896-6.997-1.9346-11.417-1.9346-58.957 0-43.828 0.2393-52.452 1.6255-58.59 3.3675-14.911 11.276-25.77 23.408-32.146 11.937-6.2726 14.557-6.5147 70.716-6.5341l50.25-0.01736v34l-47.25 6e-3c-31.388 4e-3 -48.585 0.37626-51.228 1.1098-5.0974 1.4152-10.992 7.3097-12.407 12.407-1.5235 5.4878-1.5235 93.467 0 98.955 1.4152 5.0975 7.3097 10.992 12.407 12.407 2.6423 0.73354 19.839 1.1061 51.228 1.1098l47.25 5e-3v34l-50.75-0.0736c-44.555-0.0646-51.604-0.28453-57.75-1.8016zm175.87 0.41097c-14.167-3.144-26.508-12.271-32.185-23.803-6.01-12.208-6.1596-13.951-6.1596-71.733 0-43.472 0.2613-53.609 1.5196-58.947 4.6451-19.708 17.838-32.531 37.739-36.68 10.792-2.2502 97.043-1.5007 104.01 0.90379 18.526 6.3958 29.194 18.383 33.204 37.311 2.2613 10.674 2.1664 105.54-0.1157 115.72-4.1525 18.508-14.635 30.047-33.089 36.422-4.1548 1.4353-11.086 1.6914-51.797 1.9138-36.711 0.20051-48.341-0.0409-53.126-1.1027zm92.103-33.651c5.0974-1.4152 10.992-7.3097 12.407-12.407 0.7301-2.6297 1.1061-19.249 1.1098-49.046 0.01-50.725-0.2239-52.792-6.4921-58.295-1.9118-1.6786-5.2902-3.5405-7.5075-4.1376-2.6702-0.71901-17.278-0.98646-43.263-0.79208-39.179 0.29309-39.237 0.29664-43.364 2.6614-2.3866 1.3676-5.1324 4.1134-6.5 6.5l-2.3679 4.1321v99l2.3443 4.0901c2.3529 4.1053 6.0491 6.9401 10.998 8.4352 4.2209 1.2751 77.987 1.1495 82.635-0.14069zm82.522-61.885v-97h66.84c63.321 0 67.247 0.10416 74.575 1.9782 18.476 4.7253 29.658 15.989 35.264 35.522 1.5457 5.3849 1.7588 13.715 2.0791 81.25l0.3569 75.25h-35.115v-71.634c0-53.209-0.3117-72.674-1.2117-75.678-1.6445-5.4887-6.5181-10.13-12.117-11.54-3.1004-0.7807-19.278-1.1474-50.614-1.1474h-46.057v160h-34zm-467-155.5v-22.5h44v45h-44z" fill="#2e76b7"/>
</svg>
