<svg width="2075" height="320" viewBox="0 0 2075 320" fill="none" xmlns="http://www.w3.org/2000/svg">
<path d="M299.61 160.399H258.11C259.248 224.563 263.114 230.238 247.367 248.048C228.708 260.669 214.359 259.957 160.243 257.627V302.385C200.833 301.835 228.264 304.046 258.901 311.026C285.932 318.717 310.093 323.561 316.699 316.743C323.543 310.163 318.659 296.635 311.901 269.407C303.822 235.491 299.046 204.067 299.599 163.635" fill="#76B900"/>
<path d="M20.3902 159.601H61.889C60.752 95.437 56.886 89.762 72.632 71.952C91.292 59.331 105.641 60.043 159.756 62.373V17.6153C119.167 18.1655 91.736 15.954 61.099 8.97447C34.068 1.28297 9.90719 -3.56063 3.30109 3.25707C-3.54321 9.83747 1.34099 23.3651 8.09859 50.593C16.1775 84.509 20.9534 115.933 20.4011 156.364" fill="#76B900"/>
<path d="M287.556 154.11C276.066 154.11 267.261 154.164 257.558 154.11C256.746 113.408 260.601 83.9699 247.443 71.9849C235.412 58.8879 206.431 62.7399 165.571 61.9309V31.9087C197.822 31.6498 229.661 27.7555 250.941 25.2852C272.535 22.8148 285.542 21.941 291.531 28.0683C297.682 34.0339 296.815 47.0009 294.335 68.4999C291.855 89.6869 287.773 119.417 287.524 151.553" fill="#04345C"/>
<path d="M32.0763 166.073C43.566 166.073 52.371 166.019 62.074 166.073C62.887 206.775 59.031 236.192 72.189 248.177C84.221 261.273 113.201 257.422 154.061 258.231V288.253C121.81 288.512 89.971 292.406 68.691 294.877C47.097 297.347 34.091 298.221 28.1018 292.093C21.9506 286.128 22.8171 273.161 25.297 251.662C27.777 230.475 31.8597 200.744 32.1088 168.608" fill="#04345C"/>
<path fill-rule="evenodd" clip-rule="evenodd" d="M198.905 187.174C198.905 192.891 194.259 197.519 188.519 197.519H131.978C126.238 197.519 121.592 192.891 121.592 187.174V130.852C121.592 125.135 126.238 120.507 131.978 120.507H188.519C194.248 120.507 198.905 125.135 198.905 130.852V187.174Z" fill="#76B900"/>
<path d="M418 234.011V78.6789C418 74.0339 419.251 70.4369 421.778 67.9099C424.328 65.3599 427.833 63.2659 432.271 61.6269C441.786 58.4849 451.892 56.4359 462.59 55.4799C473.243 54.5009 482.803 53.9999 491.248 53.9999C508.592 53.9999 524.298 56.1169 538.388 60.3289C552.454 64.5409 564.54 71.0519 574.625 79.8399C584.708 88.6269 592.493 99.6459 598.001 112.873C603.509 126.146 606.264 141.9 606.264 160.113C606.264 177.871 603.622 193.351 598.319 206.556C593.016 219.782 585.436 230.869 575.58 239.886C565.723 248.879 553.91 255.595 540.139 260.034C526.391 264.473 511.187 266.682 494.479 266.682C490.701 266.682 486.355 266.566 481.507 266.364C476.656 266.159 471.603 265.68 466.392 264.973C461.178 264.268 455.988 263.426 450.822 262.469C445.611 261.491 440.784 260.124 436.37 258.393C424.147 253.749 418.024 245.6 418.024 233.99L418 234.011ZM475.815 102.241V218.099C478.318 218.531 481.346 218.896 484.919 219.214C488.492 219.556 491.794 219.714 494.8 219.714C502.4 219.714 509.365 218.599 515.693 216.39C522.045 214.183 527.485 210.745 532.06 206.078C536.59 201.433 540.139 195.378 542.689 187.956C545.216 180.534 546.467 171.61 546.467 161.206C546.467 141.263 541.824 126.26 532.515 116.152C523.205 106.021 510.777 100.944 495.186 100.944C492.044 100.944 488.881 101.057 485.671 101.263C482.461 101.467 479.183 101.809 475.838 102.241H475.815ZM649.906 74.6489C652.84 70.6189 656.778 66.9539 661.787 63.6529C666.795 60.3519 672.963 58.7129 680.314 58.7129C688.964 58.7129 696.021 60.4649 701.437 63.9719C706.832 67.5229 711.977 74.1479 716.87 83.8919L744.457 139.441H746.392C749.534 132.634 752.266 126.373 754.608 120.682C756.954 115.013 759.23 109.367 761.439 103.721C763.645 98.0749 765.99 92.2019 768.424 86.0779C770.862 79.9759 773.638 72.9639 776.78 65.0419C780.787 63.1059 785.225 61.5579 790.094 60.4199C794.966 59.2819 799.632 58.7129 804.094 58.7129C811.879 58.7129 818.478 60.7839 823.873 64.9049C829.292 69.0029 832 75.1269 832 83.2539C832 85.9639 831.432 89.2189 830.293 92.9979C829.155 96.7769 826.605 102.515 822.666 110.141C818.73 117.791 812.902 128.149 805.209 141.24C797.537 154.33 787.136 171.382 774.025 192.395V260.01C771.522 260.649 767.765 261.309 762.759 261.946C757.706 262.582 752.742 262.924 747.873 262.924C737.698 262.924 730.05 261.217 724.904 257.802C719.762 254.409 717.188 247.149 717.188 235.991V191.12C711.635 182.902 705.649 173.795 699.207 163.847C692.766 153.875 686.461 143.653 680.314 133.203C674.123 122.754 668.341 112.509 662.994 102.424C657.643 92.3379 653.274 83.0949 649.927 74.6489H649.906ZM899.93 240.022V73.6459C903.07 69.1839 907.85 65.8369 914.29 63.6059C920.74 61.3979 927.59 60.2829 934.85 60.2829C943.06 60.2829 950.89 61.6029 958.32 64.2209C965.71 66.8159 971.63 72.6449 976.12 81.7279L1009.39 148.843C1012.76 155.673 1015.74 162.161 1018.41 168.262C1021.09 174.386 1023.94 181.467 1026.97 189.48L1028.76 189.162C1027.9 177.141 1027.33 165.143 1027.06 153.168C1026.78 141.216 1026.65 129.264 1026.65 117.357V63.4239C1029.15 62.7869 1032.88 62.1039 1037.87 61.3979C1042.83 60.6919 1047.75 60.3279 1052.62 60.3279C1062.38 60.3279 1069.8 62.0579 1074.88 65.5419C1079.96 69.0019 1082.5 76.1509 1082.5 86.9869V258.075C1079.36 261.217 1074.88 263.607 1069.05 265.246C1063.2 266.839 1056.15 267.66 1047.88 267.66C1039.67 267.66 1031.93 266.453 1024.69 264.018C1017.43 261.58 1011.46 255.708 1006.8 246.417L973.82 179.304C970.45 172.474 967.47 165.963 964.8 159.793C962.16 153.601 959.25 146.566 956.11 138.666L954.17 138.985C955.04 151.006 955.54 163.208 955.65 175.639C955.74 188.023 955.79 200.18 955.79 212.11V263.789C953.28 264.425 949.57 265.088 944.61 265.724C939.63 266.361 934.69 266.702 929.82 266.702C924.92 266.702 920.6 266.384 916.89 265.724C913.16 265.088 910.08 263.744 907.65 261.74C905.21 259.737 903.32 257.028 901.96 253.612C900.59 250.199 899.93 245.689 899.93 240.067V240.022ZM1159.8 246.668C1159.8 243.528 1160.23 240.41 1161.09 237.336C1161.96 234.217 1162.98 230.551 1164.15 226.338C1165.69 220.398 1167.83 212.975 1170.56 204.119C1173.34 195.218 1176.39 185.61 1179.76 175.32C1183.13 165.03 1186.66 154.444 1190.39 143.561C1194.12 132.679 1197.65 122.434 1201.02 112.782C1204.39 103.129 1207.44 94.5459 1210.21 87.0329C1212.99 79.4749 1215.13 73.7149 1216.63 69.7079C1220.41 67.5449 1226.15 65.4509 1233.77 63.3789C1241.42 61.3069 1249.14 60.2829 1256.92 60.2829C1267.94 60.2829 1277.75 61.9219 1286.31 65.1779C1294.87 68.4099 1300.4 73.4419 1302.9 80.2939C1306.91 91.7459 1311.23 105.155 1315.88 120.499C1320.52 135.821 1325.19 151.621 1329.83 167.921C1334.52 184.222 1339.07 200.317 1343.51 216.208C1347.95 232.076 1351.77 246.124 1355 258.349C1352.3 261.489 1348.29 263.995 1342.99 265.838C1337.68 267.66 1331.4 268.57 1324.14 268.57C1318.83 268.57 1314.35 268.136 1310.69 267.271C1307 266.406 1303.97 265.086 1301.63 263.287C1299.31 261.512 1297.42 259.167 1295.94 256.3C1294.48 253.432 1293.23 250.108 1292.16 246.329L1286.15 223.401H1226.03C1224.3 230.004 1222.55 236.857 1220.78 243.96C1219 251.041 1217.18 257.939 1215.32 264.655C1212.17 265.725 1208.89 266.659 1205.48 267.432C1202.07 268.16 1197.92 268.547 1193.05 268.547C1181.81 268.547 1173.46 266.635 1167.97 262.811C1162.51 258.962 1159.8 253.568 1159.8 246.623V246.668ZM1235.62 178.416H1276.88C1273.75 166.396 1270.58 154.717 1267.42 143.334C1264.21 131.973 1261.25 121.729 1258.54 112.599H1256.61C1253.46 121.933 1249.96 132.315 1246.11 143.744C1242.26 155.149 1238.76 166.692 1235.62 178.416ZM1426.38 246.031L1436.12 76.3779C1437.87 73.4409 1441.77 70.3449 1447.77 67.0439C1453.78 63.7429 1462.18 62.1039 1472.99 62.1039C1484.83 62.1039 1494.07 63.9249 1500.72 67.5679C1507.36 71.2099 1512.21 77.1299 1515.22 85.3709C1517.2 90.6749 1519.36 96.7539 1521.73 103.629C1524.09 110.505 1526.46 117.608 1528.81 124.938C1531.15 132.246 1533.43 139.486 1535.64 146.703C1537.84 153.92 1539.82 160.431 1541.55 166.259H1543.17C1548.47 147.659 1553.8 129.628 1559.15 112.189C1564.5 94.7499 1569.41 80.1799 1573.9 68.4779C1577.27 66.7479 1581.52 65.2679 1586.69 63.9929C1591.9 62.7639 1597.68 62.1489 1604.06 62.1489C1614.89 62.1489 1623.75 63.7429 1630.62 66.9529C1637.52 70.1179 1641.55 74.6929 1642.73 80.6809C1643.59 85.1199 1644.51 91.9499 1645.5 101.148C1646.49 110.368 1647.56 120.727 1648.69 132.246C1649.81 143.766 1650.9 155.991 1652.01 168.9C1653.08 181.785 1654.13 194.148 1655.16 206.008C1656.2 217.87 1657.05 228.728 1657.71 238.586C1658.34 248.445 1658.78 256.026 1659 261.33C1655.22 263.494 1651.27 265.088 1647.12 266.134C1643.03 267.157 1637.77 267.66 1631.37 267.66C1622.93 267.66 1615.85 266.224 1610.11 263.358C1604.35 260.489 1601.26 254.843 1600.83 246.396C1599.53 222.241 1598.71 200.522 1598.32 181.239C1597.91 161.956 1597.39 145.769 1596.75 132.656H1595.13C1592.97 141.307 1589.76 152.189 1585.48 165.28C1581.2 178.416 1576.08 195.149 1570.14 215.525C1567.2 218.029 1563.49 219.963 1559.01 221.352C1554.51 222.764 1549.22 223.471 1543.17 223.471C1535.16 223.471 1528.56 222.469 1523.34 220.466C1518.13 218.462 1514.78 215.024 1513.26 210.152C1507.09 190.641 1502.01 174.864 1498.01 162.776C1494 150.687 1490.86 140.123 1488.59 131.017H1486.97C1486.33 144.108 1485.83 156.014 1485.49 166.737C1485.17 177.46 1484.97 187.932 1484.85 198.154C1484.76 208.422 1484.53 218.735 1484.22 229.117C1483.87 239.52 1483.37 251.064 1482.74 263.72C1479.8 264.791 1476.02 265.724 1471.38 266.497C1466.73 267.226 1462.07 267.615 1457.42 267.615C1447.66 267.615 1440.06 266.066 1434.6 262.992C1429.11 259.918 1426.38 254.251 1426.38 246.031ZM1744.18 235.287V59.6689C1746.69 59.2359 1750.58 58.6219 1755.88 57.8249C1761.21 56.9819 1766.31 56.5729 1771.18 56.5729C1776.26 56.5729 1780.76 56.9819 1784.68 57.8249C1788.57 58.6219 1791.83 60.0329 1794.47 62.0359C1797.1 64.0399 1799.11 66.7939 1800.47 70.3009C1801.84 73.8519 1802.5 78.4739 1802.5 84.2109V260.01C1800 260.649 1796.17 261.309 1791.01 261.946C1785.79 262.582 1780.65 262.924 1775.57 262.924C1770.5 262.924 1765.99 262.561 1762.07 261.809C1758.16 261.036 1754.88 259.648 1752.24 257.644C1749.6 255.64 1747.6 252.884 1746.23 249.379C1744.87 245.826 1744.21 241.138 1744.21 235.287H1744.18ZM1879.73 243.344C1879.73 240.204 1880.17 237.086 1881.03 234.012C1881.9 230.893 1882.92 227.227 1884.13 223.014C1885.63 217.074 1887.77 209.651 1890.55 200.795C1893.28 191.894 1896.33 182.286 1899.7 171.996C1903.07 161.706 1906.62 151.12 1910.37 140.237C1914.11 129.355 1917.63 119.11 1921 109.458C1924.37 99.8049 1927.42 91.2219 1930.2 83.7089C1932.93 76.1509 1935.07 70.3909 1936.57 66.3839C1940.39 64.2209 1946.11 62.1269 1953.71 60.0549C1961.36 57.9829 1969.08 56.9589 1976.86 56.9589C1987.92 56.9589 1997.73 58.5979 2006.29 61.8539C2014.83 65.0859 2020.34 70.1179 2022.84 76.9699C2026.85 88.4219 2031.19 101.831 2035.86 117.175C2040.5 132.497 2045.16 148.297 2049.81 164.597C2054.46 180.898 2059.01 196.993 2063.46 212.884C2067.87 228.752 2071.74 242.8 2075 255.025C2072.29 258.165 2068.29 260.671 2062.98 262.514C2057.67 264.336 2051.39 265.246 2044.13 265.246C2038.85 265.246 2034.36 264.812 2030.65 263.947C2026.98 263.082 2023.98 261.762 2021.63 259.963C2019.29 258.188 2017.4 255.843 2015.94 252.976C2014.46 250.108 2013.19 246.784 2012.12 243.005L2006.11 220.077H1945.99C1944.26 226.68 1942.51 233.533 1940.74 240.636C1938.96 247.717 1937.14 254.615 1935.27 261.331C1932.13 262.401 1928.88 263.335 1925.49 264.108C1922.07 264.836 1917.93 265.223 1913.06 265.223C1901.79 265.223 1893.41 263.311 1887.97 259.487C1882.49 255.638 1879.76 250.244 1879.76 243.299L1879.73 243.344ZM1955.6 175.092H1996.87C1993.73 163.072 1990.56 151.393 1987.35 140.01C1984.14 128.649 1981.21 118.405 1978.52 109.275H1976.54C1973.4 118.609 1969.92 128.991 1966.09 140.42C1962.25 151.825 1958.74 163.368 1955.6 175.092Z" fill="#04345C"/>
</svg>
