<?xml version="1.0" encoding="utf-8"?>
<!-- Generator: Adobe Illustrator 25.0.1, SVG Export Plug-In . SVG Version: 6.00 Build 0)  -->
<svg version="1.1" id="图层_1" xmlns="http://www.w3.org/2000/svg" xmlns:xlink="http://www.w3.org/1999/xlink" x="0px" y="0px"
	 viewBox="0 0 127.7 57.5" style="enable-background:new 0 0 127.7 57.5;" xml:space="preserve">
<style type="text/css">
	.st0{fill:#E73828;}
</style>
<g>
	<g>
		<path id="svg_24_8_" class="st0" d="M11.9,1.3C16,6.9,10.6,14.6,2,27.7c-8.6,13.1,13.6,19.8,15,20.4c1.4,0.6-10.7-5.9-8.2-13.8
			c2.6-7.9,8.9-12.7,10.1-18.7C20.1,9.6,7.7-4.3,11.9,1.3L11.9,1.3z"/>
	</g>
	<g>
		<path id="svg_24_7_" class="st0" d="M24,18.3c2.4,3.2-0.7,7.6-5.7,15.2c-4.2,6.3,0.4,10.7,2.4,12.2c0.4,0.3,2.2,1.5,2.2,1.5
			s-2.7-4.6-0.7-9.9c1.7-4.5,5.1-7.3,5.8-10.7C28.7,23,21.6,15,24,18.3L24,18.3z"/>
	</g>
	<g>
		<g>
			<path class="st0" d="M31.8,20.6h9.8v3.1h-6.4v4.5h6.2v3.1h-6.2v4.3h6.4v3.1h-9.8V20.6z"/>
			<path class="st0" d="M44.4,25.2h3v1.2c0.5-0.5,1.7-1.6,3.7-1.6c1.2,0,3,0.5,4.1,1.9c1.3,1.5,1.3,3.8,1.3,4.8v7.4h-3.3v-6.7
				c0-1.1,0-4.4-2.8-4.4c-0.6,0-1.6,0.3-2.2,1.2c-0.6,0.8-0.6,2.3-0.6,3.4v6.5h-3.3V25.2z"/>
			<path class="st0" d="M59.4,28.1h-1.2v-2.9h1.2c0.1-0.9,0.2-2.6,1.6-3.8c0.8-0.7,1.8-1.1,2.9-1.1h0.9v3.2c-1.3,0-2,0-2.1,1.7h1.9
				v2.9h-1.9v10.8h-3.3V28.1z"/>
			<path class="st0" d="M66.7,20.6H70v18.2h-3.3V20.6z"/>
			<path class="st0" d="M86.4,38.8h-3v-1.7c-1,1.2-3.1,2.1-4.8,2.1c-3.5,0-6.6-2.8-6.6-7.4c0-4.2,3.1-7.2,6.8-7.2
				c2.8,0,4.4,2,4.5,2.2h0v-1.7h3V38.8z M79.3,27.7c-2.7,0-4.1,2.3-4.1,4.4c0,2.3,1.7,4.2,4.1,4.2c2.3,0,4-1.8,4-4.3
				C83.3,29.2,81.2,27.7,79.3,27.7z"/>
			<path class="st0" d="M88.9,25.2h3v1.2h0c0.3-0.4,1.2-1.6,3.6-1.6c0.7,0,2.7,0.2,3.9,2.1c1.4-2,3.4-2.1,4.4-2.1
				c2.7,0,4,1.4,4.5,2.1c0.5,0.7,1,2,1,4v8h-3.3v-7.6c0-0.8,0-3.5-2.6-3.5c-0.9,0-1.8,0.5-2.3,1.3c-0.5,0.7-0.5,1.9-0.5,2.8v7.1
				h-3.3v-7.6c0-1.9-0.7-3.5-2.7-3.5c-2.6,0-2.6,2.9-2.6,4.3v6.8h-3.3V25.2z"/>
			<path class="st0" d="M114.9,33.5c0.1,0.9,1.4,2.8,3.8,2.8c1.5,0,2.5-0.6,3.1-1.7h3.4c-0.8,2.5-3.4,4.7-6.6,4.7
				c-4.2,0-7.2-3.2-7.2-7.2c0-3.9,2.9-7.3,7.2-7.3c4.5,0,7.1,3.7,7.1,7.1c0,0.6-0.1,1.2-0.2,1.6H114.9z M122.3,30.9
				c-0.4-2.2-1.9-3.1-3.7-3.1c-1.3,0-3.2,0.6-3.9,3.1H122.3z"/>
		</g>
	</g>
	<g>
		<path class="st0" d="M37.8,47c0,1.2-0.2,2.7-0.6,3.7l-0.8-0.4c0.4-0.8,0.6-2.3,0.6-3.4L37.8,47z M39.9,55.1
			c-0.2-0.4-0.6-1.2-1-1.8c-0.3,1.3-0.8,2.5-1.8,3.5c-0.2-0.3-0.6-0.7-0.8-0.8c1.6-1.9,1.8-4.4,1.8-6.9v-4.9h1.1v4.9v0.3
			c0.3-0.8,0.6-2,0.7-2.9l1,0.3c-0.4,1-0.7,2.1-1,2.9l-0.7-0.3c0,0.8,0,1.6-0.1,2.4c0.4,0.5,1.4,2,1.6,2.4L39.9,55.1z M42.6,54.4
			c0.3,0.1,0.5,0.4,0.9,0.6c0.7,0.4,1.5,0.6,2.7,0.6c0.9,0,2.4-0.1,3.3-0.2c-0.1,0.3-0.3,0.9-0.3,1.2c-0.8,0-2.2,0.1-3.1,0.1
			c-1.2,0-2.1-0.2-2.8-0.7c-0.5-0.3-0.9-0.7-1.1-0.7c-0.4,0-0.9,0.8-1.3,1.6L40,55.8c0.5-0.6,1-1,1.5-1.3v-4.7h-1v-1h2.1V54.4z
			 M41.6,47.8c-0.2-0.7-0.6-1.7-0.9-2.5l1-0.3c0.4,0.8,0.8,1.8,1,2.4L41.6,47.8z M48.7,53.6c-0.2-0.5-0.7-1.2-1.2-1.8
			c0.1,1.3-0.1,2.4-0.4,2.9c-0.3,0.4-0.7,0.6-1.2,0.6c-0.2,0-0.5,0-0.8,0c0-0.3-0.1-0.8-0.3-1.1c0.3,0,0.6,0.1,0.8,0.1
			c0.2,0,0.4,0,0.5-0.3c0.2-0.3,0.3-0.9,0.3-1.8c-0.9,0.8-2,1.6-3,2c-0.2-0.3-0.5-0.6-0.7-0.8c1.3-0.5,2.7-1.4,3.6-2.4
			c0-0.2-0.1-0.5-0.2-0.7c-0.7,0.6-1.7,1.3-2.4,1.6c-0.2-0.2-0.5-0.6-0.7-0.8c0.9-0.4,2.1-1.1,2.8-1.7c-0.1-0.2-0.3-0.4-0.4-0.7
			c-0.6,0.4-1.2,0.8-1.7,1.1c-0.2-0.2-0.5-0.6-0.8-0.8c0.9-0.4,1.9-1,2.6-1.7h-2.3v-1h1.6c-0.2-0.5-0.6-1.3-1-1.8l1-0.4
			c0.4,0.6,0.9,1.4,1.1,1.9l-0.6,0.3h1.5c0.4-0.7,0.8-1.5,1-2.2l1.1,0.3c-0.3,0.6-0.7,1.3-1,1.9h1.6v1h-2.6
			c-0.2,0.3-0.5,0.6-0.7,0.8c0.4,0.4,0.7,0.8,0.9,1.3c0.5-0.5,1-1.2,1.4-1.6l0.9,0.6c-0.6,0.6-1.2,1.3-1.8,1.7
			c0.8,0.9,1.7,2.1,2.1,2.9L48.7,53.6z"/>
		<path class="st0" d="M62.8,48.7c0,2.3-0.2,5.6-1.5,7.8c-0.2-0.2-0.8-0.5-1.1-0.7c1.2-2.1,1.3-5.1,1.3-7.2v-4H73v1.2H62.8V48.7z
			 M66.1,53.3c-0.7,1-1.7,2.2-2.5,3c-0.3-0.2-0.8-0.5-1.1-0.7c0.8-0.7,1.7-1.7,2.3-2.6L66.1,53.3z M68.6,52.4v3.1
			c0,0.6-0.1,1-0.6,1.1c-0.5,0.2-1.2,0.2-2.2,0.2c-0.1-0.3-0.2-0.8-0.4-1.1c0.7,0,1.4,0,1.6,0c0.2,0,0.3-0.1,0.3-0.2v-3.1h-3.4v-5.2
			h2.7c0.2-0.4,0.4-0.8,0.5-1.2l1.6,0.2c-0.2,0.3-0.4,0.6-0.6,0.9h4v5.2H68.6z M65.2,49.3h5.4v-1.1h-5.4V49.3z M65.2,51.4h5.4v-1.1
			h-5.4V51.4z M70.6,52.9c0.8,0.9,1.9,2,2.5,2.8l-1.1,0.7c-0.5-0.7-1.6-2-2.4-2.9L70.6,52.9z"/>
		<path class="st0" d="M88.8,52.6c-0.2-0.4-0.7-1.2-1.1-1.8v6.1h-1.3v-5.6c-0.5,1.3-1.2,2.5-1.8,3.2c-0.1-0.3-0.4-0.9-0.6-1.2
			c0.8-0.9,1.7-2.6,2.3-4.1h-2.1V48h2.3v-1.9c-0.6,0.1-1.2,0.2-1.8,0.3c0-0.3-0.2-0.7-0.4-1c1.6-0.3,3.4-0.7,4.5-1.1l0.8,1.1
			c-0.5,0.2-1.2,0.4-1.8,0.5V48h2v1.2h-2v0.2c0.4,0.4,1.6,1.9,1.9,2.2L88.8,52.6z M95.5,53.3v3.6h-1.3v-3.3l-4.5,0.7L89.5,53
			l4.7-0.8v-8.2h1.3V52l1.5-0.3l0.2,1.2L95.5,53.3z M92.4,51.4c-0.5-0.6-1.5-1.5-2.4-2.1l0.8-0.8c0.9,0.6,1.9,1.4,2.4,2L92.4,51.4z
			 M92.7,47.7c-0.4-0.6-1.4-1.4-2.2-2l0.9-0.7c0.8,0.5,1.8,1.4,2.3,1.9L92.7,47.7z"/>
		<path class="st0" d="M112.8,51.2c-0.5,0.2-1.1,0.3-1.6,0.5v3.7c0,0.7-0.1,1-0.6,1.2c-0.4,0.2-1.1,0.2-2,0.2
			c-0.1-0.3-0.2-0.8-0.4-1.2c0.6,0,1.2,0,1.4,0c0.2,0,0.3-0.1,0.3-0.3v-3.3c-0.6,0.2-1.1,0.3-1.6,0.4l-0.3-1.2
			c0.5-0.1,1.2-0.3,1.9-0.4V48h-1.7v-1.2h1.7v-2.7h1.3v2.7h1.5V48h-1.5v2.5l1.5-0.4L112.8,51.2z M120.4,49.5
			c-0.6,1.9-1.5,3.4-2.8,4.6c1,0.7,2.1,1.3,3.5,1.6c-0.3,0.3-0.7,0.8-0.9,1.1c-1.4-0.4-2.6-1-3.7-1.9c-1.1,0.8-2.5,1.4-3.9,1.9
			c-0.1-0.3-0.5-0.9-0.7-1.2c1.3-0.3,2.6-0.8,3.7-1.6c-0.9-1-1.7-2.2-2.2-3.6l0.2-0.1h-0.6v-1.2h2.9v-1.9h-3.2v-1.2h3.2v-2.1h1.3
			v2.1h3.3v1.2h-3.3v1.9h2l0.2,0L120.4,49.5z M114.8,50.4c0.5,1.1,1.1,2,1.9,2.9c0.9-0.8,1.6-1.8,2.1-2.9H114.8z"/>
	</g>
</g>
</svg>
