<svg xmlns="http://www.w3.org/2000/svg" viewBox="0 0 144.5 47.99"><title>ICBC logo</title><path d="M559.47,502.76v-3.69H547.54v11.07h7.31v3.69h-7.31v11.07h11.93V521.2h-8.26v-3.69h7.34V506.44h-7.34v-3.69M536.44,512a23.91,23.91,0,1,1,23.9,24,23.94,23.94,0,0,1-23.9-24m3.7,0a20.2,20.2,0,1,1,20.2,20.28A20.25,20.25,0,0,1,540.14,512m21.18,9.21v3.69h11.91V513.84h-7.33v-3.69h7.33V499.08H561.32v3.69h8.24v3.7h-7.34v11.06h7.34v3.69Z" transform="translate(-439.75 -488)" style="fill:#cb0202;fill-rule:evenodd"/><path d="M489.1,525c3.08,0,5.4-.75,6.9-2.24a6.75,6.75,0,0,0,1.86-4.87c0-3-1.25-5.12-3.73-6.24l-.11,0,.1-.06c1.12-.59,2.59-1.79,2.59-5.37a6.72,6.72,0,0,0-2.08-5,8.89,8.89,0,0,0-6.21-2.1H475V525m4.87-15.74v-5.41H488c1.43,0,3.82,0,3.82,2.85a2.24,2.24,0,0,1-1.33,2.2,6,6,0,0,1-2.47.42h-8.14v-.06Zm0,4.82V514h8.87a5.39,5.39,0,0,1,2.91.75,2.87,2.87,0,0,1,1.32,2.54,2.81,2.81,0,0,1-.71,2c-.87.88-2.37.88-3.47.88h-8.95v-.05l0-6.09Z" transform="translate(-439.75 -488)" style="fill:#201e1d;fill-rule:evenodd"/><polygon points="0 36.98 5.11 36.98 5.11 11.05 0 11.05 0 36.98 0 36.98" style="fill:#201e1d;fill-rule:evenodd"/><path d="M449,511.79a14.06,14.06,0,0,0,1.28,6.32,11.33,11.33,0,0,0,3.2,3.87c2.28,1.84,5.49,2.77,9.55,2.77h7v-4.89h-6.6c-3.67,0-6.33-.92-7.91-2.74A7.71,7.71,0,0,1,453.8,512a7.34,7.34,0,0,1,1.89-5.42c1.6-1.63,4.2-2.45,7.73-2.45H470v-4.85h-6.74a21.34,21.34,0,0,0-5.82.7,10.76,10.76,0,0,0-4.13,2.14,12.49,12.49,0,0,0-4.32,9.73" transform="translate(-439.75 -488)" style="fill:#201e1d;fill-rule:evenodd"/><path d="M500.95,511.79a15.58,15.58,0,0,0,1.28,6.56,11.28,11.28,0,0,0,3.2,4.09c2.14,1.73,5.18,2.53,9.55,2.53h7.37v-4.89h-7c-3.66,0-6.33-1-7.91-2.85a8,8,0,0,1-1.71-5.28,7.57,7.57,0,0,1,2-5.59c1.6-1.64,4.18-2.47,7.66-2.47h7v-4.85h-7.12a21.31,21.31,0,0,0-5.82.7,10.7,10.7,0,0,0-4.13,2.13,12.83,12.83,0,0,0-4.32,9.91" transform="translate(-439.75 -488)" style="fill:#201e1d;fill-rule:evenodd"/></svg>