<svg xmlns="http://www.w3.org/2000/svg" xmlns:xlink="http://www.w3.org/1999/xlink" width="384" zoomAndPan="magnify" viewBox="0 0 288 104.249996" height="139" preserveAspectRatio="xMidYMid meet" version="1.0"><metadata/><path fill="#1c2d59" d="M 117.78125 63.03125 L 123.234375 63.03125 L 123.234375 67.375 L 117.78125 67.375 Z M 117.78125 63.03125 " fill-opacity="1" fill-rule="nonzero"/><path fill="#1c2d59" d="M 117.792969 68.796875 L 123.265625 68.796875 L 123.261719 80.316406 L 117.792969 82.132812 Z M 117.792969 68.796875 " fill-opacity="1" fill-rule="nonzero"/><path fill="#1c2d59" d="M 148.394531 62.972656 L 146.9375 67.078125 L 135.699219 67.078125 L 135.699219 71.121094 L 147.609375 71.121094 L 145.847656 75.265625 L 135.699219 75.265625 L 135.699219 80.542969 L 129.800781 82.199219 L 129.800781 62.972656 Z M 148.394531 62.972656 " fill-opacity="1" fill-rule="nonzero"/><path fill="#1c2d59" d="M 153.84375 63.167969 L 159.601562 63.179688 L 159.601562 77.546875 L 171.375 77.519531 L 169.617188 81.996094 L 153.84375 81.984375 Z M 153.84375 63.167969 " fill-opacity="1" fill-rule="nonzero"/><path fill="#1c2d59" d="M 166.632812 62.957031 L 173.648438 62.957031 L 179.566406 70.191406 L 185.234375 62.957031 L 192.265625 62.957031 L 182.347656 75.613281 L 182.347656 80.757812 L 176.660156 82.210938 L 176.660156 75.652344 Z M 166.632812 62.957031 " fill-opacity="1" fill-rule="nonzero"/><path fill="#1c2d59" d="M 216.90625 62.972656 L 215.152344 67.363281 L 209.222656 67.363281 L 209.222656 80.746094 L 203.496094 82.199219 L 203.496094 67.363281 L 196.0625 67.363281 L 196.0625 62.972656 Z M 216.90625 62.972656 " fill-opacity="1" fill-rule="nonzero"/><path fill="#1c2d59" d="M 220.3125 63.15625 L 239.742188 63.15625 L 238.269531 67.140625 L 226.136719 67.140625 L 226.136719 70.808594 L 238.914062 70.808594 L 237.65625 74.398438 L 226.136719 74.398438 L 226.136719 78.101562 L 239.742188 78.101562 L 238.269531 82.015625 L 220.3125 82.015625 Z M 220.3125 63.15625 " fill-opacity="1" fill-rule="nonzero"/><path fill="#1c2d59" d="M 242.863281 63.140625 L 248.691406 63.140625 L 248.691406 70.210938 L 250.132812 70.210938 L 257.539062 63.078125 L 264.941406 63.078125 L 255.515625 72.261719 L 266.09375 81.886719 L 258.003906 81.886719 L 250.132812 74.511719 L 248.691406 74.511719 L 248.691406 80.890625 L 242.863281 82.09375 Z M 242.863281 63.140625 " fill-opacity="1" fill-rule="nonzero"/><path fill="#1c2d59" d="M 118.003906 56.925781 L 119.402344 38.808594 L 123.976562 38.808594 L 122.699219 55.589844 Z M 118.003906 56.925781 " fill-opacity="1" fill-rule="nonzero"/><path fill="#1c2d59" d="M 145.414062 25.78125 L 150.605469 25.78125 L 150.605469 47.824219 L 153.152344 47.699219 L 151.675781 51.792969 L 150.605469 51.875 L 150.605469 56.925781 L 145.414062 58.886719 L 145.414062 52.085938 L 136.011719 52.710938 L 136.011719 48.664062 L 145.414062 48.03125 Z M 145.414062 25.78125 " fill-opacity="1" fill-rule="nonzero"/><path fill="#1c2d59" d="M 134.445312 38.808594 L 135.640625 56.261719 L 131.152344 54.253906 L 130.035156 38.808594 Z M 134.445312 38.808594 " fill-opacity="1" fill-rule="nonzero"/><path fill="#1c2d59" d="M 129.464844 37.015625 L 129.464844 56.175781 L 124.472656 58.46875 L 124.472656 37.015625 L 118.125 37.015625 L 118.125 33.132812 L 124.472656 33.132812 L 124.472656 30.5 L 118.457031 31.039062 L 118.457031 26.910156 L 135.640625 25.445312 L 134.53125 29.496094 L 129.464844 30.082031 L 129.464844 33.132812 L 135.640625 33.132812 L 133.742188 37.015625 Z M 129.464844 37.015625 " fill-opacity="1" fill-rule="nonzero"/><path fill="#1c2d59" d="M 139.804688 38.433594 L 143.964844 42.0625 L 140.097656 45.949219 L 135.933594 42.3125 Z M 139.804688 38.433594 " fill-opacity="1" fill-rule="nonzero"/><path fill="#1c2d59" d="M 139.847656 28 L 144.011719 31.628906 L 140.136719 35.472656 L 135.933594 31.875 Z M 139.847656 28 " fill-opacity="1" fill-rule="nonzero"/><path fill="#1c2d59" d="M 200.429688 26.238281 L 204.511719 29.789062 L 200.675781 33.589844 L 196.597656 30.039062 Z M 200.429688 26.238281 " fill-opacity="1" fill-rule="nonzero"/><path fill="#1c2d59" d="M 207.269531 39.980469 L 211.019531 39.980469 L 211.019531 30.707031 L 207.523438 30.707031 L 207.523438 26.492188 L 228.25 26.492188 L 228.25 53.921875 L 230.972656 53.921875 L 228.90625 57.929688 L 222.320312 57.96875 L 222.359375 30.707031 L 216.871094 30.707031 L 216.871094 39.980469 L 221.53125 39.980469 L 219.433594 44.148438 L 216.871094 44.148438 L 216.871094 55.628906 L 211.019531 58.175781 L 211.019531 44.148438 L 207.269531 44.148438 Z M 207.269531 39.980469 " fill-opacity="1" fill-rule="nonzero"/><path fill="#1c2d59" d="M 195.777344 37.015625 L 203.855469 37.015625 L 203.894531 52.503906 L 207.5625 51.875 L 205.582031 56.59375 L 197.996094 58.59375 L 197.996094 41.191406 L 195.777344 41.191406 Z M 195.777344 37.015625 " fill-opacity="1" fill-rule="nonzero"/><path fill="#1c2d59" d="M 177.847656 31.628906 L 191.976562 31.628906 L 189.839844 35.84375 L 178.257812 35.84375 L 192.425781 57.96875 L 184.765625 57.96875 L 174.632812 41.941406 L 164.90625 57.96875 L 157.160156 57.96875 L 170.964844 35.84375 L 158.066406 35.84375 L 158.066406 31.628906 L 171.375 31.628906 L 171.375 26.238281 L 177.804688 26.238281 Z M 177.847656 31.628906 " fill-opacity="1" fill-rule="nonzero"/><path fill="#1c2d59" d="M 256.023438 54.425781 L 265.878906 54.464844 L 263.691406 58.417969 L 256.023438 58.417969 Z M 256.023438 49.746094 L 256.023438 43.191406 L 258.171875 45.320312 C 258.578125 45.773438 259.066406 46.140625 259.613281 46.402344 C 260.226562 46.566406 260.863281 46.640625 261.5 46.617188 L 265.878906 46.617188 L 265.878906 50.597656 L 260.1875 50.597656 C 259.136719 50.65625 258.082031 50.558594 257.058594 50.304688 C 256.675781 50.183594 256.324219 49.984375 256.023438 49.71875 M 256.023438 37.691406 L 256.023438 33.316406 C 256.332031 33.007812 256.601562 32.664062 256.824219 32.292969 L 260.375 26.65625 L 265.855469 26.65625 L 260.640625 35.777344 C 260.429688 36.136719 260.183594 36.472656 259.90625 36.78125 C 259.617188 37.097656 259.265625 37.355469 258.875 37.53125 C 258.144531 37.699219 257.398438 37.769531 256.648438 37.738281 Z M 248.316406 26.617188 L 242.917969 54.386719 L 256.023438 54.386719 L 256.023438 58.417969 L 236.070312 58.417969 L 241.722656 30.820312 L 234.804688 30.820312 L 234.804688 26.683594 Z M 256.023438 33.300781 C 255.984375 33.339844 255.90625 33.378906 255.859375 33.425781 C 255.519531 33.605469 255.132812 33.691406 254.746094 33.671875 L 246.960938 33.671875 L 246.179688 37.679688 L 256.023438 37.679688 Z M 256.023438 43.152344 L 253.847656 40.984375 L 247.78125 40.984375 L 254.992188 48.703125 C 255.308594 49.066406 255.652344 49.402344 256.023438 49.707031 Z M 256.023438 43.152344 " fill-opacity="1" fill-rule="nonzero"/><path fill="#1c2d59" d="M 73.921875 77.644531 C 54.535156 87.417969 34.664062 89.992188 29.40625 74.386719 C 29.347656 74.230469 29.296875 74.070312 29.257812 73.90625 C 28.695312 71.441406 28.605469 68.691406 29.335938 64.84375 C 34.722656 36.703125 69.730469 15.253906 69.730469 15.253906 C 68.53125 15.90625 67.378906 16.601562 66.238281 17.28125 C 40.546875 31.972656 28.34375 47.582031 23.949219 59.179688 C 20.691406 67.859375 21.71875 73.480469 22.1875 75.195312 C 22.84375 77.578125 24.054688 79.773438 25.726562 81.59375 C 33.546875 90.296875 46.980469 88.414062 57.441406 84.992188 C 63.183594 83.140625 68.707031 80.675781 73.921875 77.644531 Z M 73.921875 77.644531 " fill-opacity="1" fill-rule="nonzero"/><path fill="#1c2d59" d="M 105.140625 28.6875 C 105.921875 28.480469 105.429688 28.570312 107.296875 28.121094 C 104.289062 27.507812 85.980469 28.394531 71.996094 46.363281 L 59.675781 28.21875 L 54.90625 28.21875 L 69.554688 49.71875 C 69.191406 50.273438 68.816406 50.828125 68.460938 51.40625 L 68.21875 51.8125 L 52.085938 28.195312 L 47.316406 28.195312 L 66.09375 55.648438 C 65.730469 56.300781 65.332031 56.953125 64.902344 57.6875 L 44.707031 28.195312 L 39.929688 28.195312 L 62.589844 61.292969 C 57.300781 69.109375 48.476562 78.992188 35.285156 81.691406 C 35.285156 81.691406 57.992188 83.644531 71.4375 65.566406 L 82.382812 81.691406 L 87.152344 81.691406 L 73.785156 62.035156 C 74 61.667969 74.214844 61.304688 74.433594 60.925781 C 74.570312 60.671875 74.75 60.351562 74.941406 60.007812 L 89.753906 81.691406 L 94.523438 81.691406 L 77.144531 56.28125 C 77.578125 55.605469 78.03125 54.886719 78.492188 54.128906 L 97.355469 81.691406 L 102.125 81.691406 L 80.847656 50.597656 C 86.773438 42.011719 95.804688 31.191406 105.140625 28.6875 Z M 105.140625 28.6875 " fill-opacity="1" fill-rule="nonzero"/></svg>