<svg version="1.2" xmlns="http://www.w3.org/2000/svg" viewBox="0 0 1553 306" width="1553" height="306"><style>.a{fill:#0d3552}</style><path class="a" d="m211.9 130.9l-51.6-76.4h-11-9.2l8.9 13.3 52.3 77.4c-1.6 2.3-2.9 4.6-4.6 7l-1 1.6-46.7-68.7-19.2-28.6c6.6-6 13.3-12 19.5-17 29.5-24.9 53-39.5 53-39.5-4.9 2.7-9.9 5.6-14.5 8.6-14 8-26.5 16-38.8 24-10.9 7.3-21.2 14.6-30.8 22.2h-9.9l3.3 5c-2.3 2-4.6 3.7-7 5.7l-7.2-10.7h-19.9l14.6 21.6c-44.4 39.2-69.6 77.1-81.5 108.3-13.9 36.6-9.3 60.2-7.3 67.5 3 10.9 8.3 19.6 14.9 26.9 32.1 36.2 87.4 28.9 131.1 14.9l1.7-0.6c38.4-12.3 68.9-30.9 68.9-30.9-23.9 11.9-48 21.6-70.6 27.2-54.3 13.6-100.3 5.3-115.8-40.8l-0.7-2c-2.3-10.3-2.7-22 0.3-38.3 8.6-45.8 36.4-87.7 66.6-121.2l49.3 72.1 23.2 34.2c-6.6 9.6-14.2 19.9-23.2 30.2-21.8 24.6-52 47.5-91 55.5 0 0 44.7 4 91-18.3 21.2-9.9 42.7-25.5 60.3-49.5l46 67.8h19.9l-56-82.7c1-1.7 1.7-3 2.7-4.7 0.6-1 1.3-2.3 2.3-3.9l61.9 91h19.9l-72.9-106.7c1.7-3 3.7-5.9 5.7-8.9l79.1 115.9h19.9l-89.1-130.6c24.8-36.2 62.6-81.7 101.6-92.3 3.4-1 1.4-0.4 9-2.3-12.3-2.7-89.1 1-147.4 76.7zm-29.8 47.5l-32.8-48.2-38-55.4c2-2.4 4.3-4.4 6.3-6.7l31.4 46.2 37.8 55.5c-1.4 2.6-3 5.6-4.7 8.6z"/><path class="a" d="m456 142.9v-33.6h-16.6-25.2v33.6h25.2z"/><path class="a" d="m414.2 153.8v102.7l25.2-8.3 16.9-5.7v-88.7h-16.9z"/><path class="a" d="m1339.4 141.2l11.3-30.9h-149v145.5h137.7l11.3-30.2h-104.3v-28.6h88.4l9.6-27.6h-98v-28.2z"/><path class="a" d="m1015.3 109v33.9h57.2v114.3l29.8-7.7 13.9-3.6v-103h45.7l13.3-33.9h-72.9z"/><path class="a" d="m1481.8 189.7l-9.9-9.3 9.9-9.6 62.6-61.2h-57l-5.6 5.4-51.3 49.8h-10.9v-54.5h-45.1v145.9l45.1-9v-49.2h10.9l51.3 48.2 9.3 8.6h61.9z"/><path class="a" d="m888.4 164.5l-45.3-55.5h-35.5-18.2l18.2 22.9 58.6 74.8v50.5l43.7-11v-39.9l76.2-97.3h-54z"/><path class="a" d="m584.8 140.5h53.3l11.3-31.5h-64.6-55-23.5v148.2l23.5-6.7 21.9-6v-40.8h33.1 45l13.3-31.9h-58.3-33.1v-31.3z"/><path class="a" d="m735.4 221.3v-110.7h-44.3v144.9h116.5 4.7l13.5-34.6-18.2 0.4z"/></svg>