<svg xmlns="http://www.w3.org/2000/svg" width="180.64781mm" height="36.045143mm" viewBox="0 0 180.64781 36.045143"><defs><clipPath id="a"><path d="M22 31h5v4h-5zm0 0"/></clipPath><clipPath id="b"><path d="M25.77 34.621c.242-.625.488-1.25.73-1.875-2.805 1.395-3.656.215-3.96-1.684-.595 2.415.92 3.922 3.23 3.56zm0 0"/></clipPath><clipPath id="c"><path d="M25.77 34.621c.242-.625.488-1.25.73-1.875-2.805 1.395-3.656.215-3.96-1.684-.595 2.415.92 3.922 3.23 3.56"/></clipPath><clipPath id="e"><path d="M9 0h43v40H9Zm0 0"/></clipPath><clipPath id="f"><path d="M48.879 2.703C42.535-.847 29.777.641 21.668 3.797c-4.129 1.5-7.66 3.387-10.211 5.906-2.23 2.242-2.242 4.727-.21 7.434 3.331 3.91 9.519 7.86 17.91 9.504l-.247 1.02c-2.398 4.07-4.793 8.144-7.191 12.214h1.078c1.91-2.39 3.586-4.074 4.898-4.66 0 1.71-.027 3.367-.21 4.66h1.425c.336-1.79.797-3.277 1.457-4.281.64-.98 1.563-1.18 2.113-.004.528 1.238.88 2.633 1.012 4.285.524 0 .93-.02 1.453-.02-.035-4.183.043-8.343.008-12.527v-.973c4.234-.914 8.473-3.203 12.711-9.03 3.383-5.098 5.148-12.727 1.215-14.622zm0 0"/></clipPath><clipPath id="g"><path d="M48.879 2.703C42.535-.847 29.777.641 21.668 3.797c-4.129 1.5-7.66 3.387-10.211 5.906-2.23 2.242-2.242 4.727-.21 7.434 3.331 3.91 9.519 7.86 17.91 9.504l-.247 1.02c-2.398 4.07-4.793 8.144-7.191 12.214h1.078c1.91-2.39 3.586-4.074 4.898-4.66 0 1.71-.027 3.367-.21 4.66h1.425c.336-1.79.797-3.277 1.457-4.281.64-.98 1.563-1.18 2.113-.004.528 1.238.88 2.633 1.012 4.285.524 0 .93-.02 1.453-.02-.035-4.183.043-8.343.008-12.527v-.973c4.234-.914 8.473-3.203 12.711-9.03 3.383-5.098 5.148-12.727 1.215-14.622"/></clipPath><clipPath id="i"><path d="M23 33h5v6h-5zm0 0"/></clipPath><clipPath id="j"><path d="M23.738 38.734c1.52-1.785 2.864-3.035 3.957-3.52.04-.66-.105-1.144-.336-1.546-.117-.227-.367-.074-.48.156zm0 0"/></clipPath><clipPath id="k"><path d="M23.738 38.734c1.52-1.785 2.864-3.035 3.957-3.52.04-.66-.105-1.144-.336-1.546-.117-.227-.367-.074-.48.156l-3.14 4.91"/></clipPath><clipPath id="m"><path d="M29 33h6v7h-6zm0 0"/></clipPath><clipPath id="n"><path d="M29.04 39.223c.323-1.5.75-2.75 1.327-3.63.64-.98 1.563-1.179 2.113-.003.528 1.238.88 2.633 1.012 4.285.262 0 .492-.004.727-.012-.168-3.832-.922-6.332-2.41-6.418-1.07.07-2.352 2.758-2.77 5.778zm0 0"/></clipPath><clipPath id="o"><path d="M29.04 39.223c.323-1.5.75-2.75 1.327-3.63.64-.98 1.563-1.179 2.113-.003.528 1.238.88 2.633 1.012 4.285.262 0 .492-.004.727-.012-.168-3.832-.922-6.332-2.41-6.418-1.07.07-2.352 2.758-2.77 5.778"/></clipPath><clipPath id="q"><path d="M40 1h9v5h-9zm0 0"/></clipPath><clipPath id="r"><path d="M44.535 1.863c2.34-.133 4.258.64 4.285 1.45.117 1.39-1.843 1.792-4.183 1.925s-4.258-.515-4.285-1.449c-.028-.93 1.843-1.793 4.183-1.926Zm0 0"/></clipPath><clipPath id="s"><path d="M44.535 1.863c2.34-.133 4.258.64 4.285 1.45.117 1.39-1.843 1.792-4.183 1.925s-4.258-.515-4.285-1.449c-.028-.93 1.843-1.793 4.183-1.926"/></clipPath><clipPath id="u"><path d="M0 8h12v16H0Zm0 0"/></clipPath><clipPath id="v"><path d="M11.188 13.355a8.44 8.44 0 0 0-.657-2.52c-1.172-.62-2.34-1.237-3.511-1.858-1.278-.625-2.622.289-2.778 1.632C3.461 15.25 1.758 16.45.7 19.605c-.539 1.625-.23 2.696.516 3.227.824.559 1.238.8 3.305.004 3.972-1.645 5.742-3.871 4.652-9.309.43.254.86.508 1.285.766.504.266.809.094.73-.938zm0 0"/></clipPath><clipPath id="w"><path d="M11.188 13.355a8.44 8.44 0 0 0-.657-2.52c-1.172-.62-2.34-1.237-3.511-1.858-1.278-.625-2.622.289-2.778 1.632C3.461 15.25 1.758 16.45.7 19.605c-.539 1.625-.23 2.696.516 3.227.824.559 1.238.8 3.305.004 3.972-1.645 5.742-3.871 4.652-9.309.43.254.86.508 1.285.766.504.266.809.094.73-.938"/></clipPath><clipPath id="y"><path d="M2 11h8v13H2Zm0 0"/></clipPath><clipPath id="z"><path d="M2.207 23.316c.488.09 1.129-.023 2.313-.48 3.972-1.645 5.742-3.871 4.652-9.309-1-.797-2-1.597-3.004-2.394-.805 4.777-1.953 9.078-3.961 12.183zm0 0"/></clipPath><clipPath id="A"><path d="M2.207 23.316c.488.09 1.129-.023 2.313-.48 3.972-1.645 5.742-3.871 4.652-9.309-1-.797-2-1.597-3.004-2.394-.805 4.777-1.953 9.078-3.961 12.183"/></clipPath><linearGradient id="d" x1="64.688126" x2="69.620216" y1="155.64027" y2="155.08629" gradientTransform="matrix(1 0 0 -1 -34.361 191.304)" gradientUnits="userSpaceOnUse"><stop offset="0" style="stop-color:#dfdfdf;stop-opacity:1"/><stop offset="0.0881828" style="stop-color:#dfdfdf;stop-opacity:1"/><stop offset="0.25" style="stop-color:#dfdfdf;stop-opacity:1"/><stop offset="0.265625" style="stop-color:#dfdfdf;stop-opacity:1"/><stop offset="0.28125" style="stop-color:#dedede;stop-opacity:1"/><stop offset="0.296875" style="stop-color:#ddd;stop-opacity:1"/><stop offset="0.3125" style="stop-color:#dddcdc;stop-opacity:1"/><stop offset="0.328125" style="stop-color:#dcdbdc;stop-opacity:1"/><stop offset="0.34375" style="stop-color:#dbdbdb;stop-opacity:1"/><stop offset="0.359375" style="stop-color:#dadada;stop-opacity:1"/><stop offset="0.375" style="stop-color:#d9d9d9;stop-opacity:1"/><stop offset="0.390625" style="stop-color:#d9d8d8;stop-opacity:1"/><stop offset="0.40625" style="stop-color:#d8d7d8;stop-opacity:1"/><stop offset="0.421875" style="stop-color:#d7d6d7;stop-opacity:1"/><stop offset="0.4375" style="stop-color:#d6d5d6;stop-opacity:1"/><stop offset="0.453125" style="stop-color:#d6d4d5;stop-opacity:1"/><stop offset="0.46875" style="stop-color:#d5d3d4;stop-opacity:1"/><stop offset="0.484375" style="stop-color:#d4d3d4;stop-opacity:1"/><stop offset="0.5" style="stop-color:#d3d2d3;stop-opacity:1"/><stop offset="0.515625" style="stop-color:#d2d1d2;stop-opacity:1"/><stop offset="0.53125" style="stop-color:#d2d0d1;stop-opacity:1"/><stop offset="0.546875" style="stop-color:#d1cfd0;stop-opacity:1"/><stop offset="0.5625" style="stop-color:#d0cecf;stop-opacity:1"/><stop offset="0.578125" style="stop-color:#cfcdcf;stop-opacity:1"/><stop offset="0.59375" style="stop-color:#ceccce;stop-opacity:1"/><stop offset="0.609375" style="stop-color:#cecccd;stop-opacity:1"/><stop offset="0.625" style="stop-color:#cdcbcc;stop-opacity:1"/><stop offset="0.640625" style="stop-color:#cccacb;stop-opacity:1"/><stop offset="0.65625" style="stop-color:#cbc9cb;stop-opacity:1"/><stop offset="0.671875" style="stop-color:#cbc8ca;stop-opacity:1"/><stop offset="0.6875" style="stop-color:#cac7c9;stop-opacity:1"/><stop offset="0.703125" style="stop-color:#c9c6c8;stop-opacity:1"/><stop offset="0.71875" style="stop-color:#c8c5c7;stop-opacity:1"/><stop offset="0.75" style="stop-color:#c7c4c6;stop-opacity:1"/><stop offset="0.911817" style="stop-color:#c7c4c6;stop-opacity:1"/><stop offset="1" style="stop-color:#c7c4c6;stop-opacity:1"/></linearGradient><linearGradient id="h" x1="79.445595" x2="61.014572" y1="195.12032" y2="145.83467" gradientTransform="matrix(1 0 0 -1 -34.361 191.304)" gradientUnits="userSpaceOnUse"><stop offset="0" style="stop-color:#fff;stop-opacity:1"/><stop offset="0.125" style="stop-color:#fff;stop-opacity:1"/><stop offset="0.15625" style="stop-color:#fff;stop-opacity:1"/><stop offset="0.164062" style="stop-color:#fefefe;stop-opacity:1"/><stop offset="0.171875" style="stop-color:#fdfdfd;stop-opacity:1"/><stop offset="0.179687" style="stop-color:#fdfdfd;stop-opacity:1"/><stop offset="0.1875" style="stop-color:#fcfcfc;stop-opacity:1"/><stop offset="0.195313" style="stop-color:#fcfcfc;stop-opacity:1"/><stop offset="0.203125" style="stop-color:#fbfbfb;stop-opacity:1"/><stop offset="0.210938" style="stop-color:#fbfbfb;stop-opacity:1"/><stop offset="0.21875" style="stop-color:#fafafa;stop-opacity:1"/><stop offset="0.226563" style="stop-color:#fafafa;stop-opacity:1"/><stop offset="0.234375" style="stop-color:#f9f9f9;stop-opacity:1"/><stop offset="0.242187" style="stop-color:#f8f8f8;stop-opacity:1"/><stop offset="0.25" style="stop-color:#f8f8f8;stop-opacity:1"/><stop offset="0.257813" style="stop-color:#f7f7f7;stop-opacity:1"/><stop offset="0.265625" style="stop-color:#f7f7f7;stop-opacity:1"/><stop offset="0.273438" style="stop-color:#f6f6f6;stop-opacity:1"/><stop offset="0.28125" style="stop-color:#f6f6f6;stop-opacity:1"/><stop offset="0.289063" style="stop-color:#f5f5f5;stop-opacity:1"/><stop offset="0.290205" style="stop-color:#f5f5f5;stop-opacity:1"/><stop offset="0.296875" style="stop-color:#f4f4f4;stop-opacity:1"/><stop offset="0.304688" style="stop-color:#f4f4f4;stop-opacity:1"/><stop offset="0.3125" style="stop-color:#f4f4f4;stop-opacity:1"/><stop offset="0.320313" style="stop-color:#f3f3f3;stop-opacity:1"/><stop offset="0.328125" style="stop-color:#f3f3f3;stop-opacity:1"/><stop offset="0.335938" style="stop-color:#f2f2f2;stop-opacity:1"/><stop offset="0.34375" style="stop-color:#f1f1f1;stop-opacity:1"/><stop offset="0.351563" style="stop-color:#f1f1f1;stop-opacity:1"/><stop offset="0.359375" style="stop-color:#f0f0f0;stop-opacity:1"/><stop offset="0.367188" style="stop-color:#f0f0f0;stop-opacity:1"/><stop offset="0.375" style="stop-color:#efefef;stop-opacity:1"/><stop offset="0.382813" style="stop-color:#efefef;stop-opacity:1"/><stop offset="0.390625" style="stop-color:#eee;stop-opacity:1"/><stop offset="0.398438" style="stop-color:#eee;stop-opacity:1"/><stop offset="0.40625" style="stop-color:#ededed;stop-opacity:1"/><stop offset="0.414063" style="stop-color:#ededed;stop-opacity:1"/><stop offset="0.421875" style="stop-color:#ececec;stop-opacity:1"/><stop offset="0.429688" style="stop-color:#ececec;stop-opacity:1"/><stop offset="0.4375" style="stop-color:#ebebeb;stop-opacity:1"/><stop offset="0.445313" style="stop-color:#eaeaea;stop-opacity:1"/><stop offset="0.453125" style="stop-color:#eaeaea;stop-opacity:1"/><stop offset="0.460938" style="stop-color:#e9e9e9;stop-opacity:1"/><stop offset="0.46875" style="stop-color:#e9e9e9;stop-opacity:1"/><stop offset="0.476562" style="stop-color:#e8e8e8;stop-opacity:1"/><stop offset="0.484375" style="stop-color:#e8e8e8;stop-opacity:1"/><stop offset="0.492188" style="stop-color:#e7e7e7;stop-opacity:1"/><stop offset="0.5" style="stop-color:#e7e7e7;stop-opacity:1"/><stop offset="0.507813" style="stop-color:#e6e6e6;stop-opacity:1"/><stop offset="0.515625" style="stop-color:#e6e6e6;stop-opacity:1"/><stop offset="0.523438" style="stop-color:#e5e5e5;stop-opacity:1"/><stop offset="0.53125" style="stop-color:#e5e5e5;stop-opacity:1"/><stop offset="0.539063" style="stop-color:#e4e4e4;stop-opacity:1"/><stop offset="0.546875" style="stop-color:#e4e4e4;stop-opacity:1"/><stop offset="0.554688" style="stop-color:#e3e3e3;stop-opacity:1"/><stop offset="0.5625" style="stop-color:#e2e2e2;stop-opacity:1"/><stop offset="0.570313" style="stop-color:#e2e2e2;stop-opacity:1"/><stop offset="0.578125" style="stop-color:#e1e1e1;stop-opacity:1"/><stop offset="0.585938" style="stop-color:#e1e1e1;stop-opacity:1"/><stop offset="0.59375" style="stop-color:#e0e0e0;stop-opacity:1"/><stop offset="0.601562" style="stop-color:#e0e0e0;stop-opacity:1"/><stop offset="0.609375" style="stop-color:#dfdfdf;stop-opacity:1"/><stop offset="0.617188" style="stop-color:#dfdfdf;stop-opacity:1"/><stop offset="0.625" style="stop-color:#dedede;stop-opacity:1"/><stop offset="0.632813" style="stop-color:#dedede;stop-opacity:1"/><stop offset="0.640625" style="stop-color:#ddd;stop-opacity:1"/><stop offset="0.648438" style="stop-color:#ddd;stop-opacity:1"/><stop offset="0.65625" style="stop-color:#dcdcdc;stop-opacity:1"/><stop offset="0.664063" style="stop-color:#dbdbdb;stop-opacity:1"/><stop offset="0.671875" style="stop-color:#dbdbdb;stop-opacity:1"/><stop offset="0.679688" style="stop-color:#dadada;stop-opacity:1"/><stop offset="0.6875" style="stop-color:#dadada;stop-opacity:1"/><stop offset="0.695313" style="stop-color:#d9d9d9;stop-opacity:1"/><stop offset="0.703125" style="stop-color:#d9d9d9;stop-opacity:1"/><stop offset="0.709795" style="stop-color:#d8d8d8;stop-opacity:1"/><stop offset="0.710938" style="stop-color:#d8d8d8;stop-opacity:1"/><stop offset="0.71875" style="stop-color:#d8d8d8;stop-opacity:1"/><stop offset="0.726562" style="stop-color:#d7d7d7;stop-opacity:1"/><stop offset="0.734375" style="stop-color:#d7d7d7;stop-opacity:1"/><stop offset="0.742188" style="stop-color:#d6d6d6;stop-opacity:1"/><stop offset="0.75" style="stop-color:#d6d6d6;stop-opacity:1"/><stop offset="1" style="stop-color:#d5d5d5;stop-opacity:1"/></linearGradient><linearGradient id="l" x1="70.862724" x2="66.842857" y1="155.46005" y2="150.1851" gradientTransform="matrix(1 0 0 -1 -34.361 191.304)" gradientUnits="userSpaceOnUse"><stop offset="0" style="stop-color:#b0afb0;stop-opacity:1"/><stop offset="0.125" style="stop-color:#b0afb0;stop-opacity:1"/><stop offset="0.1875" style="stop-color:#b0afb0;stop-opacity:1"/><stop offset="0.21875" style="stop-color:#b0afb0;stop-opacity:1"/><stop offset="0.226563" style="stop-color:#b1b0b1;stop-opacity:1"/><stop offset="0.234375" style="stop-color:#b2b1b2;stop-opacity:1"/><stop offset="0.242188" style="stop-color:#b3b2b3;stop-opacity:1"/><stop offset="0.25" style="stop-color:#b4b3b4;stop-opacity:1"/><stop offset="0.257813" style="stop-color:#b5b4b5;stop-opacity:1"/><stop offset="0.265625" style="stop-color:#b6b5b6;stop-opacity:1"/><stop offset="0.273438" style="stop-color:#b7b6b7;stop-opacity:1"/><stop offset="0.28125" style="stop-color:#b7b7b7;stop-opacity:1"/><stop offset="0.289063" style="stop-color:#b8b7b8;stop-opacity:1"/><stop offset="0.296875" style="stop-color:#b9b8b9;stop-opacity:1"/><stop offset="0.304688" style="stop-color:#bab9ba;stop-opacity:1"/><stop offset="0.3125" style="stop-color:#bbbabb;stop-opacity:1"/><stop offset="0.320313" style="stop-color:#bcbbbc;stop-opacity:1"/><stop offset="0.328125" style="stop-color:#bdbcbd;stop-opacity:1"/><stop offset="0.335938" style="stop-color:#bebdbe;stop-opacity:1"/><stop offset="0.34375" style="stop-color:#bfbebf;stop-opacity:1"/><stop offset="0.351563" style="stop-color:#c0bfc0;stop-opacity:1"/><stop offset="0.359375" style="stop-color:silver;stop-opacity:1"/><stop offset="0.365463" style="stop-color:#c1c1c1;stop-opacity:1"/><stop offset="0.367188" style="stop-color:#c2c1c2;stop-opacity:1"/><stop offset="0.375" style="stop-color:#c2c1c2;stop-opacity:1"/><stop offset="0.382813" style="stop-color:#c3c2c3;stop-opacity:1"/><stop offset="0.390625" style="stop-color:#c4c3c4;stop-opacity:1"/><stop offset="0.398438" style="stop-color:#c5c4c5;stop-opacity:1"/><stop offset="0.40625" style="stop-color:#c6c5c6;stop-opacity:1"/><stop offset="0.414063" style="stop-color:#c7c6c7;stop-opacity:1"/><stop offset="0.421875" style="stop-color:#c8c7c8;stop-opacity:1"/><stop offset="0.429688" style="stop-color:#c9c8c9;stop-opacity:1"/><stop offset="0.4375" style="stop-color:#c9c9c9;stop-opacity:1"/><stop offset="0.445313" style="stop-color:#cacaca;stop-opacity:1"/><stop offset="0.453125" style="stop-color:#cbcbcb;stop-opacity:1"/><stop offset="0.460938" style="stop-color:#cccbcc;stop-opacity:1"/><stop offset="0.46875" style="stop-color:#cdcccd;stop-opacity:1"/><stop offset="0.476563" style="stop-color:#cecdce;stop-opacity:1"/><stop offset="0.484375" style="stop-color:#cfcecf;stop-opacity:1"/><stop offset="0.492188" style="stop-color:#d0cfd0;stop-opacity:1"/><stop offset="0.5" style="stop-color:#d1d0d1;stop-opacity:1"/><stop offset="0.507813" style="stop-color:#d1d1d1;stop-opacity:1"/><stop offset="0.515625" style="stop-color:#d2d2d2;stop-opacity:1"/><stop offset="0.523438" style="stop-color:#d3d3d3;stop-opacity:1"/><stop offset="0.53125" style="stop-color:#d4d4d4;stop-opacity:1"/><stop offset="0.539063" style="stop-color:#d5d5d5;stop-opacity:1"/><stop offset="0.546875" style="stop-color:#d6d5d6;stop-opacity:1"/><stop offset="0.554688" style="stop-color:#d7d6d7;stop-opacity:1"/><stop offset="0.5625" style="stop-color:#d8d7d8;stop-opacity:1"/><stop offset="0.570313" style="stop-color:#d9d8d9;stop-opacity:1"/><stop offset="0.578125" style="stop-color:#dad9da;stop-opacity:1"/><stop offset="0.585938" style="stop-color:#dadada;stop-opacity:1"/><stop offset="0.59375" style="stop-color:#dbdbdb;stop-opacity:1"/><stop offset="0.601563" style="stop-color:#dcdcdc;stop-opacity:1"/><stop offset="0.609375" style="stop-color:#ddd;stop-opacity:1"/><stop offset="0.617188" style="stop-color:#dedede;stop-opacity:1"/><stop offset="0.625" style="stop-color:#dfdfdf;stop-opacity:1"/><stop offset="0.632813" style="stop-color:#e0dfe0;stop-opacity:1"/><stop offset="0.634537" style="stop-color:#e1e0e1;stop-opacity:1"/><stop offset="0.640625" style="stop-color:#e1e1e1;stop-opacity:1"/><stop offset="0.648438" style="stop-color:#e2e1e2;stop-opacity:1"/><stop offset="0.65625" style="stop-color:#e2e2e2;stop-opacity:1"/><stop offset="0.664063" style="stop-color:#e3e3e3;stop-opacity:1"/><stop offset="0.671875" style="stop-color:#e4e4e4;stop-opacity:1"/><stop offset="0.679688" style="stop-color:#e5e5e5;stop-opacity:1"/><stop offset="0.6875" style="stop-color:#e6e6e6;stop-opacity:1"/><stop offset="0.695313" style="stop-color:#e7e7e7;stop-opacity:1"/><stop offset="0.703125" style="stop-color:#e8e8e8;stop-opacity:1"/><stop offset="0.710938" style="stop-color:#e9e8e9;stop-opacity:1"/><stop offset="0.71875" style="stop-color:#eae9ea;stop-opacity:1"/><stop offset="0.726563" style="stop-color:#ebeaeb;stop-opacity:1"/><stop offset="0.734375" style="stop-color:#ebebeb;stop-opacity:1"/><stop offset="0.742188" style="stop-color:#ececec;stop-opacity:1"/><stop offset="0.75" style="stop-color:#ededed;stop-opacity:1"/><stop offset="0.757813" style="stop-color:#eee;stop-opacity:1"/><stop offset="0.765625" style="stop-color:#efefef;stop-opacity:1"/><stop offset="0.773438" style="stop-color:#f0f0f0;stop-opacity:1"/><stop offset="0.78125" style="stop-color:#f1f1f1;stop-opacity:1"/><stop offset="0.789063" style="stop-color:#f2f2f2;stop-opacity:1"/><stop offset="0.796875" style="stop-color:#f3f2f3;stop-opacity:1"/><stop offset="0.804688" style="stop-color:#f4f3f4;stop-opacity:1"/><stop offset="0.8125" style="stop-color:#f4f4f4;stop-opacity:1"/><stop offset="0.820313" style="stop-color:#f5f5f5;stop-opacity:1"/><stop offset="0.828125" style="stop-color:#f6f6f6;stop-opacity:1"/><stop offset="0.835938" style="stop-color:#f7f7f7;stop-opacity:1"/><stop offset="0.84375" style="stop-color:#f8f8f8;stop-opacity:1"/><stop offset="0.851563" style="stop-color:#f9f9f9;stop-opacity:1"/><stop offset="0.859375" style="stop-color:#fafafa;stop-opacity:1"/><stop offset="0.867188" style="stop-color:#fbfbfb;stop-opacity:1"/><stop offset="0.875" style="stop-color:#fcfcfc;stop-opacity:1"/><stop offset="0.882813" style="stop-color:#fcfcfc;stop-opacity:1"/><stop offset="0.890625" style="stop-color:#fdfdfd;stop-opacity:1"/><stop offset="0.90625" style="stop-color:#fefefe;stop-opacity:1"/><stop offset="0.9375" style="stop-color:#fefefe;stop-opacity:1"/><stop offset="1" style="stop-color:#fefefe;stop-opacity:1"/></linearGradient><linearGradient id="p" x1="75.42067" x2="74.465546" y1="155.79913" y2="148.79436" gradientTransform="matrix(1 0 0 -1 -34.361 191.304)" gradientUnits="userSpaceOnUse"><stop offset="0" style="stop-color:#a8a8a8;stop-opacity:1"/><stop offset="0.015625" style="stop-color:#a8a8a8;stop-opacity:1"/><stop offset="0.03125" style="stop-color:#a9a9a9;stop-opacity:1"/><stop offset="0.046875" style="stop-color:#aaa;stop-opacity:1"/><stop offset="0.0625" style="stop-color:#ababab;stop-opacity:1"/><stop offset="0.078125" style="stop-color:#ababab;stop-opacity:1"/><stop offset="0.09375" style="stop-color:#acacac;stop-opacity:1"/><stop offset="0.09895" style="stop-color:#adadad;stop-opacity:1"/><stop offset="0.109375" style="stop-color:#adadad;stop-opacity:1"/><stop offset="0.125" style="stop-color:#aeaeae;stop-opacity:1"/><stop offset="0.140625" style="stop-color:#afafaf;stop-opacity:1"/><stop offset="0.15625" style="stop-color:#b0b0b0;stop-opacity:1"/><stop offset="0.171875" style="stop-color:#b0b0b0;stop-opacity:1"/><stop offset="0.1875" style="stop-color:#b1b1b1;stop-opacity:1"/><stop offset="0.203125" style="stop-color:#b2b2b2;stop-opacity:1"/><stop offset="0.21875" style="stop-color:#b3b3b3;stop-opacity:1"/><stop offset="0.234375" style="stop-color:#b4b4b4;stop-opacity:1"/><stop offset="0.25" style="stop-color:#b4b4b4;stop-opacity:1"/><stop offset="0.265625" style="stop-color:#b5b5b5;stop-opacity:1"/><stop offset="0.28125" style="stop-color:#b6b6b6;stop-opacity:1"/><stop offset="0.296875" style="stop-color:#b7b7b7;stop-opacity:1"/><stop offset="0.3125" style="stop-color:#b8b8b8;stop-opacity:1"/><stop offset="0.328125" style="stop-color:#b8b8b8;stop-opacity:1"/><stop offset="0.34375" style="stop-color:#b9b9b9;stop-opacity:1"/><stop offset="0.359375" style="stop-color:#bababa;stop-opacity:1"/><stop offset="0.375" style="stop-color:#bbb;stop-opacity:1"/><stop offset="0.390625" style="stop-color:#bcbcbc;stop-opacity:1"/><stop offset="0.40625" style="stop-color:#bcbcbc;stop-opacity:1"/><stop offset="0.421875" style="stop-color:#bdbdbd;stop-opacity:1"/><stop offset="0.4375" style="stop-color:#bebebe;stop-opacity:1"/><stop offset="0.453125" style="stop-color:#bfbfbf;stop-opacity:1"/><stop offset="0.46875" style="stop-color:silver;stop-opacity:1"/><stop offset="0.484375" style="stop-color:silver;stop-opacity:1"/><stop offset="0.5" style="stop-color:#c1c1c1;stop-opacity:1"/><stop offset="0.515625" style="stop-color:#c2c2c2;stop-opacity:1"/><stop offset="0.53125" style="stop-color:#c3c3c3;stop-opacity:1"/><stop offset="0.546875" style="stop-color:#c4c4c4;stop-opacity:1"/><stop offset="0.5625" style="stop-color:#c4c4c4;stop-opacity:1"/><stop offset="0.578125" style="stop-color:#c5c5c5;stop-opacity:1"/><stop offset="0.59375" style="stop-color:#c6c6c6;stop-opacity:1"/><stop offset="0.609375" style="stop-color:#c7c7c7;stop-opacity:1"/><stop offset="0.625" style="stop-color:#c8c8c8;stop-opacity:1"/><stop offset="0.640625" style="stop-color:#c8c8c8;stop-opacity:1"/><stop offset="0.65625" style="stop-color:#c9c9c9;stop-opacity:1"/><stop offset="0.671875" style="stop-color:#cacaca;stop-opacity:1"/><stop offset="0.6875" style="stop-color:#cbcbcb;stop-opacity:1"/><stop offset="0.703125" style="stop-color:#ccc;stop-opacity:1"/><stop offset="0.71875" style="stop-color:#ccc;stop-opacity:1"/><stop offset="0.734375" style="stop-color:#cdcdcd;stop-opacity:1"/><stop offset="0.75" style="stop-color:#cecece;stop-opacity:1"/><stop offset="0.765625" style="stop-color:#cfcfcf;stop-opacity:1"/><stop offset="0.78125" style="stop-color:#d0d0d0;stop-opacity:1"/><stop offset="0.796875" style="stop-color:#d0d0d0;stop-opacity:1"/><stop offset="0.8125" style="stop-color:#d1d1d1;stop-opacity:1"/><stop offset="0.828125" style="stop-color:#d2d2d2;stop-opacity:1"/><stop offset="0.84375" style="stop-color:#d3d3d3;stop-opacity:1"/><stop offset="0.859375" style="stop-color:#d4d4d4;stop-opacity:1"/><stop offset="0.875" style="stop-color:#d4d4d4;stop-opacity:1"/><stop offset="0.890625" style="stop-color:#d5d5d5;stop-opacity:1"/><stop offset="0.90105" style="stop-color:#d6d6d6;stop-opacity:1"/><stop offset="0.90625" style="stop-color:#d6d6d6;stop-opacity:1"/><stop offset="0.921875" style="stop-color:#d7d7d7;stop-opacity:1"/><stop offset="0.9375" style="stop-color:#d8d8d8;stop-opacity:1"/><stop offset="0.953125" style="stop-color:#d8d8d8;stop-opacity:1"/><stop offset="0.96875" style="stop-color:#d9d9d9;stop-opacity:1"/><stop offset="0.984375" style="stop-color:#dadada;stop-opacity:1"/><stop offset="1" style="stop-color:#dbdbdb;stop-opacity:1"/></linearGradient><linearGradient id="t" x1="87.512199" x2="88.120934" y1="183.08498" y2="187.7643" gradientTransform="matrix(1 0 0 -1 -34.361 191.304)" gradientUnits="userSpaceOnUse"><stop offset="0" style="stop-color:#000;stop-opacity:1"/><stop offset="0.235474" style="stop-color:#000;stop-opacity:1"/><stop offset="0.25" style="stop-color:#000;stop-opacity:1"/><stop offset="0.3125" style="stop-color:#000;stop-opacity:1"/><stop offset="0.328125" style="stop-color:#000;stop-opacity:1"/><stop offset="0.335938" style="stop-color:#000;stop-opacity:1"/><stop offset="0.339844" style="stop-color:#010101;stop-opacity:1"/><stop offset="0.34375" style="stop-color:#020202;stop-opacity:1"/><stop offset="0.347656" style="stop-color:#020202;stop-opacity:1"/><stop offset="0.351563" style="stop-color:#030303;stop-opacity:1"/><stop offset="0.355469" style="stop-color:#030303;stop-opacity:1"/><stop offset="0.359375" style="stop-color:#040404;stop-opacity:1"/><stop offset="0.363281" style="stop-color:#040404;stop-opacity:1"/><stop offset="0.367188" style="stop-color:#050505;stop-opacity:1"/><stop offset="0.371094" style="stop-color:#050505;stop-opacity:1"/><stop offset="0.375" style="stop-color:#060606;stop-opacity:1"/><stop offset="0.378906" style="stop-color:#070707;stop-opacity:1"/><stop offset="0.382813" style="stop-color:#070707;stop-opacity:1"/><stop offset="0.386719" style="stop-color:#080808;stop-opacity:1"/><stop offset="0.390625" style="stop-color:#080808;stop-opacity:1"/><stop offset="0.394531" style="stop-color:#090909;stop-opacity:1"/><stop offset="0.398438" style="stop-color:#090909;stop-opacity:1"/><stop offset="0.402344" style="stop-color:#0a0a0a;stop-opacity:1"/><stop offset="0.40625" style="stop-color:#0a0a0a;stop-opacity:1"/><stop offset="0.410156" style="stop-color:#0b0b0b;stop-opacity:1"/><stop offset="0.414063" style="stop-color:#0b0b0b;stop-opacity:1"/><stop offset="0.417969" style="stop-color:#0c0c0c;stop-opacity:1"/><stop offset="0.421875" style="stop-color:#0d0d0d;stop-opacity:1"/><stop offset="0.425781" style="stop-color:#0d0d0d;stop-opacity:1"/><stop offset="0.429688" style="stop-color:#0e0e0e;stop-opacity:1"/><stop offset="0.433594" style="stop-color:#0e0e0e;stop-opacity:1"/><stop offset="0.4375" style="stop-color:#0f0f0f;stop-opacity:1"/><stop offset="0.441406" style="stop-color:#0f0f0f;stop-opacity:1"/><stop offset="0.445313" style="stop-color:#101010;stop-opacity:1"/><stop offset="0.449219" style="stop-color:#101010;stop-opacity:1"/><stop offset="0.453125" style="stop-color:#111;stop-opacity:1"/><stop offset="0.457031" style="stop-color:#111;stop-opacity:1"/><stop offset="0.460938" style="stop-color:#121212;stop-opacity:1"/><stop offset="0.464844" style="stop-color:#131313;stop-opacity:1"/><stop offset="0.46875" style="stop-color:#131313;stop-opacity:1"/><stop offset="0.472656" style="stop-color:#141414;stop-opacity:1"/><stop offset="0.476563" style="stop-color:#141414;stop-opacity:1"/><stop offset="0.480469" style="stop-color:#151515;stop-opacity:1"/><stop offset="0.484375" style="stop-color:#151515;stop-opacity:1"/><stop offset="0.488281" style="stop-color:#161616;stop-opacity:1"/><stop offset="0.492188" style="stop-color:#161616;stop-opacity:1"/><stop offset="0.496094" style="stop-color:#171717;stop-opacity:1"/><stop offset="0.5" style="stop-color:#171717;stop-opacity:1"/><stop offset="0.503906" style="stop-color:#181818;stop-opacity:1"/><stop offset="0.507813" style="stop-color:#191919;stop-opacity:1"/><stop offset="0.511719" style="stop-color:#191919;stop-opacity:1"/><stop offset="0.515625" style="stop-color:#1a1a1a;stop-opacity:1"/><stop offset="0.519531" style="stop-color:#1a1a1a;stop-opacity:1"/><stop offset="0.523438" style="stop-color:#1b1b1b;stop-opacity:1"/><stop offset="0.527344" style="stop-color:#1b1b1b;stop-opacity:1"/><stop offset="0.53125" style="stop-color:#1c1c1c;stop-opacity:1"/><stop offset="0.535156" style="stop-color:#1c1c1c;stop-opacity:1"/><stop offset="0.539063" style="stop-color:#1d1d1d;stop-opacity:1"/><stop offset="0.542969" style="stop-color:#1d1d1d;stop-opacity:1"/><stop offset="0.546875" style="stop-color:#1e1e1e;stop-opacity:1"/><stop offset="0.550781" style="stop-color:#1e1e1e;stop-opacity:1"/><stop offset="0.554688" style="stop-color:#1f1f1f;stop-opacity:1"/><stop offset="0.558594" style="stop-color:#202020;stop-opacity:1"/><stop offset="0.5625" style="stop-color:#202020;stop-opacity:1"/><stop offset="0.566406" style="stop-color:#212121;stop-opacity:1"/><stop offset="0.570313" style="stop-color:#212121;stop-opacity:1"/><stop offset="0.574219" style="stop-color:#222;stop-opacity:1"/><stop offset="0.578125" style="stop-color:#222;stop-opacity:1"/><stop offset="0.582031" style="stop-color:#232323;stop-opacity:1"/><stop offset="0.585938" style="stop-color:#232323;stop-opacity:1"/><stop offset="0.589844" style="stop-color:#242424;stop-opacity:1"/><stop offset="0.59375" style="stop-color:#242424;stop-opacity:1"/><stop offset="0.597656" style="stop-color:#252525;stop-opacity:1"/><stop offset="0.601563" style="stop-color:#262626;stop-opacity:1"/><stop offset="0.605469" style="stop-color:#262626;stop-opacity:1"/><stop offset="0.609375" style="stop-color:#272727;stop-opacity:1"/><stop offset="0.613281" style="stop-color:#272727;stop-opacity:1"/><stop offset="0.617188" style="stop-color:#282828;stop-opacity:1"/><stop offset="0.621094" style="stop-color:#282828;stop-opacity:1"/><stop offset="0.625" style="stop-color:#292929;stop-opacity:1"/><stop offset="0.628906" style="stop-color:#292929;stop-opacity:1"/><stop offset="0.632813" style="stop-color:#2a2a2a;stop-opacity:1"/><stop offset="0.636719" style="stop-color:#2a2a2a;stop-opacity:1"/><stop offset="0.640625" style="stop-color:#2b2b2b;stop-opacity:1"/><stop offset="0.644531" style="stop-color:#2c2c2c;stop-opacity:1"/><stop offset="0.648438" style="stop-color:#2c2c2c;stop-opacity:1"/><stop offset="0.652344" style="stop-color:#2d2d2d;stop-opacity:1"/><stop offset="0.65625" style="stop-color:#2d2d2d;stop-opacity:1"/><stop offset="0.660156" style="stop-color:#2e2e2e;stop-opacity:1"/><stop offset="0.664062" style="stop-color:#2e2e2e;stop-opacity:1"/><stop offset="0.667969" style="stop-color:#2f2f2f;stop-opacity:1"/><stop offset="0.671875" style="stop-color:#2f2f2f;stop-opacity:1"/><stop offset="0.675781" style="stop-color:#303030;stop-opacity:1"/><stop offset="0.679688" style="stop-color:#303030;stop-opacity:1"/><stop offset="0.683594" style="stop-color:#313131;stop-opacity:1"/><stop offset="0.6875" style="stop-color:#313131;stop-opacity:1"/><stop offset="0.691406" style="stop-color:#323232;stop-opacity:1"/><stop offset="0.695313" style="stop-color:#333;stop-opacity:1"/><stop offset="0.699219" style="stop-color:#333;stop-opacity:1"/><stop offset="0.703125" style="stop-color:#343434;stop-opacity:1"/><stop offset="0.707031" style="stop-color:#343434;stop-opacity:1"/><stop offset="0.710938" style="stop-color:#353535;stop-opacity:1"/><stop offset="0.714844" style="stop-color:#353535;stop-opacity:1"/><stop offset="0.71875" style="stop-color:#363636;stop-opacity:1"/><stop offset="0.722656" style="stop-color:#363636;stop-opacity:1"/><stop offset="0.726563" style="stop-color:#373737;stop-opacity:1"/><stop offset="0.730469" style="stop-color:#373737;stop-opacity:1"/><stop offset="0.734375" style="stop-color:#383838;stop-opacity:1"/><stop offset="0.738281" style="stop-color:#393939;stop-opacity:1"/><stop offset="0.742188" style="stop-color:#393939;stop-opacity:1"/><stop offset="0.746094" style="stop-color:#3a3a3a;stop-opacity:1"/><stop offset="0.75" style="stop-color:#3a3a3a;stop-opacity:1"/><stop offset="0.753906" style="stop-color:#3b3b3b;stop-opacity:1"/><stop offset="0.757813" style="stop-color:#3b3b3b;stop-opacity:1"/><stop offset="0.761719" style="stop-color:#3c3c3c;stop-opacity:1"/><stop offset="0.765625" style="stop-color:#3c3c3c;stop-opacity:1"/><stop offset="0.769531" style="stop-color:#3d3d3d;stop-opacity:1"/><stop offset="0.773438" style="stop-color:#3d3d3d;stop-opacity:1"/><stop offset="0.777344" style="stop-color:#3e3e3e;stop-opacity:1"/><stop offset="0.78125" style="stop-color:#3f3f3f;stop-opacity:1"/><stop offset="0.785156" style="stop-color:#3f3f3f;stop-opacity:1"/><stop offset="0.789063" style="stop-color:#404040;stop-opacity:1"/><stop offset="0.792969" style="stop-color:#404040;stop-opacity:1"/><stop offset="0.796875" style="stop-color:#414141;stop-opacity:1"/><stop offset="0.800781" style="stop-color:#414141;stop-opacity:1"/><stop offset="0.804688" style="stop-color:#424242;stop-opacity:1"/><stop offset="0.808594" style="stop-color:#424242;stop-opacity:1"/><stop offset="0.8125" style="stop-color:#434343;stop-opacity:1"/><stop offset="0.816406" style="stop-color:#434343;stop-opacity:1"/><stop offset="0.820313" style="stop-color:#444;stop-opacity:1"/><stop offset="0.824219" style="stop-color:#454545;stop-opacity:1"/><stop offset="0.828125" style="stop-color:#454545;stop-opacity:1"/><stop offset="0.832031" style="stop-color:#464646;stop-opacity:1"/><stop offset="0.835938" style="stop-color:#464646;stop-opacity:1"/><stop offset="0.839844" style="stop-color:#474747;stop-opacity:1"/><stop offset="0.84375" style="stop-color:#474747;stop-opacity:1"/><stop offset="0.847656" style="stop-color:#484848;stop-opacity:1"/><stop offset="0.851563" style="stop-color:#484848;stop-opacity:1"/><stop offset="0.855469" style="stop-color:#494949;stop-opacity:1"/><stop offset="0.859375" style="stop-color:#494949;stop-opacity:1"/><stop offset="0.863281" style="stop-color:#4a4a4a;stop-opacity:1"/><stop offset="0.867188" style="stop-color:#4a4a4a;stop-opacity:1"/><stop offset="0.871094" style="stop-color:#4b4b4b;stop-opacity:1"/><stop offset="0.875" style="stop-color:#4c4c4c;stop-opacity:1"/><stop offset="0.878906" style="stop-color:#4c4c4c;stop-opacity:1"/><stop offset="0.882812" style="stop-color:#4d4d4d;stop-opacity:1"/><stop offset="0.886719" style="stop-color:#4d4d4d;stop-opacity:1"/><stop offset="0.890625" style="stop-color:#4e4e4e;stop-opacity:1"/><stop offset="0.894531" style="stop-color:#4e4e4e;stop-opacity:1"/><stop offset="0.898438" style="stop-color:#4f4f4f;stop-opacity:1"/><stop offset="0.902344" style="stop-color:#4f4f4f;stop-opacity:1"/><stop offset="0.90625" style="stop-color:#505050;stop-opacity:1"/><stop offset="0.910156" style="stop-color:#505050;stop-opacity:1"/><stop offset="0.914062" style="stop-color:#515151;stop-opacity:1"/><stop offset="0.917969" style="stop-color:#525252;stop-opacity:1"/><stop offset="0.921875" style="stop-color:#525252;stop-opacity:1"/><stop offset="0.925781" style="stop-color:#535353;stop-opacity:1"/><stop offset="0.929688" style="stop-color:#535353;stop-opacity:1"/><stop offset="0.933594" style="stop-color:#545454;stop-opacity:1"/><stop offset="0.9375" style="stop-color:#545454;stop-opacity:1"/><stop offset="0.941406" style="stop-color:#555;stop-opacity:1"/><stop offset="0.945312" style="stop-color:#555;stop-opacity:1"/><stop offset="0.949219" style="stop-color:#565656;stop-opacity:1"/><stop offset="0.953125" style="stop-color:#565656;stop-opacity:1"/><stop offset="0.957031" style="stop-color:#575757;stop-opacity:1"/><stop offset="0.960938" style="stop-color:#585858;stop-opacity:1"/><stop offset="0.964844" style="stop-color:#585858;stop-opacity:1"/><stop offset="0.96875" style="stop-color:#595959;stop-opacity:1"/><stop offset="0.972656" style="stop-color:#595959;stop-opacity:1"/><stop offset="0.976563" style="stop-color:#5a5a5a;stop-opacity:1"/><stop offset="0.980469" style="stop-color:#5a5a5a;stop-opacity:1"/><stop offset="0.984375" style="stop-color:#5b5b5b;stop-opacity:1"/><stop offset="0.988281" style="stop-color:#5b5b5b;stop-opacity:1"/><stop offset="0.992188" style="stop-color:#5c5c5c;stop-opacity:1"/><stop offset="0.996094" style="stop-color:#5c5c5c;stop-opacity:1"/><stop offset="1" style="stop-color:#5d5d5d;stop-opacity:1"/></linearGradient><linearGradient id="x" x1="51.573921" x2="42.399738" y1="182.15782" y2="165.79388" gradientTransform="matrix(1 0 0 -1 -34.361 191.304)" gradientUnits="userSpaceOnUse"><stop offset="0" style="stop-color:#f4f4f5;stop-opacity:1"/><stop offset="0.25" style="stop-color:#f4f4f5;stop-opacity:1"/><stop offset="0.28125" style="stop-color:#f4f4f5;stop-opacity:1"/><stop offset="0.289497" style="stop-color:#f3f3f4;stop-opacity:1"/><stop offset="0.3125" style="stop-color:#f3f3f4;stop-opacity:1"/><stop offset="0.34375" style="stop-color:#f2f2f3;stop-opacity:1"/><stop offset="0.375" style="stop-color:#f2f2f2;stop-opacity:1"/><stop offset="0.40625" style="stop-color:#f1f1f2;stop-opacity:1"/><stop offset="0.4375" style="stop-color:#f0f0f1;stop-opacity:1"/><stop offset="0.46875" style="stop-color:#efeff0;stop-opacity:1"/><stop offset="0.5" style="stop-color:#eeeeef;stop-opacity:1"/><stop offset="0.53125" style="stop-color:#eee;stop-opacity:1"/><stop offset="0.5625" style="stop-color:#ededee;stop-opacity:1"/><stop offset="0.59375" style="stop-color:#ececed;stop-opacity:1"/><stop offset="0.625" style="stop-color:#ebebec;stop-opacity:1"/><stop offset="0.65625" style="stop-color:#ebebeb;stop-opacity:1"/><stop offset="0.6875" style="stop-color:#eaeaea;stop-opacity:1"/><stop offset="0.710503" style="stop-color:#e9e9e9;stop-opacity:1"/><stop offset="0.71875" style="stop-color:#e9e9e9;stop-opacity:1"/><stop offset="0.75" style="stop-color:#e8e8e9;stop-opacity:1"/><stop offset="0.78125" style="stop-color:#e7e7e8;stop-opacity:1"/><stop offset="0.8125" style="stop-color:#e7e7e7;stop-opacity:1"/><stop offset="0.84375" style="stop-color:#e6e6e6;stop-opacity:1"/><stop offset="0.875" style="stop-color:#e5e5e5;stop-opacity:1"/><stop offset="0.90625" style="stop-color:#e4e4e5;stop-opacity:1"/><stop offset="0.9375" style="stop-color:#e4e4e4;stop-opacity:1"/><stop offset="0.96875" style="stop-color:#e3e3e3;stop-opacity:1"/><stop offset="1" style="stop-color:#e2e2e2;stop-opacity:1"/></linearGradient><linearGradient id="B" x1="52.482555" x2="45.845379" y1="178.26505" y2="165.26567" gradientTransform="matrix(1 0 0 -1 -34.361 191.304)" gradientUnits="userSpaceOnUse"><stop offset="0" style="stop-color:#b0afb0;stop-opacity:1"/><stop offset="0.0625" style="stop-color:#b0afb0;stop-opacity:1"/><stop offset="0.09375" style="stop-color:#b0afb0;stop-opacity:1"/><stop offset="0.109375" style="stop-color:#b1b0b1;stop-opacity:1"/><stop offset="0.125" style="stop-color:#b2b1b2;stop-opacity:1"/><stop offset="0.140625" style="stop-color:#b3b2b3;stop-opacity:1"/><stop offset="0.15625" style="stop-color:#b4b3b4;stop-opacity:1"/><stop offset="0.171875" style="stop-color:#b5b4b5;stop-opacity:1"/><stop offset="0.1875" style="stop-color:#b5b5b5;stop-opacity:1"/><stop offset="0.203125" style="stop-color:#b6b5b6;stop-opacity:1"/><stop offset="0.21875" style="stop-color:#b7b6b7;stop-opacity:1"/><stop offset="0.234375" style="stop-color:#b8b7b8;stop-opacity:1"/><stop offset="0.25" style="stop-color:#b9b8b9;stop-opacity:1"/><stop offset="0.250923" style="stop-color:#bab9ba;stop-opacity:1"/><stop offset="0.265625" style="stop-color:#bab9ba;stop-opacity:1"/><stop offset="0.28125" style="stop-color:#bbbabb;stop-opacity:1"/><stop offset="0.296875" style="stop-color:#bcbbbc;stop-opacity:1"/><stop offset="0.3125" style="stop-color:#bcbcbc;stop-opacity:1"/><stop offset="0.328125" style="stop-color:#bdbdbd;stop-opacity:1"/><stop offset="0.34375" style="stop-color:#bebebe;stop-opacity:1"/><stop offset="0.359375" style="stop-color:#bfbebf;stop-opacity:1"/><stop offset="0.375" style="stop-color:#c0bfc0;stop-opacity:1"/><stop offset="0.390625" style="stop-color:#c1c0c1;stop-opacity:1"/><stop offset="0.40625" style="stop-color:#c2c1c2;stop-opacity:1"/><stop offset="0.421875" style="stop-color:#c3c2c3;stop-opacity:1"/><stop offset="0.4375" style="stop-color:#c3c3c3;stop-opacity:1"/><stop offset="0.453125" style="stop-color:#c4c4c4;stop-opacity:1"/><stop offset="0.46875" style="stop-color:#c5c5c5;stop-opacity:1"/><stop offset="0.484375" style="stop-color:#c6c6c6;stop-opacity:1"/><stop offset="0.5" style="stop-color:#c7c6c7;stop-opacity:1"/><stop offset="0.515625" style="stop-color:#c8c7c8;stop-opacity:1"/><stop offset="0.53125" style="stop-color:#c9c8c9;stop-opacity:1"/><stop offset="0.546875" style="stop-color:#c9c9c9;stop-opacity:1"/><stop offset="0.5625" style="stop-color:#cacaca;stop-opacity:1"/><stop offset="0.578125" style="stop-color:#cbcbcb;stop-opacity:1"/><stop offset="0.59375" style="stop-color:#ccc;stop-opacity:1"/><stop offset="0.609375" style="stop-color:#cdcdcd;stop-opacity:1"/><stop offset="0.625" style="stop-color:#cecece;stop-opacity:1"/><stop offset="0.640625" style="stop-color:#cfcecf;stop-opacity:1"/><stop offset="0.65625" style="stop-color:#d0cfd0;stop-opacity:1"/><stop offset="0.671875" style="stop-color:#d0d0d0;stop-opacity:1"/><stop offset="0.6875" style="stop-color:#d1d1d1;stop-opacity:1"/><stop offset="0.703125" style="stop-color:#d2d2d2;stop-opacity:1"/><stop offset="0.71875" style="stop-color:#d3d3d3;stop-opacity:1"/><stop offset="0.734375" style="stop-color:#d4d4d4;stop-opacity:1"/><stop offset="0.749077" style="stop-color:#d5d5d5;stop-opacity:1"/><stop offset="0.75" style="stop-color:#d5d5d5;stop-opacity:1"/><stop offset="0.765625" style="stop-color:#d6d6d6;stop-opacity:1"/><stop offset="0.78125" style="stop-color:#d7d6d7;stop-opacity:1"/><stop offset="0.796875" style="stop-color:#d7d7d7;stop-opacity:1"/><stop offset="0.8125" style="stop-color:#d8d8d8;stop-opacity:1"/><stop offset="0.828125" style="stop-color:#d9d9d9;stop-opacity:1"/><stop offset="0.84375" style="stop-color:#dadada;stop-opacity:1"/><stop offset="0.875" style="stop-color:#dadada;stop-opacity:1"/><stop offset="1" style="stop-color:#dadada;stop-opacity:1"/></linearGradient></defs><path d="M193.97 109.716V84.17h-4.17c-.133.068-.125.115-.197.248-1.4 2.72-2.99 5.545-4.408 8.273-.757 1.453-1.521 2.828-2.279 4.27l-1.705 3.191c-.179.345-.405.722-.556 1.063-.13-.122-.237-.374-.323-.539-.093-.19-.187-.344-.283-.524l-1.702-3.194c-.735-1.446-1.525-2.81-2.26-4.246-1.253-2.448-2.685-5-3.981-7.465-.176-.334-.424-.732-.56-1.077l-4.246.018v25.53l4.01-.005.01-17.202 3.492 6.28c1.105 2.075 2.343 4.203 3.492 6.296.632 1.155 1.69 3.158 2.318 4.188.262-.362.905-1.6 1.174-2.074l3.47-6.27c1.142-2.114 2.348-4.189 3.49-6.303l.864-1.557c.05-.09.23-.47.323-.514v17.16Zm-44.16-22.263c3.622-.377 7.333 1.791 8.966 4.992.556 1.095.94 2.233 1.041 3.654.38 5.405-3.679 9.583-8.592 10.014-1.422.125-2.857-.133-4.038-.589-2.074-.8-3.97-2.423-4.95-4.407-1.65-3.331-1.392-7.035.805-9.95.172-.225.344-.416.516-.634a7.08 7.08 0 0 1 .585-.603c.184-.17.406-.356.625-.528 1.49-1.166 3.033-1.74 5.043-1.949zm-12.633 10.265c.337 4.11 2.28 7.113 4.368 8.98 2.297 2.056 5.563 3.71 9.92 3.438 2.006-.126 3.64-.703 5.197-1.475 1.594-.79 2.8-1.874 3.758-2.925 1.956-2.132 3.754-5.743 3.41-9.877-.453-5.513-3.97-9.842-8.485-11.557-3.65-1.386-7.512-1.199-10.993.6-.768.394-1.429.836-2.046 1.316-.7.542-1.16 1.009-1.72 1.601-1.941 2.06-3.743 5.81-3.409 9.899zm-51.04-10.276c1.547-.082 3.65-.01 5.086.266 4.672.9 7.02 3.783 7.023 9.156.003 5.33-2.404 8.294-7.038 9.141-1.31.24-3.772.377-5.09.251zm1.97 22.701c3.88 0 7.638-.95 10.487-3.302 1.232-1.019 2.208-2.537 2.832-4.063.697-1.69 1.034-3.747 1.041-5.828.008-4.889-1.529-8.959-5.707-11.378-1.776-1.03-4.138-1.669-6.524-1.895-1.608-.15-6.565-.168-8.288-.118l-.008 26.58zm46.263-20.08c.306-.363 1.637-1.63 2.1-2.107.176-.183.546-.524.664-.707-.118-.216-1.062-.97-1.32-1.156-6.16-4.54-14.583-3.037-18.808 2.95-1.263 1.791-2.476 4.512-2.476 7.354v.765c0 2.892 1.199 5.577 2.484 7.39 1.281 1.816 3.007 3.316 5.398 4.432 3.6 1.683 8.344 1.533 11.919-.528.729-.42 2.275-1.46 2.817-2.114l-2.831-2.806-1.27.994c-6.174 4.185-14.512-.359-14.515-7.623v-.212c-.003-5.043 4.231-9.231 9.317-9.231 4.084 0 6.166 2.484 6.521 2.598zm-67.618 20.073c2.785.13 6.026-.398 8.007-1.6 1.041-.632 1.802-1.36 2.43-2.38 1.565-2.548 1.339-5.283 1.339-8.226V83.573l-4.34.004c-.057 2.49-.002 5.046-.002 7.544v7.534c0 1.216.018 2.455-.143 3.628-.17 1.242-.535 1.888-1.242 2.505-1.429 1.25-3.715 1.443-6.051 1.493zm39.229-3.058a2.578 2.578 0 0 0 2.932 2.168 2.572 2.572 0 0 0 2.16-2.922c-.179-1.28-1.392-2.386-2.914-2.167-1.27.18-2.4 1.378-2.178 2.921" style="fill:#d4231e;fill-opacity:1;fill-rule:evenodd;stroke:none;stroke-width:.918804" transform="translate(-13.323 -74.572)"/><g clip-path="url(#a)" transform="matrix(.9188 0 0 .9188 -.392 -.592)"><g clip-path="url(#b)" clip-rule="evenodd"><g clip-path="url(#c)" clip-rule="nonzero"><path d="M21.945 34.984v-3.922H26.5v3.922zm0 0" style="fill:url(#d);fill-rule:nonzero;stroke:none"/></g></g></g><g clip-path="url(#e)" transform="matrix(.9188 0 0 .9188 -.392 -.592)"><g clip-path="url(#f)" clip-rule="evenodd"><g clip-path="url(#g)" clip-rule="nonzero"><path d="M9.215 39.875V0h43.597v39.875zm0 0" style="fill:url(#h);fill-rule:nonzero;stroke:none"/></g></g></g><path d="M57.216 89.118c.377-.631.725-1.292 1.037-1.97-2.175 1.637-5.33 2.419-8.556 2.272-3.959-.18-8.018-1.759-10.523-4.555-.819-.918-1.619-.301-.926.64 3.854 4.6 12.052 6.66 18.968 3.613" style="fill:#000;fill-opacity:1;fill-rule:evenodd;stroke:none;stroke-width:.918804" transform="translate(-13.323 -74.572)"/><g clip-path="url(#i)" transform="matrix(.9188 0 0 .9188 -.392 -.592)"><g clip-path="url(#j)" clip-rule="evenodd"><g clip-path="url(#k)" clip-rule="nonzero"><path d="M23.738 38.734v-5.293h3.996v5.293zm0 0" style="fill:url(#l);fill-rule:nonzero;stroke:none"/></g></g></g><g clip-path="url(#m)" transform="matrix(.9188 0 0 .9188 -.392 -.592)"><g clip-path="url(#n)" clip-rule="evenodd"><g clip-path="url(#o)" clip-rule="nonzero"><path d="M29.04 39.875v-6.43h5.179v6.43Zm0 0" style="fill:url(#p);fill-rule:nonzero;stroke:none"/></g></g></g><path d="M39.12 79.108c.736 0 1.335.55 1.335 1.22 0 .676-.6 1.221-1.335 1.221-.736 0-1.332-.545-1.332-1.22 0-.671.596-1.22 1.332-1.22" style="fill:#000;fill-opacity:1;fill-rule:evenodd;stroke:none;stroke-width:.918804" transform="translate(-13.323 -74.572)"/><g clip-path="url(#q)" transform="matrix(.9188 0 0 .9188 -.392 -.592)"><g clip-path="url(#r)" clip-rule="evenodd"><g clip-path="url(#s)" clip-rule="nonzero"><path d="M40.324 5.371v-3.64h8.614v3.64zm0 0" style="fill:url(#t);fill-rule:nonzero;stroke:none"/></g></g></g><path d="m39.493 99.394.226-.937c2.096.216 3.952.205 5.326-.262v.894c-1.202.79-3.287.642-5.552.305" style="fill:#94261e;fill-opacity:1;fill-rule:evenodd;stroke:none;stroke-width:.918804" transform="translate(-13.323 -74.572)"/><g clip-path="url(#u)" transform="matrix(.9188 0 0 .9188 -.392 -.592)"><g clip-path="url(#v)" clip-rule="evenodd"><g clip-path="url(#w)" clip-rule="nonzero"><path d="M.16 23.633V8.352h11.106v15.28zm0 0" style="fill:url(#x);fill-rule:nonzero;stroke:none"/></g></g></g><g clip-path="url(#y)" transform="matrix(.9188 0 0 .9188 -.392 -.592)"><g clip-path="url(#z)" clip-rule="evenodd"><g clip-path="url(#A)" clip-rule="nonzero"><path d="M2.207 23.406V11.133h8.055v12.273Zm0 0" style="fill:url(#B);fill-rule:nonzero;stroke:none"/></g></g></g></svg>