<?xml version="1.0" encoding="UTF-8" standalone="no"?>
<!-- Created with Inkscape (http://www.inkscape.org/) -->

<svg
   version="1.1"
   id="svg2"
   width="384.0000"
   height="114.0000"
   viewBox="371.5000 344.0000 384.0000 114.0000"
   xmlns="http://www.w3.org/2000/svg"
   xmlns:svg="http://www.w3.org/2000/svg">
  <defs
     id="defs6">
    <clipPath
       clipPathUnits="userSpaceOnUse"
       id="clipPath18">
      <path
         d="M 0,612.288 H 858.898 V 0 H 0 Z"
         id="path16" />
    </clipPath>
    <clipPath
       clipPathUnits="userSpaceOnUse"
       id="clipPath58">
      <path
         d="m 301.343,331.54 c -11.099,-11.1 -11.099,-29.099 0,-40.198 v 0 c 11.102,-11.103 29.101,-11.103 40.202,0 v 0 c 11.099,11.099 11.099,29.099 0,40.198 v 0 c -5.552,5.551 -12.826,8.327 -20.1,8.327 v 0 c -7.276,0 -14.55,-2.776 -20.102,-8.327"
         id="path56" />
    </clipPath>
    <clipPath
       clipPathUnits="userSpaceOnUse"
       id="clipPath70">
      <path
         d="m 301.423,331.659 c -11.101,-11.099 -11.101,-29.099 0,-40.199 v 0 c 11.1,-11.099 29.098,-11.099 40.2,0 v 0 c 11.099,11.102 11.099,29.1 0,40.199 v 0 c -5.55,5.549 -12.825,8.324 -20.101,8.324 v 0 c -7.274,0 -14.548,-2.775 -20.099,-8.324"
         id="path68" />
    </clipPath>
    <clipPath
       clipPathUnits="userSpaceOnUse"
       id="clipPath130">
      <path
         d="M 0,612.288 H 858.898 V 0 H 0 Z"
         id="path128" />
    </clipPath>
  </defs>
  <g
     id="g10"
     transform="matrix(1.3333333,0,0,-1.3333333,0,816.384)">
    <g
       id="g12">
      <g
         id="g14"
         clip-path="url(#clipPath18)">
        <g
           id="g20"
           transform="translate(397.0937,296.4519)">
          <path
             d="m 0,0 h -3.869 c -0.587,0 -0.832,0.245 -0.832,0.833 v 17.381 c 0,3.037 -1.616,4.751 -4.505,4.751 -2.986,0 -4.212,-1.812 -4.212,-4.652 V 0.833 C -13.418,0.245 -13.711,0 -14.299,0 h -3.867 c -0.588,0 -0.833,0.245 -0.833,0.833 v 17.381 c 0,3.037 -1.615,4.751 -4.504,4.751 -2.791,0 -4.21,-0.882 -4.21,-3.38 V 0.833 C -27.713,0.245 -27.959,0 -28.547,0 h -3.868 c -0.587,0 -0.882,0.245 -0.882,0.833 v 20.663 c 0,1.713 0.588,2.398 1.959,3.035 1.568,0.735 4.359,1.469 7.688,1.469 3.819,0 6.121,-1.126 7.736,-2.938 1.615,1.762 4.063,2.938 8.08,2.938 3.672,0 8.666,-1.665 8.666,-7.541 V 0.833 C 0.832,0.245 0.588,0 0,0"
             style="fill:#adda1a;fill-opacity:1;fill-rule:nonzero;stroke:none"
             id="path22" />
        </g>
        <g
           id="g24"
           transform="translate(409.7227,296.4519)">
          <path
             d="M 0,0 H -3.918 C -4.506,0 -4.75,0.245 -4.75,0.833 v 23.698 c 0,0.587 0.244,0.832 0.832,0.832 H 0 c 0.588,0 0.832,-0.245 0.832,-0.832 V 0.833 C 0.832,0.245 0.588,0 0,0 m -1.959,29.624 c -1.91,0 -3.23,1.175 -3.23,2.644 0,1.469 1.32,2.644 3.23,2.644 1.908,0 3.232,-1.175 3.232,-2.644 0,-1.469 -1.324,-2.644 -3.232,-2.644"
             style="fill:#adda1a;fill-opacity:1;fill-rule:nonzero;stroke:none"
             id="path26" />
        </g>
        <g
           id="g28"
           transform="translate(432.4395,318.1926)">
          <path
             d="m 0,0 c -0.783,0.636 -1.861,1.224 -3.77,1.224 -4.114,0 -6.804,-4.162 -6.804,-10.332 0,-6.708 3.572,-9.842 6.951,-9.842 2.448,0 3.623,0.93 3.623,2.695 z m 3.771,-20.711 c -1.324,-0.883 -4.457,-1.665 -7.541,-1.665 -9.058,0 -12.436,5.777 -12.436,12.632 0,6.806 3.77,13.954 11.456,13.954 2.449,0 4.115,-0.881 4.75,-1.321 v 11.996 c 0,0.588 0.295,0.832 0.882,0.832 h 3.866 c 0.588,0 0.834,-0.244 0.834,-0.832 v -32.023 c 0,-1.763 -0.438,-2.645 -1.811,-3.573"
             style="fill:#adda1a;fill-opacity:1;fill-rule:nonzero;stroke:none"
             id="path30" />
        </g>
        <g
           id="g32"
           transform="translate(454.2266,319.3181)">
          <path
             d="m 0,0 c -4.015,0 -5.68,-4.358 -5.68,-9.646 0,-5.386 1.713,-10.379 5.827,-10.379 4.308,0 5.778,4.456 5.778,9.792 C 5.925,-4.896 4.162,0 0,0 m 0.098,-23.503 c -7.395,0 -11.508,5.925 -11.508,13.417 0,7.491 4.263,13.219 11.508,13.219 7.246,0 11.554,-5.728 11.554,-13.219 0,-7.492 -4.162,-13.417 -11.554,-13.417"
             style="fill:#adda1a;fill-opacity:1;fill-rule:nonzero;stroke:none"
             id="path34" />
        </g>
        <g
           id="g36"
           transform="translate(492.123,296.4519)">
          <path
             d="M 0,0 H -4.311 C -4.946,0 -5.19,0.294 -5.584,0.784 l -7.736,9.89 c -0.782,0.979 -1.368,2.203 -1.368,2.203 h -0.099 V 0.833 C -14.787,0.245 -15.082,0 -15.669,0 h -3.769 c -0.589,0 -0.882,0.245 -0.882,0.833 v 35.792 c 0,0.588 0.293,0.833 0.882,0.833 h 3.769 c 0.587,0 0.882,-0.245 0.882,-0.833 v -22.23 h 0.099 l 8.909,10.185 c 0.392,0.441 0.636,0.783 1.322,0.783 h 3.525 c 0.588,0 0.881,-0.245 0.881,-0.832 0,-0.196 -0.145,-0.489 -0.342,-0.685 L -9.647,14.101 0.635,1.519 C 0.831,1.321 0.881,1.028 0.881,0.833 0.881,0.245 0.587,0 0,0"
             style="fill:#c2c4c6;fill-opacity:1;fill-rule:nonzero;stroke:none"
             id="path38" />
        </g>
        <g
           id="g40"
           transform="translate(515.9639,297.4304)">
          <path
             d="m 0,0 c -1.271,-0.733 -4.405,-1.565 -8.422,-1.565 -3.329,0 -9.987,0.685 -9.987,7.638 v 17.48 c 0,0.587 0.244,0.831 0.832,0.831 h 3.918 c 0.588,0 0.831,-0.244 0.831,-0.831 V 6.269 c 0,-2.938 1.764,-4.408 4.506,-4.408 3.868,0 4.504,1.324 4.504,3.134 v 18.558 c 0,0.587 0.245,0.831 0.833,0.831 h 3.917 c 0.588,0 0.831,-0.244 0.831,-0.831 V 3.428 C 1.763,1.567 1.128,0.638 0,0"
             style="fill:#c2c4c6;fill-opacity:1;fill-rule:nonzero;stroke:none"
             id="path42" />
        </g>
        <g
           id="g44"
           transform="translate(537.7998,316.4294)">
          <path
             d="m 0,0 c -2.645,0 -2.104,2.938 -4.896,2.938 -1.861,0 -3.037,-0.931 -3.037,-2.498 v -19.585 c 0,-0.587 -0.293,-0.833 -0.88,-0.833 h -3.869 c -0.588,0 -0.881,0.246 -0.881,0.833 V 1.518 c 0,1.615 0.538,2.398 2.007,3.085 1.519,0.685 4.358,1.419 7.494,1.419 4.551,0 6.411,-1.615 6.411,-3.573 C 2.349,0.979 1.519,0 0,0"
             style="fill:#c2c4c6;fill-opacity:1;fill-rule:nonzero;stroke:none"
             id="path46" />
        </g>
        <g
           id="g48"
           transform="translate(556.5039,309.6716)">
          <path
             d="m 0,0 c -4.557,-0.931 -8.766,-2.252 -8.766,-6.511 0,-2.35 1.713,-4.308 4.897,-4.308 1.859,0 3.869,0.635 3.869,2.741 z m 3.523,-12.338 c -1.077,-0.735 -4.209,-1.517 -7.294,-1.517 -5.68,0 -10.381,2.153 -10.381,6.902 0,6.61 8.08,8.276 14.152,9.451 v 3.329 c 0,2.449 -1.47,3.967 -3.576,3.967 -2.741,0 -4.065,-2.253 -4.504,-3.82 -0.295,-1.028 -1.274,-1.665 -2.498,-1.665 -1.319,0 -2.496,0.735 -2.496,2.253 0,2.154 2.888,6.218 10.281,6.218 4.456,0 8.178,-2.398 8.178,-7.393 V -8.421 c 0,-2.104 -0.489,-2.987 -1.862,-3.917"
             style="fill:#c2c4c6;fill-opacity:1;fill-rule:nonzero;stroke:none"
             id="path50" />
        </g>
      </g>
    </g>
    <g
       id="g52">
      <g
         id="g54"
         clip-path="url(#clipPath58)">
        <g
           id="g60"
           transform="translate(342.2187,300.4421)">
          <path
             d="m 0,0 c 0,-0.761 0.617,-1.376 1.378,-1.376 0.763,0 1.376,0.615 1.376,1.376 0,0.762 -0.613,1.376 -1.376,1.376 C 0.553,1.379 0,0.725 0,0 m -11.053,-11.055 c 0,-0.758 0.617,-1.376 1.379,-1.376 0.76,0 1.375,0.618 1.375,1.376 0,0.762 -0.615,1.378 -1.378,1.378 -0.825,0 -1.376,-0.654 -1.376,-1.378 m -22.111,0 c 0,-0.758 0.616,-1.376 1.378,-1.376 0.761,0 1.378,0.618 1.378,1.376 -0.002,0.762 -0.617,1.378 -1.378,1.378 -0.826,0 -1.378,-0.654 -1.378,-1.378 M -44.218,0.003 c 0,-0.76 0.617,-1.378 1.377,-1.378 0.761,10e-4 1.378,0.618 1.378,1.378 0,0.761 -0.617,1.377 -1.378,1.377 -0.824,0 -1.376,-0.652 -1.377,-1.377 m 11.054,-11.058 c 0,-0.758 0.616,-1.376 1.378,-1.376 0.761,0 1.378,0.618 1.378,1.376 -0.002,0.762 -0.617,1.378 -1.378,1.378 -0.826,0 -1.378,-0.654 -1.378,-1.378 m 11.056,0 c 0,-0.758 0.617,-1.376 1.379,-1.376 0.759,0 1.375,0.618 1.375,1.376 -0.001,0.762 -0.616,1.378 -1.376,1.378 -0.826,0 -1.378,-0.654 -1.378,-1.378 M -11.643,0 c 0,-1.087 0.881,-1.968 1.969,-1.969 1.086,0 1.965,0.882 1.965,1.968 -0.001,1.086 -0.879,1.967 -1.965,1.967 -1.18,0 -1.969,-0.933 -1.969,-1.966 m -21.521,33.166 c 0,-0.762 0.616,-1.38 1.378,-1.38 0.761,0 1.378,0.618 1.378,1.378 -10e-4,0.762 -0.617,1.377 -1.378,1.379 -0.825,0 -1.378,-0.655 -1.378,-1.377 M -44.218,22.11 c 0,-0.762 0.615,-1.377 1.377,-1.377 0.761,0 1.378,0.615 1.378,1.377 0,0.761 -0.617,1.378 -1.378,1.378 -0.824,-0.001 -1.376,-0.655 -1.377,-1.378 m 0,-22.107 c 0,-0.76 0.617,-1.378 1.377,-1.378 0.761,10e-4 1.378,0.618 1.378,1.378 0,0.761 -0.617,1.377 -1.378,1.377 -0.824,0 -1.376,-0.652 -1.377,-1.377 m 0,11.052 c 0,-0.761 0.617,-1.377 1.377,-1.377 0.761,0 1.378,0.616 1.378,1.377 0,0.762 -0.617,1.377 -1.378,1.377 -0.824,0 -1.376,-0.653 -1.377,-1.377 m 10.466,11.053 c 0,-1.086 0.88,-1.965 1.967,-1.966 1.087,0.001 1.968,0.88 1.968,1.966 -0.001,1.088 -0.881,1.968 -1.969,1.968 -1.177,0 -1.966,-0.933 -1.966,-1.968 m 0,-11.053 c 0,-1.088 0.88,-1.969 1.968,-1.97 1.087,10e-4 1.967,0.882 1.967,1.97 -0.001,1.086 -0.881,1.967 -1.969,1.967 -1.177,0 -1.966,-0.934 -1.966,-1.967 m 0,-11.056 c 0,-1.086 0.88,-1.968 1.967,-1.968 1.087,0.001 1.968,0.882 1.968,1.968 0,1.088 -0.882,1.969 -1.969,1.967 -1.177,0.002 -1.966,-0.933 -1.966,-1.967 M -22.698,0 c 0.001,-1.087 0.883,-1.969 1.969,-1.969 1.085,0 1.966,0.882 1.966,1.968 -0.002,1.088 -0.881,1.967 -1.966,1.967 C -21.909,1.968 -22.698,1.033 -22.698,0 M 0,0 c 0,-0.761 0.617,-1.376 1.378,-1.376 0.763,0 1.376,0.615 1.376,1.376 0,0.762 -0.613,1.376 -1.376,1.376 C 0.553,1.379 0,0.725 0,0 m -11.053,-11.055 c 0,-0.758 0.617,-1.376 1.379,-1.376 0.76,0 1.375,0.618 1.375,1.376 0,0.762 -0.615,1.378 -1.378,1.378 -0.825,0 -1.376,-0.654 -1.376,-1.378 m -11.055,0 c 0,-0.758 0.617,-1.376 1.379,-1.376 0.759,0 1.375,0.618 1.375,1.376 -0.001,0.762 -0.616,1.378 -1.376,1.378 -0.826,0 -1.378,-0.654 -1.378,-1.378 M -11.643,0 c 0,-1.087 0.881,-1.968 1.969,-1.969 1.086,0 1.965,0.882 1.965,1.968 -0.001,1.086 -0.879,1.967 -1.965,1.967 -1.18,0 -1.969,-0.933 -1.969,-1.966 m -21.521,33.166 c 0,-0.762 0.616,-1.38 1.378,-1.38 0.761,0 1.378,0.618 1.378,1.378 -10e-4,0.762 -0.617,1.377 -1.378,1.379 -0.825,0 -1.378,-0.655 -1.378,-1.377 M -44.218,22.11 c 0,-0.762 0.615,-1.377 1.377,-1.377 0.761,0 1.378,0.615 1.378,1.377 0,0.761 -0.617,1.378 -1.378,1.378 -0.824,-0.001 -1.376,-0.655 -1.377,-1.378 m 0,-11.055 c 0,-0.761 0.617,-1.377 1.377,-1.377 0.761,0 1.378,0.616 1.378,1.377 0,0.762 -0.617,1.377 -1.378,1.377 -0.824,0 -1.376,-0.653 -1.377,-1.377 m 10.466,11.053 c 0,-1.086 0.88,-1.965 1.967,-1.966 1.087,0.001 1.968,0.88 1.968,1.966 -0.001,1.088 -0.881,1.968 -1.969,1.968 -1.177,0 -1.966,-0.933 -1.966,-1.968 m 0,-11.053 c 0,-1.088 0.88,-1.969 1.968,-1.97 1.087,10e-4 1.967,0.882 1.967,1.97 -0.001,1.086 -0.881,1.967 -1.969,1.967 -1.177,0 -1.966,-0.934 -1.966,-1.967 m 0,-11.056 c 0,-1.086 0.88,-1.968 1.967,-1.968 1.087,0.001 1.968,0.882 1.968,1.968 0,1.088 -0.882,1.969 -1.969,1.967 -1.177,0.002 -1.966,-0.933 -1.966,-1.967 M -22.698,0 c 0.001,-1.087 0.883,-1.969 1.969,-1.969 1.085,0 1.966,0.882 1.966,1.968 -0.002,1.088 -0.881,1.967 -1.966,1.967 -1.18,0.002 -1.969,-0.933 -1.969,-1.966 m 12.46,49.354 c 0,-2.746 -2.228,-4.973 -4.975,-4.973 -1.433,10e-4 -2.718,0.608 -3.628,1.577 l 0.003,-0.049 c -0.485,0.443 -1.13,0.715 -1.84,0.714 -1.51,-10e-4 -2.733,-1.222 -2.732,-2.733 -0.001,-1.51 1.222,-2.732 2.732,-2.732 0.709,10e-4 1.355,0.271 1.84,0.714 v -0.051 c 0.907,0.97 2.192,1.577 3.627,1.577 2.745,0 4.973,-2.228 4.973,-4.974 0,-2.746 -2.228,-4.974 -4.975,-4.974 -1.433,0.002 -2.718,0.61 -3.628,1.577 v -0.052 c -0.482,0.442 -1.128,0.716 -1.837,0.716 -1.51,0 -2.733,-1.223 -2.732,-2.731 0,-1.512 1.222,-2.734 2.732,-2.734 0.709,0 1.355,0.273 1.84,0.717 l 0.001,-0.053 c 0.905,0.969 2.191,1.576 3.626,1.576 2.745,0.002 4.973,-2.226 4.973,-4.972 0,-2.748 -2.227,-4.976 -4.975,-4.976 -1.433,0 -2.718,0.609 -3.625,1.578 v -0.052 c -0.485,0.441 -1.131,0.717 -1.84,0.717 -1.51,0 -2.732,-1.224 -2.732,-2.736 -0.001,-1.506 1.222,-2.731 2.732,-2.731 0.709,0 1.355,0.272 1.84,0.717 v -0.053 c 0.906,0.968 2.192,1.578 3.625,1.578 2.747,0 4.975,-2.228 4.975,-4.974 0,-1.433 -0.611,-2.721 -1.576,-3.628 h 0.05 c -0.441,-0.487 -0.715,-1.13 -0.715,-1.838 0,-1.511 1.223,-2.734 2.733,-2.734 1.508,0 2.731,1.222 2.731,2.734 0.002,0.708 -0.27,1.352 -0.715,1.838 h 0.054 c -0.97,0.907 -1.579,2.195 -1.578,3.627 -0.001,2.747 2.227,4.975 4.975,4.975 2.746,0 4.972,-2.228 4.972,-4.977 0,-1.43 -0.608,-2.718 -1.576,-3.625 l 0.052,-10e-4 c -0.443,-0.485 -0.715,-1.129 -0.716,-1.837 0,-1.512 1.223,-2.734 2.735,-2.734 1.506,0 2.731,1.223 2.731,2.734 0,0.708 -0.273,1.351 -0.716,1.838 h 0.051 c -0.968,0.907 -1.577,2.195 -1.577,3.627 0,2.747 2.227,4.975 4.973,4.975 2.748,0 4.975,-2.228 4.975,-4.974 0,-1.433 -0.607,-2.721 -1.575,-3.627 l 0.05,-0.001 c -0.444,-0.486 -0.715,-1.13 -0.715,-1.838 0,-1.512 1.222,-2.734 2.732,-2.734 1.509,0 2.731,1.222 2.731,2.734 0,0.708 -0.27,1.352 -0.714,1.838 h 0.052 c -0.969,0.907 -1.577,2.196 -1.577,3.627 0,2.747 2.225,4.975 4.973,4.975 z M -20.729,13.786 c 1.508,-10e-4 2.734,-1.223 2.734,-2.734 0,-1.508 -1.225,-2.731 -2.733,-2.733 -1.511,0.002 -2.734,1.225 -2.734,2.736 0,1.433 1.096,2.731 2.733,2.731"
             style="fill:#55c4e6;fill-opacity:1;fill-rule:nonzero;stroke:none"
             id="path62" />
        </g>
      </g>
    </g>
    <g
       id="g64">
      <g
         id="g66"
         clip-path="url(#clipPath70)">
        <g
           id="g72"
           transform="translate(323.4443,311.5046)">
          <path
             d="M 0,0 C 0,1.086 -0.881,1.967 -1.969,1.968 -3.055,1.967 -3.936,1.086 -3.936,0 c 0,-1.087 0.881,-1.967 1.968,-1.967 C -0.789,-1.967 0,-1.032 0,0"
             style="fill:#adda1a;fill-opacity:1;fill-rule:nonzero;stroke:none"
             id="path74" />
        </g>
        <g
           id="g76"
           transform="translate(310.9868,273.2038)">
          <path
             d="M 0,0 C -0.001,2.748 2.226,4.977 4.973,4.977 6.405,4.976 7.692,4.365 8.6,3.397 v 0.05 c 0.484,-0.443 1.13,-0.716 1.838,-0.714 1.51,0.002 2.734,1.222 2.734,2.732 0,1.51 -1.224,2.733 -2.734,2.733 C 9.73,8.197 9.084,7.925 8.6,7.482 V 7.534 C 7.692,6.566 6.405,5.958 4.973,5.958 2.226,5.958 0,8.186 0,10.932 -0.001,13.678 2.226,15.906 4.973,15.906 6.405,15.904 7.692,15.297 8.6,14.328 l 0.001,0.052 c 0.483,-0.442 1.129,-0.717 1.837,-0.717 1.51,0 2.734,1.224 2.734,2.733 0,1.51 -1.224,2.735 -2.734,2.735 -0.708,0 -1.354,-0.274 -1.838,-0.717 v 0.052 C 7.693,17.496 6.407,16.89 4.973,16.89 2.226,16.89 0,19.117 0,21.863 c 0,2.746 2.226,4.972 4.973,4.972 1.432,0 2.719,-0.606 3.627,-1.575 v 0.053 c 0.484,-0.445 1.13,-0.719 1.838,-0.719 1.51,0 2.734,1.225 2.734,2.735 0,1.509 -1.224,2.733 -2.734,2.733 -0.708,0 -1.354,-0.273 -1.838,-0.717 v 0.054 c -0.907,-0.97 -2.193,-1.578 -3.625,-1.578 -2.749,0 -4.976,2.226 -4.976,4.974 0.001,1.432 0.609,2.72 1.577,3.626 H 1.524 c 0.444,0.486 0.716,1.132 0.715,1.836 0.001,1.511 -1.222,2.734 -2.732,2.734 -1.509,0 -2.732,-1.222 -2.732,-2.733 -0.002,-0.705 0.271,-1.351 0.716,-1.837 h -0.053 c 0.968,-0.906 1.577,-2.194 1.576,-3.626 0,-2.748 -2.226,-4.974 -4.972,-4.974 -2.748,0 -4.975,2.226 -4.974,4.974 0,1.432 0.608,2.72 1.576,3.626 l -0.05,10e-4 c 0.441,0.485 0.714,1.127 0.714,1.836 0,1.511 -1.224,2.735 -2.733,2.733 -1.51,0.002 -2.731,-1.223 -2.732,-2.734 10e-4,-0.704 0.272,-1.35 0.715,-1.836 h -0.051 c 0.968,-0.906 1.577,-2.194 1.577,-3.626 0,-2.748 -2.228,-4.974 -4.975,-4.974 -2.746,0 -4.973,2.226 -4.974,4.974 10e-4,1.432 0.608,2.72 1.578,3.626 h -0.052 c 0.444,0.486 0.715,1.132 0.715,1.836 0,1.512 -1.222,2.736 -2.732,2.734 -1.51,0.002 -2.732,-1.222 -2.733,-2.733 10e-4,-0.705 0.271,-1.351 0.714,-1.837 h -0.049 c 0.967,-0.906 1.576,-2.196 1.577,-3.626 0,-2.748 -2.227,-4.974 -4.975,-4.974 z"
             style="fill:#adda1a;fill-opacity:1;fill-rule:nonzero;stroke:none"
             id="path78" />
        </g>
        <g
           id="g80"
           transform="translate(323.4453,322.5559)">
          <path
             d="m 0,0 c 0,1.088 -0.88,1.97 -1.969,1.97 -1.087,0 -1.968,-0.882 -1.968,-1.967 0.003,-1.088 0.882,-1.967 1.969,-1.967 C -0.79,-1.967 0,-1.032 0,0"
             style="fill:#adda1a;fill-opacity:1;fill-rule:nonzero;stroke:none"
             id="path82" />
        </g>
        <g
           id="g84"
           transform="translate(334.5,322.5588)">
          <path
             d="M 0,0 C 0,1.085 -0.879,1.967 -1.969,1.967 -3.055,1.965 -3.936,1.085 -3.934,0 c 0,-1.088 0.879,-1.97 1.967,-1.967 C -0.789,-1.97 0,-1.035 0,0"
             style="fill:#adda1a;fill-opacity:1;fill-rule:nonzero;stroke:none"
             id="path86" />
        </g>
        <g
           id="g88"
           transform="translate(334.5,311.5031)">
          <path
             d="M 0,0 C 0,1.087 -0.879,1.967 -1.969,1.969 -3.055,1.967 -3.936,1.087 -3.936,0 -3.934,-1.085 -3.055,-1.965 -1.967,-1.966 -0.79,-1.966 0,-1.032 0,0"
             style="fill:#adda1a;fill-opacity:1;fill-rule:nonzero;stroke:none"
             id="path90" />
        </g>
        <g
           id="g92"
           transform="translate(333.5156,300.4509)">
          <path
             d="m 0,0 c 0,0.543 -0.439,0.982 -0.984,0.982 -0.543,0 -0.983,-0.439 -0.983,-0.982 0,-0.543 0.44,-0.984 0.985,-0.984 C -0.395,-0.984 0,-0.517 0,0"
             style="fill:#adda1a;fill-opacity:1;fill-rule:nonzero;stroke:none"
             id="path94" />
        </g>
        <g
           id="g96"
           transform="translate(344.8867,311.5031)">
          <path
             d="M 0,0 C 0,0.761 -0.615,1.376 -1.378,1.376 -2.137,1.376 -2.754,0.761 -2.754,0 -2.752,-0.759 -2.137,-1.375 -1.378,-1.375 -0.553,-1.375 0,-0.721 0,0"
             style="fill:#adda1a;fill-opacity:1;fill-rule:nonzero;stroke:none"
             id="path98" />
        </g>
        <g
           id="g100"
           transform="translate(344.9648,300.4509)">
          <path
             d="m 0,0 c 0,0.759 -0.616,1.376 -1.377,1.377 -0.762,0 -1.377,-0.618 -1.377,-1.377 0,-0.765 0.615,-1.378 1.377,-1.378 C -0.553,-1.378 0,-0.727 0,0"
             style="fill:#adda1a;fill-opacity:1;fill-rule:nonzero;stroke:none"
             id="path102" />
        </g>
        <g
           id="g104"
           transform="translate(333.9111,289.3943)">
          <path
             d="M 0,0 C 0,0.76 -0.616,1.379 -1.378,1.377 -2.14,1.379 -2.755,0.76 -2.755,0 c 0,-0.76 0.617,-1.375 1.377,-1.377 C -0.554,-1.377 0,-0.722 0,0"
             style="fill:#adda1a;fill-opacity:1;fill-rule:nonzero;stroke:none"
             id="path106" />
        </g>
        <g
           id="g108"
           transform="translate(311.4058,322.5559)">
          <path
             d="m 0,0 c 0,0.545 -0.44,0.985 -0.983,0.985 -0.543,0 -0.982,-0.439 -0.984,-0.982 0.002,-0.543 0.441,-0.984 0.985,-0.984 C -0.394,-0.981 0,-0.515 0,0"
             style="fill:#adda1a;fill-opacity:1;fill-rule:nonzero;stroke:none"
             id="path110" />
        </g>
        <g
           id="g112"
           transform="translate(322.8584,333.4533)">
          <path
             d="m 0,0 c 0,0.762 -0.618,1.378 -1.381,1.378 -0.76,0 -1.377,-0.618 -1.375,-1.378 0,-0.761 0.615,-1.376 1.377,-1.376 C -0.554,-1.376 0,-0.723 0,0"
             style="fill:#adda1a;fill-opacity:1;fill-rule:nonzero;stroke:none"
             id="path114" />
        </g>
        <g
           id="g116"
           transform="translate(311.8018,333.6101)">
          <path
             d="m 0,0 c 0,0.763 -0.618,1.378 -1.378,1.378 -0.761,0 -1.377,-0.615 -1.377,-1.378 0,-0.76 0.615,-1.376 1.377,-1.376 C -0.553,-1.376 0,-0.722 0,0"
             style="fill:#adda1a;fill-opacity:1;fill-rule:nonzero;stroke:none"
             id="path118" />
        </g>
        <g
           id="g120"
           transform="translate(300.7471,322.5559)">
          <path
             d="M 0,0 C 0,0.761 -0.615,1.378 -1.379,1.378 -2.138,1.378 -2.755,0.761 -2.755,0 -2.754,-0.761 -2.138,-1.376 -1.377,-1.376 -0.552,-1.376 0,-0.723 0,0"
             style="fill:#adda1a;fill-opacity:1;fill-rule:nonzero;stroke:none"
             id="path122" />
        </g>
      </g>
    </g>
    <g
       id="g124">
      <g
         id="g126"
         clip-path="url(#clipPath130)">
        <g
           id="g132"
           transform="translate(531.4785,332.2663)">
          <path
             d="M 0,0 C -1.707,0.509 -3.604,0.714 -4.931,0.773 L -4.8,1.384 C -3.135,1.318 -1.479,1.111 0.135,0.691 Z m -0.492,-2.215 c -1.524,0.522 -2.871,0.728 -4.477,0.83 l 0.157,0.642 c 1.89,-0.154 3.054,-0.324 4.503,-0.802 z m 0.787,-2.651 c -1.824,0.685 -3.768,0.98 -5.719,1.053 l 0.139,0.647 c 2.318,-0.08 3.888,-0.405 5.749,-0.985 z"
             style="fill:#adda1a;fill-opacity:1;fill-rule:nonzero;stroke:none"
             id="path134" />
        </g>
        <g
           id="g136"
           transform="translate(540.9316,332.6047)">
          <path
             d="m 0,0 c -0.162,0.353 -0.332,0.67 -0.604,1.09 l 0.45,0.229 C 0.117,0.95 0.324,0.59 0.479,0.272 Z m -0.964,-0.381 c -0.083,0.19 -0.243,0.559 -0.611,1.125 l 0.471,0.228 c 0.088,-0.124 0.397,-0.574 0.625,-1.104 z m -2.444,1.61 v -1.95 c 1.523,-0.457 2.988,-1.2 3.724,-1.612 L 0,-3.033 c -0.957,0.59 -2.191,1.216 -3.408,1.627 v -3.856 h -0.707 v 6.491 z"
             style="fill:#adda1a;fill-opacity:1;fill-rule:nonzero;stroke:none"
             id="path138" />
        </g>
        <g
           id="g140"
           transform="translate(551.8047,332.7961)">
          <path
             d="m 0,0 c -0.529,-3.055 -2.104,-4.858 -5.204,-5.381 l -0.28,0.604 c 2.966,0.5 4.064,1.972 4.631,4.16 h -2.812 c -0.605,-0.759 -1.187,-1.37 -1.796,-1.746 l -0.428,0.509 c 1.283,0.817 1.996,1.869 2.409,2.93 L -2.754,0.943 C -2.863,0.678 -2.944,0.465 -3.229,0 Z"
             style="fill:#adda1a;fill-opacity:1;fill-rule:nonzero;stroke:none"
             id="path142" />
        </g>
        <path
           d="m 561.84,332.9 h -4.998 v 0.625 h 4.998 z m 0.411,-1.141 c -0.235,-2.011 -0.862,-3.917 -4.792,-4.307 l -0.273,0.604 c 1.805,0.176 3.88,0.538 4.278,3.084 h -5.145 l -0.008,0.619 z"
           style="fill:#adda1a;fill-opacity:1;fill-rule:nonzero;stroke:none"
           id="path144" />
        <g
           id="g146"
           transform="translate(437.0605,278.3435)">
          <path
             d="M 0,0 H 2.548 L 1.279,3.622 Z M -1.085,-3.146 H -2.44 L 0.434,4.598 H 2.157 L 5.021,-3.146 H 3.654 l -0.792,2.105 h -3.176 z"
             style="fill:#656263;fill-opacity:1;fill-rule:nonzero;stroke:none"
             id="path148" />
        </g>
        <g
           id="g150"
           transform="translate(450.3672,281.737)">
          <path
             d="m 0,0 c -0.542,0.206 -1.128,0.304 -1.681,0.304 -0.683,0 -1.398,-0.239 -1.398,-1.008 0,-0.608 0.423,-0.911 1.539,-1.367 1.366,-0.553 2.18,-1.106 2.18,-2.386 0,-1.539 -1.333,-2.212 -2.733,-2.212 -0.694,0 -1.572,0.13 -2.32,0.434 l 0.26,1.051 c 0.705,-0.314 1.464,-0.455 2.039,-0.455 0.899,0 1.496,0.358 1.496,1.096 0,0.672 -0.585,1.019 -1.692,1.464 -1.279,0.52 -2.039,1.16 -2.039,2.266 0,1.518 1.378,2.147 2.625,2.147 0.715,0 1.41,-0.098 1.973,-0.304 z"
             style="fill:#656263;fill-opacity:1;fill-rule:nonzero;stroke:none"
             id="path152" />
        </g>
        <g
           id="g154"
           transform="translate(455.0957,280.1111)">
          <path
             d="m 0,0 c -1.062,0 -1.551,-0.847 -1.551,-2.039 0,-1.226 0.51,-2.061 1.551,-2.061 1.062,0 1.551,0.835 1.551,2.061 C 1.551,-0.847 1.062,0 0,0 m 0,-5.043 c -1.702,0 -2.787,1.139 -2.787,3.004 0,1.865 1.085,2.982 2.787,2.982 1.714,0 2.787,-1.117 2.787,-2.982 0,-1.865 -1.085,-3.004 -2.787,-3.004"
             style="fill:#656263;fill-opacity:1;fill-rule:nonzero;stroke:none"
             id="path156" />
        </g>
        <g
           id="g158"
           transform="translate(460.7354,280.9236)">
          <path
             d="m 0,0 v -0.802 h 0.022 c 0.315,0.596 0.998,0.933 1.768,0.933 1.29,0 2.082,-0.824 2.082,-2.082 V -5.726 H 2.636 v 3.308 c 0,0.998 -0.261,1.606 -1.204,1.606 -0.683,0 -1.399,-0.489 -1.399,-1.747 V -5.726 H -1.203 V 0 Z"
             style="fill:#656263;fill-opacity:1;fill-rule:nonzero;stroke:none"
             id="path160" />
        </g>
        <g
           id="g162"
           transform="translate(468.5879,276.7058)">
          <path
             d="m 0,0 h 0.021 l 1.53,4.218 h 1.301 l -3.113,-7.84 h -1.301 l 0.922,2.234 -2.245,5.606 h 1.345 z"
             style="fill:#656263;fill-opacity:1;fill-rule:nonzero;stroke:none"
             id="path164" />
        </g>
        <g
           id="g166"
           transform="translate(481.3418,281.5749)">
          <path
             d="m 0,0 c -0.467,0.271 -1.139,0.466 -1.801,0.466 -1.745,0 -2.83,-1.215 -2.83,-3.015 0,-1.604 1.03,-2.928 2.766,-2.928 0.444,0 0.835,0.066 1.16,0.239 V -3.08 H -2.18 v 1.041 h 2.743 v -3.903 c -0.834,-0.423 -1.702,-0.565 -2.515,-0.565 -2.375,0 -3.947,1.638 -3.947,3.98 0,2.332 1.485,4.023 4.087,4.023 0.782,0 1.551,-0.152 2.169,-0.444 z"
             style="fill:#656263;fill-opacity:1;fill-rule:nonzero;stroke:none"
             id="path168" />
        </g>
        <g
           id="g170"
           transform="translate(486.9053,280.0671)">
          <path
             d="m 0,0 c -0.142,0.033 -0.293,0.044 -0.467,0.044 -0.759,0 -1.377,-0.467 -1.377,-1.855 V -4.869 H -3.08 v 5.725 h 1.204 V 0.098 h 0.022 c 0.282,0.607 0.77,0.889 1.496,0.889 0.12,0 0.271,-0.011 0.413,-0.021 z"
             style="fill:#656263;fill-opacity:1;fill-rule:nonzero;stroke:none"
             id="path172" />
        </g>
        <g
           id="g174"
           transform="translate(490.6797,280.1111)">
          <path
             d="m 0,0 c -1.062,0 -1.551,-0.847 -1.551,-2.039 0,-1.226 0.51,-2.061 1.551,-2.061 1.062,0 1.551,0.835 1.551,2.061 C 1.551,-0.847 1.062,0 0,0 m 0,-5.043 c -1.702,0 -2.787,1.139 -2.787,3.004 0,1.865 1.085,2.982 2.787,2.982 1.713,0 2.787,-1.117 2.787,-2.982 0,-1.865 -1.085,-3.004 -2.787,-3.004"
             style="fill:#656263;fill-opacity:1;fill-rule:nonzero;stroke:none"
             id="path176" />
        </g>
        <g
           id="g178"
           transform="translate(498.9326,275.198)">
          <path
             d="M 0,0 V 0.803 H -0.021 C -0.336,0.206 -1.019,-0.13 -1.778,-0.13 c -1.29,0 -2.093,0.824 -2.093,2.082 v 3.774 h 1.236 V 2.419 c 0,-0.987 0.271,-1.606 1.215,-1.606 0.683,0 1.388,0.489 1.388,1.747 V 5.726 H 1.203 V 0 Z"
             style="fill:#656263;fill-opacity:1;fill-rule:nonzero;stroke:none"
             id="path180" />
        </g>
        <g
           id="g182"
           transform="translate(504.7998,280.1111)">
          <path
             d="m 0,0 c -1.008,0 -1.572,-0.89 -1.572,-2.05 0,-1.16 0.564,-2.05 1.572,-2.05 0.977,0 1.453,0.912 1.453,2.05 C 1.453,-0.911 0.977,0 0,0 M -1.507,-7.027 H -2.743 V 0.812 H -1.54 V 0.011 h 0.021 c 0.424,0.639 1.118,0.932 1.79,0.932 1.54,0 2.418,-1.323 2.418,-2.993 0,-1.68 -0.911,-2.993 -2.45,-2.993 -0.673,0 -1.291,0.228 -1.724,0.835 h -0.022 z"
             style="fill:#656263;fill-opacity:1;fill-rule:nonzero;stroke:none"
             id="path184" />
        </g>
        <g
           id="g186"
           transform="translate(517.3691,281.737)">
          <path
             d="m 0,0 c -0.401,0.195 -0.911,0.304 -1.432,0.304 -1.81,0 -2.678,-1.356 -2.678,-3.004 0,-1.562 0.9,-2.939 2.668,-2.939 0.618,0 1.094,0.119 1.529,0.336 l 0.27,-0.986 c -0.552,-0.272 -1.236,-0.38 -1.919,-0.38 -2.353,0 -3.817,1.648 -3.817,3.98 0,2.332 1.4,4.023 3.871,4.023 0.673,0 1.323,-0.108 1.801,-0.336 z"
             style="fill:#656263;fill-opacity:1;fill-rule:nonzero;stroke:none"
             id="path188" />
        </g>
        <g
           id="g190"
           transform="translate(521.6748,280.1111)">
          <path
             d="m 0,0 c -1.062,0 -1.551,-0.847 -1.551,-2.039 0,-1.226 0.51,-2.061 1.551,-2.061 1.062,0 1.551,0.835 1.551,2.061 C 1.551,-0.847 1.062,0 0,0 m 0,-5.043 c -1.702,0 -2.787,1.139 -2.787,3.004 0,1.865 1.085,2.982 2.787,2.982 1.714,0 2.787,-1.117 2.787,-2.982 0,-1.865 -1.084,-3.004 -2.787,-3.004"
             style="fill:#656263;fill-opacity:1;fill-rule:nonzero;stroke:none"
             id="path192" />
        </g>
        <g
           id="g194"
           transform="translate(527.3145,280.9236)">
          <path
             d="m 0,0 v -0.823 h 0.022 c 0.282,0.595 0.933,0.954 1.681,0.954 0.846,0 1.421,-0.326 1.692,-0.933 h 0.033 c 0.379,0.661 1.062,0.933 1.788,0.933 1.399,0 2.061,-0.846 2.061,-2.082 V -5.726 H 6.041 v 3.308 c 0,0.965 -0.185,1.606 -1.117,1.606 -0.618,0 -1.247,-0.402 -1.247,-1.421 V -5.726 H 2.44 v 3.373 c 0,0.965 -0.184,1.541 -1.106,1.541 -0.672,0 -1.301,-0.489 -1.301,-1.682 V -5.726 H -1.203 V 0 Z"
             style="fill:#656263;fill-opacity:1;fill-rule:nonzero;stroke:none"
             id="path196" />
        </g>
        <g
           id="g198"
           transform="translate(539.2012,280.1111)">
          <path
             d="m 0,0 c -1.008,0 -1.572,-0.89 -1.572,-2.05 0,-1.16 0.564,-2.05 1.572,-2.05 0.977,0 1.453,0.912 1.453,2.05 C 1.453,-0.911 0.977,0 0,0 M -1.507,-7.027 H -2.743 V 0.812 H -1.54 V 0.011 h 0.021 c 0.424,0.639 1.118,0.932 1.79,0.932 1.54,0 2.418,-1.323 2.418,-2.993 0,-1.68 -0.911,-2.993 -2.45,-2.993 -0.673,0 -1.291,0.228 -1.724,0.835 h -0.022 z"
             style="fill:#656263;fill-opacity:1;fill-rule:nonzero;stroke:none"
             id="path200" />
        </g>
        <g
           id="g202"
           transform="translate(546.5977,277.9743)">
          <path
             d="m 0,0 c -1.16,0 -2.201,-0.195 -2.201,-1.096 0,-0.552 0.325,-0.899 0.954,-0.899 1.019,0 1.485,0.748 1.485,1.551 V 0 Z m 0.238,0.954 c 0,0.759 -0.423,1.183 -1.333,1.183 -0.423,0 -0.976,-0.11 -1.464,-0.316 l -0.25,0.922 c 0.489,0.195 1.215,0.337 1.8,0.337 1.66,0 2.484,-0.737 2.484,-2.126 v -2.429 c 0,-0.401 0.021,-0.932 0.097,-1.301 H 0.477 C 0.412,-2.57 0.369,-2.255 0.347,-1.995 H 0.325 c -0.292,-0.531 -0.9,-0.911 -1.734,-0.911 -0.977,0 -1.985,0.477 -1.985,1.757 0,1.659 1.669,1.973 3.632,1.973 z"
             style="fill:#656263;fill-opacity:1;fill-rule:nonzero;stroke:none"
             id="path204" />
        </g>
        <g
           id="g206"
           transform="translate(551.1855,280.9236)">
          <path
             d="m 0,0 v -0.802 h 0.021 c 0.315,0.596 0.999,0.933 1.768,0.933 1.29,0 2.082,-0.824 2.082,-2.082 V -5.726 H 2.635 v 3.308 c 0,0.998 -0.261,1.606 -1.204,1.606 -0.683,0 -1.399,-0.489 -1.399,-1.747 V -5.726 H -1.204 V 0 Z"
             style="fill:#656263;fill-opacity:1;fill-rule:nonzero;stroke:none"
             id="path208" />
        </g>
        <g
           id="g210"
           transform="translate(559.0371,276.7058)">
          <path
             d="M 0,0 H 0.021 L 1.55,4.218 h 1.302 l -3.112,-7.84 h -1.302 l 0.922,2.234 -2.245,5.606 h 1.345 z"
             style="fill:#656263;fill-opacity:1;fill-rule:nonzero;stroke:none"
             id="path212" />
        </g>
      </g>
    </g>
  </g>
</svg>
