<svg version="1.1" id="图层_1" xmlns="http://www.w3.org/2000/svg" x="0" y="0" viewBox="0 0 573 165" style="enable-background:new 0 0 573 165" xml:space="preserve"><style>.st0{fill:#3b62f3}.st1{fill:#5395ff}.st2{fill:#262626}</style><g id="XMLID_373_"><path id="XMLID_377_" class="st0" d="m199 51.7-67.4 110.5h58.8c31.5 0 57.1-24.9 57.1-55.6 0-27.8-21-50.8-48.5-54.9z"/><path id="XMLID_376_" class="st1" d="M191.5 51c-6.4-27.5-31.8-48.4-62.7-49.9v152.6L191.5 51z"/><path id="XMLID_375_" class="st0" d="M122.1 1c-30.9 1.3-56.3 22-63 49.3l63 103.2V1z"/><path id="XMLID_374_" class="st1" d="M2.8 106.6c0 30.7 25.6 55.6 57.1 55.6h59.5L51.9 51.6c-27.7 3.8-49.1 26.9-49.1 55z"/></g><path id="XMLID_371_" class="st2" d="M275.8 141c0-1.3-.1-2.3-.3-3.7h4.1c-.2 1.3-.3 2.3-.3 3.7v1.3h2.4c2.2 0 3.3 0 4.8-.2v2.5c-1.4-.1-2.6-.2-4.7-.2h-2.4v11.5c0 1 .1 1.6.5 1.9.4.4 1.4.7 2.5.7 1.3 0 2.3-.2 3.8-.9l1 2.4c-1.8.5-3.5.8-5.2.8-2 0-3.8-.4-4.7-1.1-.9-.7-1.2-1.7-1.2-3.6v-11.6h-1.9c-2 0-2.9 0-4.3.2v-2.5c1.3.1 2.2.2 4.3.2h1.9V141z"/><path id="XMLID_368_" class="st2" d="M295.1 151.7c.1 2.7.6 3.9 1.8 5.1 1.3 1.3 3.1 2 5.3 2 2 0 3.7-.6 5-1.8.7-.6 1-1.1 1.5-2.3l3.1 1c-.9 1.6-1.5 2.2-2.5 3-1.9 1.4-4.3 2.1-7.2 2.1-6.4 0-10.4-3.6-10.4-9.4 0-3.3 1.3-6.1 3.7-7.8 1.7-1.1 3.9-1.8 6.4-1.8 5.9 0 9.5 3.2 10 8.7 0 .2.1.9.1 1.2h-16.8zm13.3-2.1c-.2-1.8-.7-2.8-1.8-3.9-1.2-1.2-2.9-1.8-4.9-1.8-1.9 0-3.5.6-4.7 1.9-1 1-1.5 2-1.8 3.8h13.2z"/><path id="XMLID_366_" class="st2" d="M315.7 160.4c.2-1.3.3-2.4.3-3.8V146c0-1.6-.1-2.7-.3-3.8h3.5v1.8c0 .5 0 1-.1 1.7.8-1.2 1.3-1.7 2.4-2.3 1.8-1 3.6-1.5 5.8-1.5 4.7 0 7.3 2.2 7.3 6.2v8.5c0 1.7 0 2.6.3 3.8h-3.8c.2-1.2.3-2.1.3-3.8v-7.8c0-3.3-1.6-4.8-4.9-4.8-3.7 0-7.3 3.1-7.3 6.2v6.3c0 1.5.1 2.4.3 3.8h-3.8z"/><path id="XMLID_364_" class="st2" d="M341.9 145c-1.2-1.4-1.8-2-2.5-2.7h4.1c.2.5 1.2 1.8 1.6 2.3l4 4.8 4-4.8c.6-.7 1.2-1.6 1.6-2.3h4.1c-.9.9-1.6 1.7-2.5 2.8l-5.2 6 5.5 6.2c.9 1 2 2.3 3 3.2h-4.2c-.6-1.1-.6-1.1-1.8-2.4l-4.4-5.2-4.5 5.4c-.7.8-.8.9-1.6 2.2h-4.2l.6-.6c.1-.1.9-.9 2.1-2.3l5.7-6.5-5.4-6.1z"/><path id="XMLID_362_" class="st2" d="M379.3 147.9c-.5-1.3-.9-1.9-1.6-2.5-1.1-1-2.5-1.4-4.3-1.4-4.4 0-7.2 2.9-7.2 7.4 0 4.6 2.8 7.4 7.3 7.4 1.9 0 3.5-.5 4.5-1.5.6-.6 1-1.1 1.5-2.5l3.2.7c-.7 1.4-1.1 2.1-1.8 2.9-1.6 1.7-4.3 2.6-7.6 2.6-6.5 0-10.5-3.6-10.5-9.4 0-5.9 4-9.6 10.4-9.6 3.4 0 6.1 1 7.9 3 .5.6.9 1.1 1.4 2.2l-3.2.7z"/><path id="XMLID_360_" class="st2" d="M393.8 134.8c-.2 1.2-.3 2.1-.3 3.8v18c0 1.5.1 2.4.3 3.8h-4.1c.2-1.5.3-2.5.3-3.8v-18c0-1.6-.1-2.6-.3-3.8h4.1z"/><path id="XMLID_357_" class="st2" d="M400.3 151.3c0-5.8 4.1-9.5 10.5-9.5s10.4 3.7 10.4 9.5c0 3.2-1.3 6-3.7 7.7-1.7 1.2-4 1.9-6.7 1.9-6.5-.1-10.5-3.7-10.5-9.6zm10.5 7.4c4.4 0 7-2.8 7-7.4 0-4.5-2.7-7.4-6.9-7.4-4.4 0-7.1 2.9-7.1 7.4-.1 4.6 2.6 7.4 7 7.4z"/><path id="XMLID_355_" class="st2" d="M444 142.3c-.2 1.3-.3 2.3-.3 3.8v10.6c0 1.6.1 2.6.3 3.8h-3.5v-1.9c0-.5 0-1.2.1-1.8-.9 1.3-1.4 1.8-2.5 2.5-1.6.9-3.6 1.5-5.8 1.5-4.7 0-7.3-2.2-7.3-6.2V146c0-1.7 0-2.6-.3-3.8h3.8c-.2 1.1-.3 2.1-.3 3.8v7.8c0 3.2 1.6 4.8 4.8 4.8 1.3 0 2.6-.3 3.6-.9 2.1-1.1 3.7-3.5 3.7-5.5V146c0-1.4-.1-2.5-.3-3.8h4z"/><path id="XMLID_352_" class="st2" d="M464 158.7c0-.4 0-.9.1-1.3-.6.9-.9 1.3-1.7 1.8-1.6 1-3.3 1.5-5.5 1.5-2.3 0-4.3-.6-5.6-1.7-2-1.6-3.2-4.5-3.2-7.9 0-3.4 1.1-6.1 3.2-7.7 1.4-1 3.3-1.6 5.5-1.6s4.1.5 5.5 1.5c.8.5 1.2.9 1.8 1.9v-.5c-.1-.5-.1-.7-.1-1.7v-4.5c0-1.4-.1-2.6-.3-3.8h3.8c-.2 1.4-.3 2.3-.3 3.8v17.9c0 1.8 0 2.6.3 3.9H464v-1.6zm-6.6-.1c4.1 0 6.6-2.8 6.6-7.3s-2.6-7.3-6.6-7.3c-3.7 0-6 2.6-6 7.1.1 4.9 2.2 7.5 6 7.5z"/><g id="XMLID_343_"><path id="XMLID_350_" class="st2" d="M510 149.3c-.5-1.2-.9-1.7-1.5-2.3-1.1-.9-2.5-1.4-4.2-1.4-4.3 0-7 2.7-7 6.9 0 4.4 2.7 6.9 7.2 6.9 1.9 0 3.4-.5 4.4-1.4.6-.6.9-1.1 1.5-2.3l3.2.7c-.7 1.3-1.1 2-1.8 2.7-1.5 1.6-4.2 2.4-7.4 2.4-6.4 0-10.3-3.4-10.3-8.9s3.9-9.1 10.2-9.1c3.3 0 6 1 7.7 2.8.5.6.8 1.1 1.3 2.1l-3.3.9z"/><path id="XMLID_347_" class="st2" d="M515.9 152.5c0-5.5 4-9 10.3-9 6.2 0 10.2 3.5 10.2 9 0 3.1-1.3 5.6-3.6 7.2-1.7 1.1-3.9 1.7-6.6 1.7-6.3.1-10.3-3.3-10.3-8.9zm10.3 7c4.3 0 6.8-2.6 6.8-6.9 0-4.3-2.6-7-6.8-7-4.3 0-7 2.7-7 7 .1 4.2 2.7 6.9 7 6.9z"/><g id="XMLID_344_"><path id="XMLID_345_" class="st2" d="M566.4 159.9h-3.2v-9.1c0-1.7-.3-3-.9-3.7-.6-.7-1.6-1.1-3-1.1-1.2 0-2.2.5-3 1.4-.8 1-1.3 2.1-1.3 3.4v9h-3.2v-9.4c0-3-1.3-4.5-4-4.5-1.2 0-2.2.5-3 1.4-.8.9-1.2 2.1-1.2 3.5v9h-3.2V144h3.2v2.5h.1c1.3-1.9 3.2-2.9 5.6-2.9 1.2 0 2.3.3 3.2.9.9.6 1.6 1.4 1.9 2.4 1.3-2.2 3.4-3.2 6.1-3.2 4 0 6 2.2 6 6.5v9.7z"/></g></g><path id="XMLID_342_" class="st2" d="M480.5 157h4.7v4.7h-4.7z"/><path class="st2" d="m389.5 39.9-18.1-5.5v9l18.1 5.8zm29 52.7c1.7-6.4 1.7-12.6 1.7-12.6h5.2v34.5h9.9V79.8h19.2s9.7 1.7 9.7-7.9V58.5s.1-.9-.2-1.9c-1.2-4.8-6.8-4.1-6.8-4.1h-21.8v-7.4h27l2.6-7.2h-29.6v-7.4h-10.8v7.4h-27.3v7.2H425v7.4h-20.3c-.6-.1-7.2-.6-7.2 7.2-.2 8.7 0 13.4 0 13.4s0 6.6 7.4 7c6.6-.2 6.6 0 6.6 0s.8 18.8-16.3 23.8v7.4s17.7-.3 23.3-18.7zm16.7-34.1h18.3s2.2-.4 2.2 2.3v11.6s-.1 1.8-1.7 2c-2.3.1-18.8 0-18.8 0V58.5zm-27 15.7c-2.5-.2-2.5-2.3-2.5-2.3V60.7c0-2.7 2.7-2.3 2.7-2.3h16.7v15.7c0 .1-14.4.3-16.9.1z"/><path class="st2" d="M449.7 84.5h-9.1c2.8 25.8 25.5 26.5 25.5 26.5s.1-.5 0-7c-14.2-4.1-16.4-19.5-16.4-19.5zm-112.5 21.2v-8c-14.6-11-14.5-37.6-14.5-37.6h-7.5c0 42.6 22 45.6 22 45.6z"/><path class="st2" d="M408.9 120.1c-6.2-1.1-16-3.5-19.7-9.5-.2-9 0-51.4 0-51.4h-18.7v7.2h9.3V112l-8.5 10.4.3.3-.1.1 6.5 5.6 7.9-9.7s11.1 10 41 10.4c10.4.2 25.2-.9 40-4.5v-7.2s-31.3 8.7-58 2.7zM355.6 30h-8.8v15.8l-37.5.4v8h37.4v63.5s-7.3 6-29.6 1.6c-.2 6.2 0 7.1 0 7.1s26.7 6.5 38.5-4.9c.4-13.4 0-67.3 0-67.3h7.3l2.5-8.2h-9.8V30zm-72.1 7.6c-8 .7-11.8 2.5-14.7 6.2v80.4s6.3 6.2 20.9 4.7c5.8-.5 11.4-3.3 12.3-5.3.4-2.7 0-78.9 0-78.9s-3.4-8-18.5-7.1zm10.4 82.4s-7.3 3.8-16.3.5c0-4.8-.1-23.7-.2-41.2h11.4V74h-11.4c-.1-14.7-.1-27.2-.1-27.2s7.3-5.6 16.7.2c-.1 0-.3 72.7-.1 73zm265.6-82-78.5-.1v7.3h74.9zm-15.6 52.4 9.9 27.4s-28.1 8.7-59 .7c-1.2-1.2-.9-1.2-.2-4s11.3-38 11.3-38l-10.5-.1-11.7 38.1s-3.4 8.2 5 11c5.3 1.2 39.8 9.6 76-3.1-3.1-9.3-12-32-12-32h-8.8zm-70.7-24.9v7h92.5l2.3-7z"/></svg>