<svg width="285" height="54" viewBox="0 0 285 54" fill="none" xmlns="http://www.w3.org/2000/svg">
<path d="M82.9001 31C82.2001 29.4 80.9001 26.6 79.5001 24.1V50.9H74.8001V27C73.3001 31.7 71.3001 36.2 68.8001 40.4C68.5001 41 65.6001 36.6 66.3001 35.4C69.9001 29.2 72.6001 22.7 74.5001 15.8H67.0001C66.3001 15.8 68.3001 11.1 69.0001 11.1H74.9001V3.4C74.9001 3.4 79.5001 -0.2 79.6001 0.8C79.7001 1.8 79.6001 11.1 79.6001 11.1H85.2001V15.8H79.6001V17.8C81.1001 19.9 85.1001 25.9 86.0001 27.5L82.9001 31ZM109.6 45.7C110.2 44.4 110.6 43.1 110.9 41.7C111.7 39 112.1 36.2 112.1 33.3H103.5V50.9H98.7001V37.7C95.4001 42.2 91.1001 45.9 86.3001 48.6C87.0001 46.3 87.4001 44 87.6001 41.6C91.1001 39.4 94.2001 36.6 96.8001 33.4H86.8001C87.5001 29.8 88.1001 24.2 88.5001 19.7H98.8001V13.9H86.6001L88.7001 9.6H93.5001C92.8001 7.3 91.7001 5.1 90.4001 3.1L94.0001 1C95.7001 3.4 97.1001 6 98.1001 8.8L96.3001 9.6H104.4C105.8 7.1 107.5 5.2 108.4 2.5L113.4 2.2C112.1 4.7 110.7 7.4 109.4 9.6H115.3V23.9H103.5V29.1H116.9C116.9 29.1 116.8 30.3 116.8 30.9C116.4 39.7 115.5 42.5 114.9 44.2L109.6 45.7ZM92.5001 23.9C92.3001 25.6 92.1001 27.5 91.8001 29.2H98.7001V23.9H92.5001ZM103.5 19.6H110.6V13.7H103.5V19.6ZM163.7 29V20.2H172.2V16.1H163.7V11.9C163.7 11.9 158.7 13.2 158.7 13.9V16.1H146.8V11.9C146.8 11.3 141.9 13.3 141.9 13.8V16.1H135.1C134.7 16.1 133.2 20.2 133.7 20.2H141.9V29H163.7ZM146.7 20.2H158.6V25H146.7V20.2ZM132.4 29.3C132.4 29.3 132.6 14.2 132.6 10.7C136.4 10.7 172.8 10.6 172.8 10.6V5.8H154.1C153.4 3.8 152.5 1.9 151.6 0L146.7 1.9C147.4 3 147.9 4.1 148.2 5.3C148.2 5.3 133.5 5.6 127.6 5.6C127.6 8.7 127.3 32.9 127.3 32.9C127.2 40.3 127.2 40.9 123.3 43.2C123 45.5 122.5 47.8 121.8 50.1C125.8 48.4 129.2 45.7 131.8 42.3C132.6 38.9 132.4 29.3 132.4 29.3ZM136.5 38.3C138.3 39.4 140.1 40.4 142.1 41.3C143.7 42 145.3 42.8 146.8 43.7C142.2 45.1 140 44.7 134.7 45.1C133.7 47.2 133.2 48.2 131.8 50.6C138.4 49.8 146.7 48.6 152.3 46.5C158.2 48.8 164.3 50.3 170.6 50.9C171.4 49.3 172.4 47.9 173.6 46.5C168.4 46.1 163.2 45.2 158.2 43.8C162.7 41.4 166.4 37.8 168.9 33.4L165.7 31.8L164.8 32H136.8L134.4 36H138.9H145.7H161.3C158.8 38.5 155.8 40.5 152.6 41.8C149.6 40.4 145.5 38.4 142.6 37.1C140.4 37.3 138.5 37.8 136.5 38.3ZM196.6 34.5C195.3 32 193.9 29.6 192.3 27.3V51.2H187.3V29C185.3 33.8 182.6 38.4 179.4 42.5C179.4 40.9 179 35.4 179 33.1C182.3 29.4 184.6 26.8 186.6 21H178.5C178 21 180.2 16.2 180.8 16.2H187.4V8.6C185 9 182.6 9.6 180.4 10C180.4 8.7 180.6 7.3 181 6.1C181 6.1 194.3 2.7 198 1.5C198 1.5 198.8 5 198.3 5.5C198.3 5.5 195.3 6.4 192.3 7.4V16.2H200V21.1H192.3V21.9C194 23.6 198.7 29.2 199.7 30.6L196.6 34.5ZM222.6 37.2V51.2H217.5V38.1C217.5 38.1 200.3 40.8 199.6 41C198.9 41.2 201.3 35.8 202.4 35.5C203.6 35.3 217.5 33.1 217.5 33.1V5.4C217.5 4.4 222.6 -0.4 222.6 1V32.2L228.6 31.2L229.4 36L222.6 37.2ZM208.7 27.5C206.9 25.1 204.7 24 201.3 21.7L204.6 18.7C208 20.9 211.2 23.5 214.1 26.5L208.7 27.5ZM211 14.5C208.8 11.8 206.2 9.4 203.3 7.5L206.7 4.6C209.7 6.7 212.4 9.3 214.8 12.2L211 14.5ZM250.4 23.1L246.2 25.8V16.5H252V11.7H246.2V1L241.2 4.7V11.7H236.4L234.4 16.4H241.2V27.9C238.6 29.4 236.2 31 233.8 32.7L235.1 37.3C237 35.6 239 34.1 241.2 32.7V45.2C241.2 46.4 238.1 46.3 235.6 46.2C234.3 47.4 233.6 49.1 233.6 50.8C237.4 50.9 242.4 50.7 244 49.9C245.6 49.1 246.2 47.8 246.2 45.1V30.8C246.2 30.8 248.9 28.8 250.6 27.3L250.4 23.1ZM275.8 26C274 30.3 271.2 34.1 267.7 37.3C264.9 34.5 262.7 31.2 261 27.6L256.7 29.5C258.3 33.5 260.7 37.2 263.8 40.3C259.5 43.1 258.2 43.8 252.8 43.8C252.5 45.8 250.5 48.9 249.2 51.1C254.7 49.5 262.9 47.1 267.4 43.8C271.6 47.2 276.5 49.8 281.7 51.2C282.6 49.6 283.7 48.2 285 46.9C280.1 45.7 275.5 43.5 271.4 40.6C276.6 35.6 280.3 29.4 282.2 22.5L278.9 21.2L278 21.4H270.1V13.9H281.2L281.1 9.2H270.1V1.2C270.2 -0.3 265.1 2.4 265 3.3C264.9 4.2 265 9.2 265 9.2H256.1L254.7 13.9H265V21.4H254.7L253.6 26.1L275.8 26Z" fill="#4C515A"/>
<path d="M52.4 11.8996C52.4 12.7996 52.3 13.6996 52.1 14.5996V14.6996L51.3 17.7996L50.5 20.7996L49.6 24.2996L48.1 29.9996C48.1 29.9996 48.1 30.1996 48 30.1996C46.9 34.2996 43.8 37.6996 39.8 39.0996L39.6 39.1996L34.1 41.1996L24.4 44.6996L21.5 45.7996L11.6 49.3996L1.8 52.9996C1.8 52.9996 1.8 52.9996 1.7 52.9996C1.6 52.9996 1.4 53.0996 1.3 53.0996C0.6 53.0996 0 52.4996 0 51.7996C0 51.6996 0 51.5996 0 51.4996C0 51.4996 0 51.4996 0 51.3996L2.3 42.7996C2.5 41.7996 3.1 41.0996 3.9 40.7996L14.8 36.7996L23.7 33.4996L24.6 33.1996L27.5 32.0996L31.7 30.5996C31.8 30.5996 31.8 30.5996 31.9 30.4996C32 30.4996 32 30.4996 32.1 30.3996C34.6 29.3996 36.7 27.4996 37.9 25.0996C38.2 24.5996 38.4 23.9996 38.6 23.3996V23.2996C38.6 23.1996 38.6 23.1996 38.6 23.0996L38.9 21.9996L39.2 20.7996L40.7 15.1996L40.8 14.7996C40.8 14.6996 40.8 14.6996 40.8 14.5996C40.8 13.9996 40.6 13.4996 40.3 13.0996C39.8 12.3996 39 11.9996 38.1 11.9996H34.6C34.5 11.9996 34.4 11.9996 34.3 11.9996C34 11.8996 33.8 11.7996 33.6 11.4996C33.4 11.2996 33.3 10.9996 33.3 10.6996C33.3 10.5996 33.3 10.4996 33.3 10.3996L35.1 3.69961L35.4 2.49961C35.6 1.99961 36.1 1.59961 36.6 1.59961H42.1C42.9 1.59961 43.7 1.69961 44.5 1.99961C48.1 2.99961 50.9 5.69961 51.9 9.19961C52.2 9.79961 52.4 10.7996 52.4 11.8996Z" fill="#F58220"/>
<path d="M32.8 2.5998C32.8 2.6998 32.8 2.7998 32.7 2.9998L30.8 10.2998L30.6 10.9998C30.4 11.5998 29.9 11.9998 29.3 11.9998H23.4C22.2 11.9998 21.2 12.7998 20.9 13.8998V13.9998C20.9 13.9998 20.9 13.9998 20.9 14.0998L19.1 20.7998L18.3 23.7998L17.5 26.7998L15.9 32.5998V32.6998C15.8 33.0998 15.5 33.3998 15.1 33.4998C15.1 33.4998 15.1 33.4998 15 33.4998C15 33.4998 15 33.4998 14.9 33.4998L5.80002 36.7998C5.80002 36.7998 5.80002 36.7998 5.70002 36.7998C5.60002 36.7998 5.40002 36.8998 5.30002 36.8998C4.60002 36.8998 4.00002 36.2998 4.00002 35.5998C4.00002 35.4998 4.00002 35.3998 4.00002 35.2998C4.00002 35.2998 4.00002 35.2998 4.00002 35.1998L5.40002 29.8998L6.70002 25.1998L9.80002 13.5998V13.4998C9.80002 13.3998 9.80002 13.2998 9.80002 13.1998C9.80002 12.4998 9.20002 11.8998 8.50002 11.8998H2.20002C1.50002 11.8998 0.900024 11.2998 0.900024 10.5998C0.900024 10.4998 0.900024 10.3998 0.900024 10.2998V10.1998L2.80002 3.2998C3.10002 2.1998 4.10002 1.2998 5.40002 1.2998H31.6C32.3 1.2998 32.8 1.8998 32.8 2.5998Z" fill="#F58220"/>
</svg>
